<svg width="250" height="249" viewBox="0 0 250 249" fill="none" xmlns="http://www.w3.org/2000/svg">
<g style="mix-blend-mode:multiply">
<ellipse cx="125" cy="30.5" rx="31" ry="30.5" fill="#F8D91E"/>
<ellipse cx="125" cy="30.5" rx="31" ry="30.5" fill="#F8D91E"/>
<ellipse cx="125" cy="30.5" rx="31" ry="30.5" fill="#5EDB65"/>
</g>
<g style="mix-blend-mode:multiply">
<rect x="74" y="61" width="102" height="102" rx="20" fill="#0092FF"/>
</g>
<g style="mix-blend-mode:multiply">
<ellipse cx="199" cy="30.5" rx="31" ry="30.5" fill="#F8D91E"/>
<ellipse cx="199" cy="30.5" rx="31" ry="30.5" fill="#F8D91E"/>
<ellipse cx="199" cy="30.5" rx="31" ry="30.5" fill="#F8D91E"/>
</g>
<g style="mix-blend-mode:multiply">
<rect x="148" y="61" width="102" height="102" rx="20" fill="#5EDB65"/>
</g>
<g style="mix-blend-mode:multiply">
<ellipse cx="51" cy="30.5" rx="31" ry="30.5" fill="#F8D91E"/>
<ellipse cx="51" cy="30.5" rx="31" ry="30.5" fill="#F8D91E"/>
<ellipse cx="51" cy="30.5" rx="31" ry="30.5" fill="#0092FF"/>
</g>
<g style="mix-blend-mode:multiply">
<rect y="61" width="102" height="102" rx="20" fill="#7660E7"/>
</g>
<g style="mix-blend-mode:multiply">
<rect x="20" y="147" width="62" height="102" rx="20" fill="#7660E7"/>
</g>
<g style="mix-blend-mode:multiply">
<rect x="94" y="147" width="62" height="102" rx="20" fill="#0092FF"/>
</g>
<g style="mix-blend-mode:multiply">
<rect x="169" y="147" width="62" height="102" rx="20" fill="#5EDB65"/>
</g>
</svg>
