<svg width="32" height="32" viewBox="0 0 32 32" fill="none" xmlns="http://www.w3.org/2000/svg">
<g style="mix-blend-mode:luminosity" opacity="0.8">
<g style="mix-blend-mode:multiply">
<path d="M15.263 0.803784C15.6593 0.371578 16.3407 0.371577 16.737 0.803783L28.3197 13.4353C28.9078 14.0766 28.4529 15.1111 27.5827 15.1111H4.41733C3.54715 15.1111 3.09218 14.0766 3.68029 13.4353L15.263 0.803784Z" fill="#0092FF"/>
</g>
<g style="mix-blend-mode:multiply">
<path d="M4.74219 14.7227C4.74219 14.4465 4.96605 14.2227 5.24219 14.2227H26.7607C27.0368 14.2227 27.2607 14.4465 27.2607 14.7227V31.5004C27.2607 31.7766 27.0368 32.0004 26.7607 32.0004H5.24219C4.96605 32.0004 4.74219 31.7766 4.74219 31.5004V14.7227Z" fill="#F8D91E"/>
</g>
<g style="mix-blend-mode:multiply">
<path d="M11.8516 23.0195C11.8516 22.7434 12.0754 22.5195 12.3516 22.5195H19.6479C19.924 22.5195 20.1479 22.7434 20.1479 23.0195V31.501C20.1479 31.7772 19.924 32.001 19.6479 32.001H12.3516C12.0754 32.001 11.8516 31.7772 11.8516 31.501V23.0195Z" fill="#0092FF"/>
</g>
</g>
</svg>
