<svg width="32" height="32" viewBox="0 0 32 32" fill="none" xmlns="http://www.w3.org/2000/svg">
<g style="mix-blend-mode:multiply">
<path d="M15.263 0.803784C15.6593 0.371578 16.3407 0.371577 16.737 0.803783L28.3197 13.4353C28.9078 14.0766 28.4528 15.1111 27.5827 15.1111H4.41733C3.54715 15.1111 3.09218 14.0766 3.68029 13.4353L15.263 0.803784Z" fill="#0092FF"/>
</g>
<g style="mix-blend-mode:multiply">
<path d="M4.74023 14.7227C4.74023 14.4465 4.96409 14.2227 5.24023 14.2227H26.7588C27.0349 14.2227 27.2588 14.4465 27.2588 14.7227V31.5004C27.2588 31.7766 27.0349 32.0004 26.7588 32.0004H5.24024C4.96409 32.0004 4.74023 31.7766 4.74023 31.5004V14.7227Z" fill="#F8D91E"/>
</g>
<g style="mix-blend-mode:multiply">
<path d="M11.8516 23.0176C11.8516 22.7414 12.0754 22.5176 12.3516 22.5176H19.6479C19.924 22.5176 20.1479 22.7414 20.1479 23.0176V31.4991C20.1479 31.7752 19.924 31.9991 19.6479 31.9991H12.3516C12.0754 31.9991 11.8516 31.7752 11.8516 31.4991V23.0176Z" fill="#0092FF"/>
</g>
</svg>
