<svg width="22" height="22" viewBox="0 0 22 22" fill="none" xmlns="http://www.w3.org/2000/svg">
<path d="M3.04734 7.44563L18.1775 2.805C18.3823 2.74527 18.5982 2.73401 18.808 2.7721C19.0179 2.8102 19.2161 2.8966 19.3868 3.02448C19.5575 3.15237 19.6962 3.31822 19.7918 3.50893C19.8873 3.69964 19.9372 3.90996 19.9375 4.12328V16.4983C19.9375 16.863 19.7926 17.2127 19.5348 17.4706C19.2769 17.7284 18.9272 17.8733 18.5625 17.8733C18.431 17.8733 18.3002 17.8545 18.1741 17.8174L11 15.6157V16.4983C11 16.863 10.8551 17.2127 10.5973 17.4706C10.3394 17.7284 9.98967 17.8733 9.625 17.8733H6.875C6.51033 17.8733 6.16059 17.7284 5.90273 17.4706C5.64487 17.2127 5.5 16.863 5.5 16.4983V13.9288L3.04734 13.1768C2.76348 13.0915 2.51454 12.9173 2.33722 12.6798C2.1599 12.4423 2.0636 12.1541 2.0625 11.8577V8.76391C2.06378 8.46766 2.16017 8.17965 2.33748 7.94232C2.51478 7.70499 2.76362 7.53087 3.04734 7.44563ZM11 14.178L18.5625 16.4983V4.12328L11 6.44359V14.178ZM6.875 16.4983H9.625V15.1938L6.875 14.3498V16.4983ZM3.4375 11.8577H3.44695L9.625 13.7552V6.86641L3.44695 8.75703H3.4375V11.8508V11.8577Z" fill="white"/>
</svg>