<svg width="106" height="124" viewBox="0 0 106 124" fill="none" xmlns="http://www.w3.org/2000/svg">
<rect x="0.475586" y="0.0859375" width="105.223" height="123.088" rx="10" fill="#F2F3F7"/>
<rect x="11.5332" y="86.3633" width="40.7837" height="9.68164" rx="4.5" fill="white" stroke="#6B91F5"/>
<rect x="54.4258" y="86.3633" width="40.2148" height="9.68164" rx="4.5" fill="#A4BCFA" stroke="#6B91F5"/>
<rect x="11.5332" y="99.4492" width="83.1069" height="8.54492" rx="4.27246" fill="white" stroke="#6B91F5"/>
<path d="M20.1953 91.2031H25.0151" stroke="#ABC0FA" stroke-linecap="round"/>
<rect x="11.5332" y="9.41016" width="83.1069" height="73.082" rx="4.5" fill="white" stroke="#6B91F5"/>
<path d="M19.8936 61.3633H24.7134" stroke="#ABC0FA" stroke-linecap="round"/>
<path d="M28.7002 61.3633H56.6245" stroke="#ABC0FA" stroke-linecap="round"/>
<path d="M19.8936 66.8828L72.3677 67.0439" stroke="#ABC0FA" stroke-linecap="round"/>
<path d="M19.3799 51.2383H46.995" stroke="#2B64EE" stroke-width="1.5" stroke-linecap="round"/>
<path d="M19.8936 77.9062H47.5087" stroke="#E4E4E7" stroke-width="1.5" stroke-linecap="round"/>
<path d="M29.001 91.2031H39.4722" stroke="#ABC0FA" stroke-linecap="round"/>
<path d="M15.7734 18.1602C15.7734 15.6749 17.7882 13.6602 20.2734 13.6602H85.9004C88.3857 13.6602 90.4004 15.6749 90.4004 18.1602V42.0762C90.4004 42.3523 90.1765 42.5762 89.9004 42.5762H16.2734C15.9973 42.5762 15.7734 42.3523 15.7734 42.0762V18.1602Z" fill="#F4F4F5" stroke="#F4F4F5"/>
<g clip-path="url(#clip0_390_6403)">
<path d="M61.4316 22.8672V33.3672C61.4316 33.765 61.2736 34.1465 60.9923 34.4278C60.711 34.7092 60.3295 34.8672 59.9316 34.8672H46.4316C46.0338 34.8672 45.6523 34.7092 45.371 34.4278C45.0897 34.1465 44.9316 33.765 44.9316 33.3672V22.8672C44.9316 22.4694 45.0897 22.0878 45.371 21.8065C45.6523 21.5252 46.0338 21.3672 46.4316 21.3672H59.9316C60.3295 21.3672 60.711 21.5252 60.9923 21.8065C61.2736 22.0878 61.4316 22.4694 61.4316 22.8672ZM66.8691 22.8906C66.7633 22.8647 66.6532 22.8615 66.5461 22.8813C66.439 22.901 66.3372 22.9431 66.2476 23.005L63.0985 25.1041C63.0471 25.1383 63.005 25.1848 62.9759 25.2392C62.9468 25.2937 62.9316 25.3545 62.9316 25.4163V30.8181C62.9316 30.8799 62.9468 30.9407 62.9759 30.9951C63.005 31.0496 63.0471 31.096 63.0985 31.1303L66.2654 33.2416C66.3839 33.3206 66.5225 33.3643 66.665 33.3675C66.8074 33.3706 66.9478 33.3331 67.0698 33.2594C67.1826 33.1877 67.2751 33.0882 67.3384 32.9705C67.4018 32.8528 67.4339 32.7208 67.4316 32.5872V23.6172C67.4317 23.4509 67.3765 23.2892 67.2747 23.1577C67.1729 23.0262 67.0302 22.9322 66.8691 22.8906Z" fill="#A1A1AA"/>
</g>
<defs>
<clipPath id="clip0_390_6403">
<rect width="24" height="24" fill="white" transform="translate(43.4316 16.1172)"/>
</clipPath>
</defs>
</svg>
