<svg width="106" height="124" viewBox="0 0 106 124" fill="none" xmlns="http://www.w3.org/2000/svg">
<g id="Group 275">
<rect id="Rectangle 263" x="0.384766" y="0.828125" width="105.223" height="123.088" rx="10" fill="#F2F3F7"/>
<rect id="Rectangle 266" x="11.4424" y="87.1055" width="40.7837" height="9.68164" rx="4.5" fill="white" stroke="#6B91F5"/>
<rect id="Rectangle 267" x="54.335" y="87.1055" width="40.2148" height="9.68164" rx="4.5" fill="#A4BCFA" stroke="#6B91F5"/>
<rect id="Rectangle 268" x="11.4424" y="100.191" width="83.1069" height="8.54492" rx="4.27246" fill="white" stroke="#6B91F5"/>
<path id="Line 69" d="M20.1045 91.9453H24.9243" stroke="#ABC0FA" stroke-linecap="round"/>
<rect id="Rectangle 264" x="11.4424" y="10.1523" width="83.1069" height="73.082" rx="4.5" fill="white" stroke="#6B91F5"/>
<path id="Line 64" d="M19.8027 62.1055H24.6226" stroke="#ABC0FA" stroke-linecap="round"/>
<path id="Line 65" d="M28.6094 62.1055H56.5337" stroke="#ABC0FA" stroke-linecap="round"/>
<path id="Line 66" d="M19.8027 67.625L72.2769 67.7861" stroke="#ABC0FA" stroke-linecap="round"/>
<path id="Line 67" d="M19.2891 51.9805H46.9042" stroke="#2B64EE" stroke-width="1.5" stroke-linecap="round"/>
<path id="Line 68" d="M19.8027 78.6484H47.4179" stroke="#E4E4E7" stroke-width="1.5" stroke-linecap="round"/>
<path id="Line 70" d="M28.9102 91.9453H39.3813" stroke="#ABC0FA" stroke-linecap="round"/>
<path id="Rectangle 265" d="M20.1826 14.4023H85.8096C88.2949 14.4023 90.3096 16.4171 90.3096 18.9023V42.8184C90.3096 43.0945 90.0857 43.3184 89.8096 43.3184H16.1826C15.9065 43.3184 15.6826 43.0945 15.6826 42.8184V18.9023C15.6826 16.4171 17.6973 14.4023 20.1826 14.4023Z" fill="#F4F4F5" stroke="#F4F4F5"/>
<g id="Frame">
<path id="Vector" d="M60.9023 20.8672H45.0898C44.7086 20.8672 44.343 21.0252 44.0734 21.3065C43.8038 21.5878 43.6523 21.9694 43.6523 22.3672V35.8672C43.6523 36.265 43.8038 36.6465 44.0734 36.9278C44.343 37.2092 44.7086 37.3672 45.0898 37.3672H60.9023C61.2836 37.3672 61.6492 37.2092 61.9188 36.9278C62.1884 36.6465 62.3398 36.265 62.3398 35.8672V22.3672C62.3398 21.9694 62.1884 21.5878 61.9188 21.3065C61.6492 21.0252 61.2836 20.8672 60.9023 20.8672ZM55.5117 25.3672C55.725 25.3672 55.9334 25.4332 56.1107 25.5568C56.288 25.6804 56.4262 25.8561 56.5078 26.0617C56.5894 26.2672 56.6107 26.4934 56.5691 26.7117C56.5275 26.9299 56.4248 27.1303 56.2741 27.2877C56.1233 27.445 55.9312 27.5522 55.7221 27.5956C55.5129 27.639 55.2961 27.6167 55.0991 27.5316C54.9021 27.4464 54.7338 27.3022 54.6153 27.1172C54.4968 26.9322 54.4336 26.7147 54.4336 26.4922C54.4336 26.1938 54.5472 25.9077 54.7494 25.6967C54.9516 25.4857 55.2258 25.3672 55.5117 25.3672ZM45.0898 35.8672V33.2422L49.7617 28.3672L56.9492 35.8672H45.0898ZM60.9023 35.8672H58.9824L55.748 32.4922L57.5449 30.6172L60.9023 34.1216V35.8672Z" fill="#A1A1AA"/>
</g>
</g>
</svg>
