<svg width="106" height="95" viewBox="0 0 106 95" fill="none" xmlns="http://www.w3.org/2000/svg">
<rect x="0.526367" y="0.841797" width="105.223" height="93.625" rx="10" fill="#F2F3F7"/>
<rect x="11.585" y="10.168" width="83.1069" height="73.082" rx="4.5" fill="white" stroke="#6B91F5"/>
<path d="M19.9453 62.1191H24.7651" stroke="#ABC0FA" stroke-linecap="round"/>
<path d="M28.752 62.1191H56.6763" stroke="#ABC0FA" stroke-linecap="round"/>
<path d="M19.9453 67.6406L72.4194 67.8017" stroke="#ABC0FA" stroke-linecap="round"/>
<path d="M19.4307 51.9961H47.0458" stroke="#2B64EE" stroke-width="1.5" stroke-linecap="round"/>
<path d="M19.9453 78.6641H47.5605" stroke="#E4E4E7" stroke-width="1.5" stroke-linecap="round"/>
<path d="M15.8242 18.918C15.8242 16.4327 17.8389 14.418 20.3242 14.418H85.9512C88.4364 14.418 90.4512 16.4327 90.4512 18.918V42.834C90.4512 43.1101 90.2273 43.334 89.9512 43.334H16.3242C16.0481 43.334 15.8242 43.1101 15.8242 42.834V18.918Z" fill="#F4F4F5" stroke="#F4F4F5"/>
<path d="M47.2144 29.3281H62.2144C62.4133 29.3281 62.604 29.2491 62.7447 29.1085C62.8853 28.9678 62.9644 28.777 62.9644 28.5781V26.3281C62.9644 26.2296 62.9451 26.132 62.9075 26.041C62.8698 25.9499 62.8146 25.8672 62.745 25.7975L57.495 20.5475C57.4253 20.4779 57.3425 20.4227 57.2515 20.385C57.1604 20.3474 57.0629 20.328 56.9644 20.3281H47.9644C47.5665 20.3281 47.185 20.4862 46.9037 20.7675C46.6224 21.0488 46.4644 21.4303 46.4644 21.8281V28.5781C46.4644 28.777 46.5434 28.9678 46.684 29.1085C46.8247 29.2491 47.0154 29.3281 47.2144 29.3281ZM56.9644 22.2031L61.0894 26.3281H56.9644V22.2031ZM63.7144 32.3281C63.7144 32.527 63.6353 32.7178 63.4947 32.8585C63.354 32.9991 63.1633 33.0781 62.9644 33.0781H60.7144V34.5781H62.2144C62.4133 34.5781 62.604 34.6571 62.7447 34.7978C62.8853 34.9384 62.9644 35.1292 62.9644 35.3281C62.9644 35.527 62.8853 35.7178 62.7447 35.8585C62.604 35.9991 62.4133 36.0781 62.2144 36.0781H60.7144V37.5781C60.7144 37.777 60.6353 37.9678 60.4947 38.1085C60.354 38.2491 60.1633 38.3281 59.9644 38.3281C59.7654 38.3281 59.5747 38.2491 59.434 38.1085C59.2934 37.9678 59.2144 37.777 59.2144 37.5781V32.3281C59.2144 32.1292 59.2934 31.9384 59.434 31.7978C59.5747 31.6571 59.7654 31.5781 59.9644 31.5781H62.9644C63.1633 31.5781 63.354 31.6571 63.4947 31.7978C63.6353 31.9384 63.7144 32.1292 63.7144 32.3281ZM48.7144 31.5781H47.2144C47.0154 31.5781 46.8247 31.6571 46.684 31.7978C46.5434 31.9384 46.4644 32.1292 46.4644 32.3281V37.5781C46.4644 37.777 46.5434 37.9678 46.684 38.1085C46.8247 38.2491 47.0154 38.3281 47.2144 38.3281C47.4133 38.3281 47.604 38.2491 47.7447 38.1085C47.8853 37.9678 47.9644 37.777 47.9644 37.5781V36.8281H48.7144C49.4105 36.8281 50.0782 36.5516 50.5705 36.0593C51.0628 35.567 51.3394 34.8993 51.3394 34.2031C51.3394 33.5069 51.0628 32.8393 50.5705 32.347C50.0782 31.8547 49.4105 31.5781 48.7144 31.5781ZM48.7144 35.3281H47.9644V33.0781H48.7144C49.0127 33.0781 49.2989 33.1967 49.5099 33.4076C49.7208 33.6186 49.8394 33.9048 49.8394 34.2031C49.8394 34.5015 49.7208 34.7876 49.5099 34.9986C49.2989 35.2096 49.0127 35.3281 48.7144 35.3281ZM54.7144 31.5781H53.2144C53.0154 31.5781 52.8247 31.6571 52.684 31.7978C52.5434 31.9384 52.4644 32.1292 52.4644 32.3281V37.5781C52.4644 37.777 52.5434 37.9678 52.684 38.1085C52.8247 38.2491 53.0154 38.3281 53.2144 38.3281H54.7144C55.6095 38.3281 56.4679 37.9725 57.1008 37.3396C57.7338 36.7067 58.0894 35.8482 58.0894 34.9531C58.0894 34.058 57.7338 33.1996 57.1008 32.5666C56.4679 31.9337 55.6095 31.5781 54.7144 31.5781ZM54.7144 36.8281H53.9644V33.0781H54.7144C55.2116 33.0781 55.6885 33.2757 56.0402 33.6273C56.3918 33.9789 56.5894 34.4558 56.5894 34.9531C56.5894 35.4504 56.3918 35.9273 56.0402 36.2789C55.6885 36.6306 55.2116 36.8281 54.7144 36.8281Z" fill="#A1A1AA"/>
</svg>
