<svg width="106" height="124" viewBox="0 0 106 124" fill="none" xmlns="http://www.w3.org/2000/svg">
<rect x="0.477539" y="0.0859375" width="105.223" height="123.088" rx="10" fill="#F2F3F7"/>
<rect x="11.5352" y="86.3633" width="40.7837" height="9.68164" rx="4.5" fill="white" stroke="#6B91F5"/>
<rect x="54.4277" y="86.3633" width="40.2148" height="9.68164" rx="4.5" fill="#A4BCFA" stroke="#6B91F5"/>
<rect x="11.5352" y="99.4492" width="83.1069" height="8.54492" rx="4.27246" fill="white" stroke="#6B91F5"/>
<path d="M20.1973 91.2031H25.0171" stroke="#ABC0FA" stroke-linecap="round"/>
<rect x="11.5352" y="9.41016" width="83.1069" height="73.082" rx="4.5" fill="white" stroke="#6B91F5"/>
<path d="M19.8955 61.3633H24.7153" stroke="#ABC0FA" stroke-linecap="round"/>
<path d="M28.7021 61.3633H56.6265" stroke="#ABC0FA" stroke-linecap="round"/>
<path d="M19.8955 66.8828L72.3696 67.0439" stroke="#ABC0FA" stroke-linecap="round"/>
<path d="M19.3818 51.2383H46.997" stroke="#2B64EE" stroke-width="1.5" stroke-linecap="round"/>
<path d="M19.8955 77.9062H47.5106" stroke="#E4E4E7" stroke-width="1.5" stroke-linecap="round"/>
<path d="M29.0029 91.2031H39.4741" stroke="#ABC0FA" stroke-linecap="round"/>
<path d="M15.7754 18.1602C15.7754 15.6749 17.7901 13.6602 20.2754 13.6602H85.9023C88.3876 13.6602 90.4023 15.6749 90.4023 18.1602V42.0762C90.4023 42.3523 90.1785 42.5762 89.9023 42.5762H16.2754C15.9992 42.5762 15.7754 42.3523 15.7754 42.0762V18.1602Z" fill="#F4F4F5" stroke="#F4F4F5"/>
<path d="M46.5342 27.3672H61.5342C61.7331 27.3672 61.9239 27.2882 62.0645 27.1475C62.2052 27.0069 62.2842 26.8161 62.2842 26.6172V24.3672C62.2843 24.2687 62.2649 24.1711 62.2273 24.0801C62.1896 23.989 62.1344 23.9063 62.0648 23.8366L56.8148 18.5866C56.7451 18.5169 56.6624 18.4617 56.5713 18.4241C56.4803 18.3864 56.3827 18.3671 56.2842 18.3672H47.2842C46.8864 18.3672 46.5048 18.5252 46.2235 18.8065C45.9422 19.0878 45.7842 19.4694 45.7842 19.8672V26.6172C45.7842 26.8161 45.8632 27.0069 46.0038 27.1475C46.1445 27.2882 46.3353 27.3672 46.5342 27.3672ZM56.2842 20.2422L60.4092 24.3672H56.2842V20.2422ZM63.0342 30.3672C63.0342 30.5661 62.9552 30.7569 62.8145 30.8975C62.6739 31.0382 62.4831 31.1172 62.2842 31.1172H60.0342V32.6172H61.5342C61.7331 32.6172 61.9239 32.6962 62.0645 32.8369C62.2052 32.9775 62.2842 33.1683 62.2842 33.3672C62.2842 33.5661 62.2052 33.7569 62.0645 33.8975C61.9239 34.0382 61.7331 34.1172 61.5342 34.1172H60.0342V35.6172C60.0342 35.8161 59.9552 36.0069 59.8145 36.1475C59.6739 36.2882 59.4831 36.3672 59.2842 36.3672C59.0853 36.3672 58.8945 36.2882 58.7538 36.1475C58.6132 36.0069 58.5342 35.8161 58.5342 35.6172V30.3672C58.5342 30.1683 58.6132 29.9775 58.7538 29.8369C58.8945 29.6962 59.0853 29.6172 59.2842 29.6172H62.2842C62.4831 29.6172 62.6739 29.6962 62.8145 29.8369C62.9552 29.9775 63.0342 30.1683 63.0342 30.3672ZM48.0342 29.6172H46.5342C46.3353 29.6172 46.1445 29.6962 46.0038 29.8369C45.8632 29.9775 45.7842 30.1683 45.7842 30.3672V35.6172C45.7842 35.8161 45.8632 36.0069 46.0038 36.1475C46.1445 36.2882 46.3353 36.3672 46.5342 36.3672C46.7331 36.3672 46.9239 36.2882 47.0645 36.1475C47.2052 36.0069 47.2842 35.8161 47.2842 35.6172V34.8672H48.0342C48.7304 34.8672 49.3981 34.5906 49.8903 34.0983C50.3826 33.6061 50.6592 32.9384 50.6592 32.2422C50.6592 31.546 50.3826 30.8783 49.8903 30.386C49.3981 29.8937 48.7304 29.6172 48.0342 29.6172ZM48.0342 33.3672H47.2842V31.1172H48.0342C48.3325 31.1172 48.6187 31.2357 48.8297 31.4467C49.0407 31.6577 49.1592 31.9438 49.1592 32.2422C49.1592 32.5406 49.0407 32.8267 48.8297 33.0377C48.6187 33.2487 48.3325 33.3672 48.0342 33.3672ZM54.0342 29.6172H52.5342C52.3353 29.6172 52.1445 29.6962 52.0038 29.8369C51.8632 29.9775 51.7842 30.1683 51.7842 30.3672V35.6172C51.7842 35.8161 51.8632 36.0069 52.0038 36.1475C52.1445 36.2882 52.3353 36.3672 52.5342 36.3672H54.0342C54.9293 36.3672 55.7877 36.0116 56.4207 35.3787C57.0536 34.7457 57.4092 33.8873 57.4092 32.9922C57.4092 32.0971 57.0536 31.2386 56.4207 30.6057C55.7877 29.9728 54.9293 29.6172 54.0342 29.6172ZM54.0342 34.8672H53.2842V31.1172H54.0342C54.5315 31.1172 55.0084 31.3147 55.36 31.6664C55.7116 32.018 55.9092 32.4949 55.9092 32.9922C55.9092 33.4895 55.7116 33.9664 55.36 34.318C55.0084 34.6696 54.5315 34.8672 54.0342 34.8672Z" fill="#A1A1AA"/>
<path d="M69.2656 94.0272C69.2619 92.8349 69.7321 91.6901 70.5725 90.8446C71.413 89.999 72.5549 89.5219 73.7471 89.5183C74.9394 89.5147 76.0842 89.9848 76.9297 90.8253C77.7753 91.6658 78.2524 92.8077 78.256 93.9999C78.2566 94.1986 78.1782 94.3894 78.0382 94.5303C77.8981 94.6713 77.7078 94.7508 77.509 94.7514C77.3103 94.752 77.1195 94.6736 76.9786 94.5336C76.8377 94.3935 76.7582 94.2032 76.7576 94.0045C76.7552 93.2097 76.4371 92.4484 75.8734 91.888C75.3097 91.3277 74.5465 91.0143 73.7517 91.0167C72.9569 91.0191 72.1956 91.3372 71.6353 91.9009C71.075 92.4646 70.7615 93.2278 70.764 94.0226C70.7646 94.2213 70.6862 94.4121 70.5461 94.553C70.406 94.694 70.2157 94.7735 70.017 94.7741C69.8183 94.7747 69.6275 94.6963 69.4866 94.5563C69.3457 94.4162 69.2662 94.2259 69.2656 94.0272ZM82.695 99.2309C81.8888 99.2708 81.2709 99.9676 81.2733 100.774L81.2754 101.456C81.2786 101.649 81.2085 101.836 81.0791 101.98C80.9498 102.124 80.7708 102.213 80.5782 102.23C80.4757 102.238 80.3729 102.224 80.2761 102.189C80.1793 102.155 80.0905 102.101 80.0154 102.031C79.9403 101.961 79.8804 101.876 79.8394 101.782C79.7984 101.688 79.7772 101.586 79.7771 101.484L79.7704 99.2819C79.768 98.4756 79.1459 97.7854 78.3394 97.7476C78.1368 97.7384 77.9344 97.7705 77.7446 97.8419C77.5547 97.9133 77.3813 98.0225 77.2349 98.1628C77.0885 98.3032 76.9721 98.4718 76.8928 98.6585C76.8135 98.8452 76.7729 99.046 76.7735 99.2489L76.7779 100.722C76.7811 100.915 76.711 101.103 76.5816 101.246C76.4523 101.39 76.2733 101.48 76.0807 101.497C75.9782 101.504 75.8754 101.49 75.7786 101.456C75.6818 101.421 75.5931 101.367 75.5179 101.297C75.4428 101.227 75.3829 101.143 75.3419 101.048C75.3009 100.954 75.2797 100.853 75.2796 100.75L75.2593 94.0511C75.2569 93.2448 74.6348 92.5546 73.8283 92.5168C73.6257 92.5076 73.4233 92.5397 73.2335 92.6111C73.0436 92.6825 72.8702 92.7917 72.7238 92.932C72.5774 93.0724 72.461 93.241 72.3817 93.4277C72.3024 93.6144 72.2618 93.8152 72.2624 94.0181L72.2963 105.232C72.2992 105.413 72.2377 105.589 72.123 105.73C72.0082 105.87 71.8475 105.965 71.6693 105.998L71.6581 105.998C71.5464 106.011 71.4333 105.99 71.3332 105.939C71.2331 105.888 71.1503 105.808 71.0953 105.71L69.1183 102.304C68.7135 101.606 67.8286 101.318 67.1123 101.69C66.9313 101.782 66.7711 101.911 66.6414 102.068C66.5117 102.224 66.4153 102.406 66.358 102.601C66.3006 102.796 66.2836 103.001 66.308 103.203C66.3323 103.405 66.3975 103.599 66.4996 103.775L69.4198 109.39C69.4859 109.502 69.5798 109.595 69.6925 109.659C69.8051 109.724 69.9326 109.758 70.0624 109.758L82.7989 109.72C82.9381 109.719 83.0744 109.68 83.1926 109.607C83.3108 109.533 83.4062 109.428 83.4681 109.304C83.5017 109.236 84.2917 107.891 84.2845 105.494L84.27 100.725C84.2697 100.522 84.228 100.321 84.1477 100.134C84.0674 99.9479 83.95 99.7798 83.8027 99.6401C83.6554 99.5004 83.4813 99.3921 83.2908 99.3218C83.1004 99.2515 82.8977 99.2205 82.695 99.2309Z" fill="#71717A"/>
</svg>
