<svg width="107" height="123" viewBox="0 0 107 123" fill="none" xmlns="http://www.w3.org/2000/svg">
<rect x="0.793457" y="0.0859375" width="105.223" height="122.914" rx="10" fill="#F2F3F7"/>
<rect x="12.1216" y="28.6406" width="83.1069" height="42.6017" rx="4.5" fill="white" stroke="#6B91F5"/>
<rect x="12.1216" y="75.0547" width="40.7837" height="11.4775" rx="4.5" fill="white" stroke="#6B91F5"/>
<rect x="55.0137" y="75.0547" width="40.2148" height="11.4775" rx="4.5" fill="#A4BCFA" stroke="#6B91F5"/>
<rect x="12.1216" y="90.3418" width="83.1069" height="10.1497" rx="4.5" fill="white" stroke="#6B91F5"/>
<path d="M20.7832 80.791H25.603" stroke="#ABC0FA" stroke-linecap="round"/>
<path d="M20.5898 46.9062H48.5142" stroke="#ABC0FA" stroke-linecap="round"/>
<path d="M20.7832 53.3594L73.2572 53.5475" stroke="#ABC0FA" stroke-linecap="round"/>
<path d="M19.4487 34.6504H47.0639" stroke="#2B64EE" stroke-width="1.5" stroke-linecap="round"/>
<path d="M18.9629 65.8027H46.578" stroke="#E4E4E7" stroke-width="1.5" stroke-linecap="round"/>
<path d="M29.5894 80.791H40.0605" stroke="#ABC0FA" stroke-linecap="round"/>
<path d="M71.4653 88.4396C71.4616 87.047 71.9318 85.7097 72.7722 84.7219C73.6127 83.7342 74.7546 83.1769 75.9469 83.1727C77.1391 83.1685 78.2839 83.7177 79.1294 84.6994C79.975 85.6812 80.4521 87.0151 80.4557 88.4078C80.4563 88.6399 80.3779 88.8628 80.2379 89.0274C80.0978 89.192 79.9075 89.2849 79.7088 89.2856C79.5101 89.2863 79.3193 89.1948 79.1783 89.0311C79.0374 88.8675 78.9579 88.6452 78.9573 88.4131C78.9549 87.4847 78.6368 86.5954 78.0731 85.9409C77.5094 85.2863 76.7462 84.9202 75.9514 84.923C75.1566 84.9258 74.3953 85.2974 73.835 85.9559C73.2747 86.6143 72.9613 87.5059 72.9637 88.4343C72.9643 88.6664 72.8859 88.8893 72.7458 89.0539C72.6058 89.2185 72.4154 89.3114 72.2167 89.3121C72.018 89.3128 71.8272 89.2213 71.6863 89.0577C71.5454 88.894 71.4659 88.6717 71.4653 88.4396ZM84.8947 94.5183C84.0885 94.5649 83.4706 95.3788 83.4731 96.3207L83.4751 97.1171C83.4783 97.3429 83.4082 97.5618 83.2788 97.7297C83.1495 97.8976 82.9705 98.0021 82.7779 98.0221C82.6754 98.0304 82.5726 98.014 82.4758 97.9739C82.379 97.9339 82.2903 97.871 82.2151 97.7892C82.14 97.7074 82.0801 97.6084 82.0391 97.4984C81.9981 97.3884 81.9769 97.2697 81.9768 97.1497L81.9701 94.5779C81.9677 93.636 81.3456 92.8297 80.5392 92.7855C80.3365 92.7748 80.1342 92.8123 79.9443 92.8957C79.7544 92.9791 79.581 93.1066 79.4346 93.2706C79.2882 93.4346 79.1718 93.6316 79.0925 93.8496C79.0132 94.0677 78.9726 94.3023 78.9732 94.5392L78.9776 96.26C78.9808 96.4859 78.9107 96.7048 78.7813 96.8726C78.652 97.0405 78.473 97.145 78.2804 97.165C78.178 97.1733 78.0751 97.1569 77.9783 97.1169C77.8815 97.0768 77.7928 97.0139 77.7176 96.9321C77.6425 96.8503 77.5826 96.7513 77.5416 96.6413C77.5006 96.5313 77.4794 96.4127 77.4793 96.2927L77.459 88.4676C77.4566 87.5257 76.8345 86.7195 76.0281 86.6753C75.8254 86.6646 75.623 86.7021 75.4332 86.7855C75.2433 86.8688 75.0699 86.9964 74.9235 87.1604C74.7771 87.3243 74.6607 87.5213 74.5814 87.7394C74.5021 87.9574 74.4615 88.1921 74.4621 88.429L74.496 101.528C74.4989 101.74 74.4375 101.946 74.3227 102.109C74.2079 102.273 74.0472 102.384 73.869 102.423L73.8578 102.423C73.7461 102.438 73.633 102.414 73.5329 102.354C73.4328 102.295 73.35 102.201 73.295 102.087L71.318 98.1075C70.9132 97.2928 70.0283 96.9557 69.312 97.3904C69.131 97.4987 68.9708 97.649 68.8411 97.8319C68.7114 98.0149 68.615 98.2268 68.5577 98.4548C68.5003 98.6827 68.4833 98.9219 68.5077 99.1577C68.532 99.3936 68.5972 99.6212 68.6993 99.8266L71.6195 106.386C71.6856 106.516 71.7795 106.624 71.8922 106.7C72.0048 106.775 72.1323 106.815 72.2621 106.815L84.9986 106.77C85.1378 106.77 85.2741 106.724 85.3923 106.638C85.5105 106.553 85.6059 106.43 85.6679 106.284C85.7014 106.206 86.4915 104.634 86.4842 101.835L86.4697 96.263C86.4694 96.0259 86.4277 95.7914 86.3474 95.5736C86.2671 95.3558 86.1497 95.1594 86.0024 94.9963C85.8551 94.8331 85.681 94.7066 85.4905 94.6244C85.3001 94.5423 85.0974 94.5061 84.8947 94.5183Z" fill="#71717A"/>
</svg>
