<svg width="106" height="95" viewBox="0 0 106 95" fill="none" xmlns="http://www.w3.org/2000/svg">
<rect x="0.0800781" y="0.841797" width="105.223" height="93.625" rx="10" fill="#F2F3F7"/>
<rect x="11.1377" y="10.168" width="83.1069" height="73.082" rx="4.5" fill="white" stroke="#6B91F5"/>
<path d="M19.498 62.1191H24.3179" stroke="#ABC0FA" stroke-linecap="round"/>
<path d="M28.3047 62.1191H56.229" stroke="#ABC0FA" stroke-linecap="round"/>
<path d="M19.498 67.6406L71.9722 67.8017" stroke="#ABC0FA" stroke-linecap="round"/>
<path d="M18.9844 51.9961H46.5995" stroke="#2B64EE" stroke-width="1.5" stroke-linecap="round"/>
<path d="M19.498 78.6641H47.1132" stroke="#E4E4E7" stroke-width="1.5" stroke-linecap="round"/>
<path d="M15.3779 18.918C15.3779 16.4327 17.3926 14.418 19.8779 14.418H85.5049C87.9902 14.418 90.0049 16.4327 90.0049 18.918V42.834C90.0049 43.1101 89.781 43.334 89.5049 43.334H15.8779C15.6018 43.334 15.3779 43.1101 15.3779 42.834V18.918Z" fill="#F4F4F5" stroke="#F4F4F5"/>
<path d="M60.5977 20.8828H44.7852C44.4039 20.8828 44.0383 21.0408 43.7687 21.3222C43.4991 21.6035 43.3477 21.985 43.3477 22.3828V35.8828C43.3477 36.2806 43.4991 36.6622 43.7687 36.9435C44.0383 37.2248 44.4039 37.3828 44.7852 37.3828H60.5977C60.9789 37.3828 61.3445 37.2248 61.6141 36.9435C61.8837 36.6622 62.0352 36.2806 62.0352 35.8828V22.3828C62.0352 21.985 61.8837 21.6035 61.6141 21.3222C61.3445 21.0408 60.9789 20.8828 60.5977 20.8828ZM55.207 25.3828C55.4203 25.3828 55.6287 25.4488 55.806 25.5724C55.9833 25.696 56.1215 25.8717 56.2031 26.0773C56.2847 26.2829 56.306 26.5091 56.2644 26.7273C56.2228 26.9455 56.1202 27.146 55.9694 27.3033C55.8186 27.4606 55.6265 27.5678 55.4174 27.6112C55.2082 27.6546 54.9915 27.6323 54.7945 27.5472C54.5974 27.462 54.4291 27.3178 54.3106 27.1328C54.1921 26.9478 54.1289 26.7303 54.1289 26.5078C54.1289 26.2094 54.2425 25.9233 54.4447 25.7123C54.6469 25.5013 54.9211 25.3828 55.207 25.3828ZM44.7852 35.8828V33.2578L49.457 28.3828L56.6445 35.8828H44.7852ZM60.5977 35.8828H58.6777L55.4433 32.5078L57.2402 30.6328L60.5977 34.1372V35.8828Z" fill="#A1A1AA"/>
</svg>
