<svg width="107" height="107" viewBox="0 0 107 107" fill="none" xmlns="http://www.w3.org/2000/svg">
<g id="Group 275">
<rect id="Rectangle 244" x="0.833984" y="0.810547" width="105.223" height="105.223" rx="10" fill="#EDF2FF"/>
<rect id="Rectangle 245" x="12.1621" y="25.3281" width="83.1069" height="36.3262" rx="4.5" fill="white" stroke="#6B91F5"/>
<rect id="Rectangle 246" x="12.1621" y="65.0605" width="40.7837" height="9.68164" rx="4.5" fill="white" stroke="#6B91F5"/>
<rect id="Rectangle 247" x="55.0542" y="65.0605" width="40.2148" height="9.68164" rx="4.5" fill="#A4BCFA" stroke="#6B91F5"/>
<rect id="Rectangle 248" x="12.1621" y="78.1484" width="83.1069" height="8.54492" rx="4.27246" fill="white" stroke="#6B91F5"/>
<path id="Line 33" d="M20.8237 69.9004H25.6436" stroke="#ABC0FA" stroke-linecap="round"/>
<path id="Line 43" d="M20.6304 40.8926H48.5547" stroke="#ABC0FA" stroke-linecap="round"/>
<path id="Line 44" d="M20.8237 46.416L73.2979 46.5771" stroke="#ABC0FA" stroke-linecap="round"/>
<path id="Line 41" d="M19.4893 30.4004H47.1044" stroke="#2B64EE" stroke-width="1.5" stroke-linecap="round"/>
<path id="Line 42" d="M19.0034 57.0684H46.6186" stroke="#E4E4E7" stroke-width="1.5" stroke-linecap="round"/>
<path id="Line 34" d="M29.6299 69.9004H40.1011" stroke="#ABC0FA" stroke-linecap="round"/>
<g id="Frame">
<path id="Vector" d="M71.5058 76.449C71.5022 75.2568 71.9723 74.112 72.8128 73.2664C73.6532 72.4209 74.7952 71.9438 75.9874 71.9402C77.1796 71.9366 78.3244 72.4067 79.17 73.2472C80.0155 74.0876 80.4926 75.2296 80.4962 76.4218C80.4968 76.6205 80.4185 76.8113 80.2784 76.9522C80.1383 77.0931 79.948 77.1727 79.7493 77.1733C79.5506 77.1739 79.3598 77.0955 79.2189 76.9554C79.0779 76.8154 78.9984 76.625 78.9978 76.4263C78.9954 75.6315 78.6774 74.8702 78.1136 74.3099C77.5499 73.7496 76.7867 73.4362 75.9919 73.4386C75.1971 73.441 74.4358 73.7591 73.8755 74.3228C73.3152 74.8865 73.0018 75.6497 73.0042 76.4445C73.0048 76.6432 72.9264 76.834 72.7864 76.9749C72.6463 77.1158 72.456 77.1954 72.2573 77.196C72.0586 77.1966 71.8678 77.1182 71.7268 76.9781C71.5859 76.8381 71.5064 76.6477 71.5058 76.449ZM84.9352 81.6528C84.129 81.6927 83.5111 82.3895 83.5136 83.1958L83.5156 83.8776C83.5188 84.0709 83.4487 84.2583 83.3193 84.402C83.19 84.5458 83.011 84.6352 82.8184 84.6523C82.716 84.6594 82.6131 84.6454 82.5163 84.6111C82.4195 84.5768 82.3308 84.523 82.2557 84.4529C82.1805 84.3829 82.1206 84.2982 82.0796 84.204C82.0386 84.1098 82.0174 84.0082 82.0173 83.9055L82.0106 81.7038C82.0082 80.8975 81.3861 80.2073 80.5797 80.1695C80.3771 80.1603 80.1747 80.1924 79.9848 80.2638C79.795 80.3352 79.6216 80.4443 79.4751 80.5847C79.3287 80.7251 79.2123 80.8937 79.133 81.0804C79.0537 81.2671 79.0131 81.4679 79.0137 81.6707L79.0182 83.1439C79.0214 83.3372 78.9512 83.5246 78.8219 83.6683C78.6925 83.812 78.5135 83.9015 78.3209 83.9186C78.2185 83.9257 78.1156 83.9117 78.0188 83.8774C77.922 83.8431 77.8333 83.7893 77.7582 83.7192C77.683 83.6492 77.6231 83.5645 77.5821 83.4703C77.5411 83.3761 77.5199 83.2745 77.5198 83.1718L77.4995 76.473C77.4971 75.6667 76.875 74.9765 76.0686 74.9387C75.8659 74.9295 75.6636 74.9616 75.4737 75.033C75.2839 75.1044 75.1105 75.2135 74.964 75.3539C74.8176 75.4943 74.7012 75.6629 74.6219 75.8496C74.5426 76.0363 74.502 76.2371 74.5026 76.4399L74.5366 87.6536C74.5394 87.8348 74.478 88.0112 74.3632 88.1514C74.2484 88.2916 74.0877 88.3867 73.9096 88.4197L73.8983 88.4198C73.7866 88.4326 73.6736 88.4122 73.5734 88.361C73.4733 88.3098 73.3905 88.2302 73.3355 88.1321L71.3585 84.7254C70.9537 84.028 70.0688 83.7394 69.3525 84.1115C69.1716 84.2043 69.0113 84.3329 68.8817 84.4895C68.752 84.6462 68.6555 84.8276 68.5982 85.0227C68.5409 85.2178 68.5239 85.4226 68.5482 85.6245C68.5726 85.8264 68.6378 86.0212 68.7398 86.1971L71.66 91.812C71.7261 91.9238 71.8201 92.0165 71.9327 92.081C72.0454 92.1455 72.1728 92.1796 72.3027 92.18L85.0391 92.1414C85.1783 92.1411 85.3146 92.102 85.4328 92.0285C85.5511 91.9551 85.6465 91.8501 85.7084 91.7255C85.7419 91.6579 86.532 90.3126 86.5247 87.9161L86.5103 83.1465C86.5099 82.9435 86.4683 82.7427 86.3879 82.5562C86.3076 82.3698 86.1902 82.2017 86.0429 82.062C85.8956 81.9223 85.7215 81.814 85.5311 81.7437C85.3407 81.6733 85.1379 81.6424 84.9352 81.6528Z" fill="#71717A"/>
</g>
</g>
</svg>
