<svg width="106" height="95" viewBox="0 0 106 95" fill="none" xmlns="http://www.w3.org/2000/svg">
<rect x="0.303223" y="0.841797" width="105.223" height="93.625" rx="10" fill="#F2F3F7"/>
<rect x="11.3618" y="10.168" width="83.1069" height="73.082" rx="4.5" fill="white" stroke="#6B91F5"/>
<path d="M19.7222 62.1191H24.542" stroke="#ABC0FA" stroke-linecap="round"/>
<path d="M28.5288 62.1191H56.4531" stroke="#ABC0FA" stroke-linecap="round"/>
<path d="M19.7222 67.6406L72.1963 67.8017" stroke="#ABC0FA" stroke-linecap="round"/>
<path d="M19.2075 51.9961H46.8227" stroke="#2B64EE" stroke-width="1.5" stroke-linecap="round"/>
<path d="M19.7222 78.6641H47.3373" stroke="#E4E4E7" stroke-width="1.5" stroke-linecap="round"/>
<path d="M15.6011 18.918C15.6011 16.4327 17.6158 14.418 20.1011 14.418H85.728C88.2133 14.418 90.228 16.4327 90.228 18.918V42.834C90.228 43.1101 90.0042 43.334 89.728 43.334H16.1011C15.8249 43.334 15.6011 43.1101 15.6011 42.834V18.918Z" fill="#F4F4F5" stroke="#F4F4F5"/>
<g clip-path="url(#clip0_408_6104)">
<path d="M60.4907 24.8281V35.3281C60.4907 35.7259 60.3327 36.1075 60.0514 36.3888C59.7701 36.6701 59.3885 36.8281 58.9907 36.8281H45.4907C45.0929 36.8281 44.7114 36.6701 44.4301 36.3888C44.1488 36.1075 43.9907 35.7259 43.9907 35.3281V24.8281C43.9907 24.4303 44.1488 24.0488 44.4301 23.7675C44.7114 23.4862 45.0929 23.3281 45.4907 23.3281H58.9907C59.3885 23.3281 59.7701 23.4862 60.0514 23.7675C60.3327 24.0488 60.4907 24.4303 60.4907 24.8281ZM65.9282 24.8516C65.8224 24.8257 65.7123 24.8225 65.6052 24.8422C65.4981 24.8619 65.3963 24.9041 65.3067 24.9659L62.1576 27.065C62.1062 27.0993 62.0641 27.1457 62.035 27.2002C62.0059 27.2546 61.9907 27.3154 61.9907 27.3772V32.7791C61.9907 32.8408 62.0059 32.9016 62.035 32.9561C62.0641 33.0105 62.1062 33.057 62.1576 33.0912L65.3245 35.2025C65.443 35.2816 65.5816 35.3252 65.7241 35.3284C65.8665 35.3315 66.0069 35.2941 66.1288 35.2203C66.2416 35.1486 66.3342 35.0491 66.3975 34.9315C66.4609 34.8138 66.493 34.6818 66.4907 34.5481V25.5781C66.4908 25.4118 66.4356 25.2501 66.3338 25.1186C66.2319 24.9871 66.0893 24.8931 65.9282 24.8516Z" fill="#A1A1AA"/>
</g>
<defs>
<clipPath id="clip0_408_6104">
<rect width="24" height="24" fill="white" transform="translate(42.4907 18.0781)"/>
</clipPath>
</defs>
</svg>
