<svg width="107" height="124" viewBox="0 0 107 124" fill="none" xmlns="http://www.w3.org/2000/svg">
<rect x="0.844727" y="0.898438" width="105.223" height="123.088" rx="10" fill="#F2F3F7"/>
<rect x="11.9023" y="10.2266" width="83.1069" height="92.7969" rx="4.5" fill="white" stroke="#6B91F5"/>
<path d="M20.2627 62.1758H25.0825" stroke="#ABC0FA" stroke-linecap="round"/>
<path d="M29.0693 62.1758H56.9937" stroke="#ABC0FA" stroke-linecap="round"/>
<path d="M20.2627 67.6992L72.7368 67.8603" stroke="#ABC0FA" stroke-linecap="round"/>
<path d="M19.749 52.0547H47.3642" stroke="#2B64EE" stroke-width="1.5" stroke-linecap="round"/>
<path d="M16.1426 18.9766C16.1426 16.4913 18.1573 14.4766 20.6426 14.4766H86.2695C88.7548 14.4766 90.7695 16.4913 90.7695 18.9766V42.8926C90.7695 43.1687 90.5457 43.3926 90.2695 43.3926H16.6426C16.3664 43.3926 16.1426 43.1687 16.1426 42.8926V18.9766Z" fill="#F4F4F5" stroke="#F4F4F5"/>
<g clip-path="url(#clip0_390_6377)">
<path d="M61.2861 23.1855V33.6855C61.2861 34.0834 61.1281 34.4649 60.8468 34.7462C60.5655 35.0275 60.184 35.1855 59.7861 35.1855H46.2861C45.8883 35.1855 45.5068 35.0275 45.2255 34.7462C44.9442 34.4649 44.7861 34.0834 44.7861 33.6855V23.1855C44.7861 22.7877 44.9442 22.4062 45.2255 22.1249C45.5068 21.8436 45.8883 21.6855 46.2861 21.6855H59.7861C60.184 21.6855 60.5655 21.8436 60.8468 22.1249C61.1281 22.4062 61.2861 22.7877 61.2861 23.1855ZM66.7236 23.209C66.6178 23.1831 66.5077 23.1799 66.4006 23.1996C66.2935 23.2193 66.1917 23.2615 66.1021 23.3234L62.953 25.4224C62.9016 25.4567 62.8595 25.5031 62.8304 25.5576C62.8013 25.612 62.7861 25.6729 62.7861 25.7346V31.1365C62.7861 31.1982 62.8013 31.259 62.8304 31.3135C62.8595 31.368 62.9016 31.4144 62.953 31.4487L66.1199 33.5599C66.2384 33.639 66.377 33.6827 66.5195 33.6858C66.6619 33.689 66.8023 33.6515 66.9243 33.5777C67.0371 33.506 67.1296 33.4066 67.1929 33.2889C67.2563 33.1712 67.2884 33.0392 67.2861 32.9055V23.9355C67.2862 23.7692 67.231 23.6076 67.1292 23.476C67.0273 23.3445 66.8847 23.2506 66.7236 23.209Z" fill="#A1A1AA"/>
</g>
<g filter="url(#filter0_d_390_6377)">
<line x1="12.4351" y1="86.8344" x2="94.5241" y2="86.8344" stroke="#6A90F2" stroke-width="0.3"/>
</g>
<g filter="url(#filter1_i_390_6377)">
<path d="M12.354 86.8848H94.5596V98.5059C94.5596 100.715 92.7687 102.506 90.5596 102.506H16.354C14.1449 102.506 12.354 100.715 12.354 98.5059V86.8848Z" fill="white"/>
</g>
<path d="M77.0417 100.393C77.0392 99.5946 77.3541 98.828 77.9169 98.2617C78.4798 97.6954 79.2446 97.3759 80.043 97.3735C80.8414 97.3711 81.6081 97.6859 82.1744 98.2488C82.7407 98.8116 83.0602 99.5764 83.0626 100.375C83.063 100.508 83.0105 100.636 82.9167 100.73C82.8229 100.824 82.6954 100.878 82.5624 100.878C82.4293 100.878 82.3015 100.826 82.2071 100.732C82.1128 100.638 82.0595 100.511 82.0591 100.378C82.0575 99.8456 81.8445 99.3357 81.467 98.9605C81.0895 98.5853 80.5783 98.3754 80.046 98.377C79.5138 98.3786 79.0039 98.5916 78.6287 98.9691C78.2534 99.3466 78.0435 99.8577 78.0451 100.39C78.0455 100.523 77.9931 100.651 77.8993 100.745C77.8054 100.84 77.678 100.893 77.5449 100.893C77.4118 100.894 77.2841 100.841 77.1897 100.747C77.0953 100.654 77.0421 100.526 77.0417 100.393ZM86.0354 103.878C85.4955 103.905 85.0817 104.371 85.0833 104.911L85.0847 105.368C85.0869 105.497 85.0399 105.623 84.9533 105.719C84.8666 105.815 84.7468 105.875 84.6178 105.887C84.5492 105.892 84.4803 105.882 84.4155 105.859C84.3506 105.836 84.2912 105.8 84.2409 105.753C84.1906 105.706 84.1505 105.65 84.123 105.587C84.0955 105.524 84.0813 105.456 84.0813 105.387L84.0768 103.912C84.0752 103.372 83.6586 102.91 83.1185 102.885C82.9828 102.879 82.8473 102.9 82.7201 102.948C82.593 102.996 82.4768 103.069 82.3788 103.163C82.2807 103.257 82.2028 103.37 82.1497 103.495C82.0965 103.62 82.0694 103.754 82.0697 103.89L82.0727 104.877C82.0749 105.006 82.0279 105.132 81.9413 105.228C81.8547 105.324 81.7348 105.384 81.6058 105.395C81.5372 105.4 81.4683 105.391 81.4035 105.368C81.3386 105.345 81.2792 105.309 81.2289 105.262C81.1786 105.215 81.1385 105.158 81.111 105.095C81.0836 105.032 81.0694 104.964 81.0693 104.895L81.0557 100.409C81.0541 99.8691 80.6375 99.4069 80.0974 99.3816C79.9617 99.3754 79.8261 99.3969 79.699 99.4447C79.5718 99.4925 79.4557 99.5656 79.3577 99.6597C79.2596 99.7537 79.1817 99.8666 79.1285 99.9916C79.0754 100.117 79.0482 100.251 79.0486 100.387L79.0714 107.897C79.0733 108.018 79.0321 108.136 78.9553 108.23C78.8784 108.324 78.7708 108.388 78.6515 108.41L78.6439 108.41C78.5691 108.419 78.4934 108.405 78.4264 108.371C78.3593 108.336 78.3039 108.283 78.2671 108.217L76.943 105.936C76.6719 105.469 76.0793 105.276 75.5996 105.525C75.4784 105.587 75.3711 105.673 75.2843 105.778C75.1974 105.883 75.1328 106.004 75.0944 106.135C75.056 106.266 75.0446 106.403 75.0609 106.538C75.0773 106.673 75.1209 106.804 75.1893 106.921L77.145 110.682C77.1892 110.757 77.2521 110.819 77.3276 110.862C77.403 110.905 77.4884 110.928 77.5753 110.928L86.105 110.902C86.1982 110.902 86.2895 110.876 86.3687 110.827C86.4479 110.778 86.5118 110.707 86.5532 110.624C86.5757 110.579 87.1048 109.678 87.0999 108.073L87.0902 104.878C87.09 104.742 87.0621 104.608 87.0083 104.483C86.9545 104.358 86.8759 104.246 86.7773 104.152C86.6786 104.059 86.562 103.986 86.4345 103.939C86.307 103.892 86.1712 103.871 86.0354 103.878Z" fill="#71717A"/>
<g clip-path="url(#clip1_390_6377)">
<path d="M35.7948 96.6439H31.1281V91.9772H33.4614V91.3105H31.1281C30.7581 91.3105 30.4614 91.6105 30.4614 91.9772V96.6439C30.4614 97.0105 30.7581 97.3105 31.1281 97.3105H35.7948C36.1614 97.3105 36.4614 97.0105 36.4614 96.6439V94.3105H35.7948V96.6439ZM34.1281 91.3105V91.9772H35.3248L32.0481 95.2539L32.5181 95.7239L35.7948 92.4472V93.6439H36.4614V91.3105H34.1281Z" fill="#6A90F2"/>
</g>
<path d="M55.2861 94.3105H65.1899" stroke="#D4D4D8" stroke-linecap="round"/>
<path d="M46.499 94.3105H51.5586" stroke="#D4D4D8" stroke-linecap="round"/>
<defs>
<filter id="filter0_d_390_6377" x="12.4351" y="86.6836" width="90.0889" height="8.30078" filterUnits="userSpaceOnUse" color-interpolation-filters="sRGB">
<feFlood flood-opacity="0" result="BackgroundImageFix"/>
<feColorMatrix in="SourceAlpha" type="matrix" values="0 0 0 0 0 0 0 0 0 0 0 0 0 0 0 0 0 0 127 0" result="hardAlpha"/>
<feOffset dx="4" dy="4"/>
<feGaussianBlur stdDeviation="2"/>
<feComposite in2="hardAlpha" operator="out"/>
<feColorMatrix type="matrix" values="0 0 0 0 0 0 0 0 0 0 0 0 0 0 0 0 0 0 0.1 0"/>
<feBlend mode="normal" in2="BackgroundImageFix" result="effect1_dropShadow_390_6377"/>
<feBlend mode="normal" in="SourceGraphic" in2="effect1_dropShadow_390_6377" result="shape"/>
</filter>
<filter id="filter1_i_390_6377" x="12.354" y="86.8848" width="82.2056" height="15.6211" filterUnits="userSpaceOnUse" color-interpolation-filters="sRGB">
<feFlood flood-opacity="0" result="BackgroundImageFix"/>
<feBlend mode="normal" in="SourceGraphic" in2="BackgroundImageFix" result="shape"/>
<feColorMatrix in="SourceAlpha" type="matrix" values="0 0 0 0 0 0 0 0 0 0 0 0 0 0 0 0 0 0 127 0" result="hardAlpha"/>
<feOffset/>
<feGaussianBlur stdDeviation="1"/>
<feComposite in2="hardAlpha" operator="arithmetic" k2="-1" k3="1"/>
<feColorMatrix type="matrix" values="0 0 0 0 0.670588 0 0 0 0 0.752941 0 0 0 0 0.980392 0 0 0 1 0"/>
<feBlend mode="normal" in2="shape" result="effect1_innerShadow_390_6377"/>
</filter>
<clipPath id="clip0_390_6377">
<rect width="24" height="24" fill="white" transform="translate(43.2861 16.4355)"/>
</clipPath>
<clipPath id="clip1_390_6377">
<rect width="8" height="8" fill="white" transform="translate(29.4614 90.3105)"/>
</clipPath>
</defs>
</svg>
