<svg width="106" height="124" viewBox="0 0 106 124" fill="none" xmlns="http://www.w3.org/2000/svg">
<g id="Group 277">
<g id="Group 275">
<rect id="Rectangle 297" x="0.688477" y="0.263672" width="105.223" height="123.088" rx="10" fill="#F2F3F7"/>
<rect id="Rectangle 299" x="11.7461" y="9.5918" width="83.1069" height="92.7969" rx="4.5" fill="white" stroke="#6B91F5"/>
<path id="Line 124" d="M20.1064 61.541H24.9263" stroke="#ABC0FA" stroke-linecap="round"/>
<path id="Line 125" d="M28.9131 61.541H56.8374" stroke="#ABC0FA" stroke-linecap="round"/>
<path id="Line 126" d="M20.1064 67.0645L72.5806 67.2255" stroke="#ABC0FA" stroke-linecap="round"/>
<path id="Line 127" d="M19.5928 51.4199H47.2079" stroke="#2B64EE" stroke-width="1.5" stroke-linecap="round"/>
<path id="Rectangle 300" d="M20.4863 13.8418H86.1133C88.5986 13.8418 90.6133 15.8565 90.6133 18.3418V42.2578C90.6133 42.534 90.3894 42.7578 90.1133 42.7578H16.4863C16.2102 42.7578 15.9863 42.534 15.9863 42.2578V18.3418C15.9863 15.8565 18.001 13.8418 20.4863 13.8418Z" fill="#F4F4F5" stroke="#F4F4F5"/>
<g id="Frame" clip-path="url(#clip0_396_7682)">
<path id="Vector" d="M61.1299 22.5508V33.0508C61.1299 33.4486 60.9718 33.8301 60.6905 34.1114C60.4092 34.3927 60.0277 34.5508 59.6299 34.5508H46.1299C45.7321 34.5508 45.3505 34.3927 45.0692 34.1114C44.7879 33.8301 44.6299 33.4486 44.6299 33.0508V22.5508C44.6299 22.153 44.7879 21.7714 45.0692 21.4901C45.3505 21.2088 45.7321 21.0508 46.1299 21.0508H59.6299C60.0277 21.0508 60.4092 21.2088 60.6905 21.4901C60.9718 21.7714 61.1299 22.153 61.1299 22.5508ZM66.5674 22.5742C66.4616 22.5483 66.3515 22.5451 66.2444 22.5648C66.1372 22.5846 66.0355 22.6267 65.9458 22.6886L62.7968 24.7877C62.7454 24.8219 62.7033 24.8684 62.6742 24.9228C62.6451 24.9773 62.6298 25.0381 62.6299 25.0998V30.5017C62.6298 30.5635 62.6451 30.6243 62.6742 30.6787C62.7033 30.7332 62.7454 30.7796 62.7968 30.8139L65.9636 32.9252C66.0822 33.0042 66.2208 33.0479 66.3632 33.0511C66.5057 33.0542 66.6461 33.0167 66.768 32.943C66.8808 32.8713 66.9733 32.7718 67.0367 32.6541C67.1 32.5364 67.1321 32.4044 67.1299 32.2708V23.3008C67.13 23.1344 67.0748 22.9728 66.9729 22.8413C66.8711 22.7097 66.7284 22.6158 66.5674 22.5742Z" fill="#A1A1AA"/>
</g>
<g id="Line 128" filter="url(#filter0_d_396_7682)">
<path d="M12.2676 86H94.3567" stroke="#6A90F2"/>
</g>
<g id="Frame_2">
<path id="Vector_2" d="M76.8854 99.7583C76.883 98.9599 77.1978 98.1932 77.7607 97.6269C78.3236 97.0606 79.0883 96.7411 79.8868 96.7387C80.6852 96.7363 81.4519 97.0511 82.0182 97.614C82.5844 98.1769 82.9039 98.9416 82.9063 99.7401C82.9068 99.8731 82.8543 100.001 82.7605 100.095C82.6667 100.19 82.5392 100.243 82.4061 100.243C82.2731 100.244 82.1453 100.191 82.0509 100.097C81.9565 100.004 81.9033 99.8762 81.9029 99.7431C81.9012 99.2108 81.6882 98.701 81.3107 98.3257C80.9332 97.9505 80.4221 97.7406 79.8898 97.7422C79.3575 97.7438 78.8477 97.9568 78.4724 98.3343C78.0972 98.7119 77.8873 99.223 77.8889 99.7553C77.8893 99.8883 77.8368 100.016 77.743 100.11C77.6492 100.205 77.5217 100.258 77.3887 100.259C77.2556 100.259 77.1278 100.206 77.0334 100.113C76.9391 100.019 76.8858 99.8914 76.8854 99.7583ZM85.8792 103.243C85.3392 103.27 84.9255 103.737 84.9271 104.277L84.9285 104.733C84.9306 104.863 84.8836 104.988 84.797 105.084C84.7104 105.181 84.5905 105.241 84.4615 105.252C84.3929 105.257 84.3241 105.247 84.2592 105.224C84.1944 105.202 84.135 105.165 84.0847 105.119C84.0343 105.072 83.9942 105.015 83.9668 104.952C83.9393 104.889 83.9251 104.821 83.925 104.752L83.9206 103.277C83.9189 102.737 83.5023 102.275 82.9622 102.25C82.8265 102.244 82.691 102.265 82.5639 102.313C82.4367 102.361 82.3206 102.434 82.2225 102.528C82.1245 102.622 82.0465 102.735 81.9934 102.86C81.9403 102.985 81.9131 103.119 81.9135 103.255L81.9165 104.242C81.9186 104.371 81.8717 104.497 81.785 104.593C81.6984 104.689 81.5785 104.749 81.4496 104.761C81.3809 104.765 81.3121 104.756 81.2472 104.733C81.1824 104.71 81.123 104.674 81.0727 104.627C81.0224 104.58 80.9822 104.524 80.9548 104.46C80.9273 104.397 80.9131 104.329 80.913 104.261L80.8995 99.7744C80.8978 99.2344 80.4812 98.7721 79.9411 98.7468C79.8054 98.7407 79.6699 98.7622 79.5427 98.81C79.4156 98.8578 79.2995 98.9309 79.2014 99.0249C79.1034 99.1189 79.0254 99.2318 78.9723 99.3569C78.9192 99.4819 78.892 99.6164 78.8924 99.7522L78.9151 107.262C78.917 107.383 78.8759 107.502 78.799 107.595C78.7222 107.689 78.6145 107.753 78.4952 107.775L78.4877 107.775C78.4129 107.784 78.3372 107.77 78.2701 107.736C78.2031 107.702 78.1476 107.648 78.1108 107.583L76.7868 105.301C76.5157 104.834 75.923 104.641 75.4434 104.89C75.3222 104.952 75.2149 105.038 75.128 105.143C75.0411 105.248 74.9766 105.369 74.9382 105.5C74.8998 105.631 74.8884 105.768 74.9047 105.903C74.921 106.038 74.9647 106.169 75.033 106.287L76.9887 110.047C77.0329 110.122 77.0959 110.184 77.1713 110.227C77.2468 110.27 77.3321 110.293 77.4191 110.293L85.9487 110.268C86.042 110.267 86.1333 110.241 86.2124 110.192C86.2916 110.143 86.3555 110.073 86.397 109.989C86.4194 109.944 86.9485 109.043 86.9437 107.438L86.934 104.244C86.9337 104.108 86.9059 103.973 86.8521 103.848C86.7983 103.723 86.7197 103.611 86.621 103.517C86.5224 103.424 86.4057 103.351 86.2782 103.304C86.1507 103.257 86.0149 103.236 85.8792 103.243Z" fill="#71717A"/>
</g>
<g id="Icons" clip-path="url(#clip1_396_7682)">
<path id="Vector_3" d="M35.6385 96.0091H30.9718V91.3424H33.3052V90.6758H30.9718C30.6018 90.6758 30.3052 90.9758 30.3052 91.3424V96.0091C30.3052 96.3758 30.6018 96.6758 30.9718 96.6758H35.6385C36.0052 96.6758 36.3052 96.3758 36.3052 96.0091V93.6758H35.6385V96.0091ZM33.9718 90.6758V91.3424H35.1685L31.8918 94.6191L32.3618 95.0891L35.6385 91.8124V93.0091H36.3052V90.6758H33.9718Z" fill="#6A90F2"/>
</g>
<path id="Line 131" d="M55.1299 93.6758H65.0337" stroke="#D4D4D8" stroke-linecap="round"/>
<path id="Line 133" d="M46.3428 93.6758H51.4023" stroke="#D4D4D8" stroke-linecap="round"/>
</g>
</g>
<defs>
<filter id="filter0_d_396_7682" x="12.2676" y="85.5" width="90.0889" height="9" filterUnits="userSpaceOnUse" color-interpolation-filters="sRGB">
<feFlood flood-opacity="0" result="BackgroundImageFix"/>
<feColorMatrix in="SourceAlpha" type="matrix" values="0 0 0 0 0 0 0 0 0 0 0 0 0 0 0 0 0 0 127 0" result="hardAlpha"/>
<feOffset dx="4" dy="4"/>
<feGaussianBlur stdDeviation="2"/>
<feComposite in2="hardAlpha" operator="out"/>
<feColorMatrix type="matrix" values="0 0 0 0 0 0 0 0 0 0 0 0 0 0 0 0 0 0 0.1 0"/>
<feBlend mode="normal" in2="BackgroundImageFix" result="effect1_dropShadow_396_7682"/>
<feBlend mode="normal" in="SourceGraphic" in2="effect1_dropShadow_396_7682" result="shape"/>
</filter>
<clipPath id="clip0_396_7682">
<rect width="24" height="24" fill="white" transform="translate(43.1299 15.8008)"/>
</clipPath>
<clipPath id="clip1_396_7682">
<rect width="8" height="8" fill="white" transform="translate(29.3052 89.6758)"/>
</clipPath>
</defs>
</svg>
