<svg width="107" height="124" viewBox="0 0 107 124" fill="none" xmlns="http://www.w3.org/2000/svg">
<rect x="0.902344" y="0.363281" width="105.223" height="123.637" rx="10" fill="#F2F3F7"/>
<rect x="12.2305" y="29.084" width="83.1069" height="72.8801" rx="4.5" fill="white" stroke="#6B91F5"/>
<path d="M47.1729 91.1914H51.9927" stroke="#ABC0FA" stroke-linecap="round"/>
<path d="M19.9355 48.1406H47.8599" stroke="#ABC0FA" stroke-linecap="round"/>
<path d="M19.9355 56.5195L72.4096 56.7088" stroke="#ABC0FA" stroke-linecap="round"/>
<path d="M19.5576 35.1309H47.1728" stroke="#2B64EE" stroke-width="1.5" stroke-linecap="round"/>
<path d="M18.0229 79.0117H36.6455" stroke="#E4E4E7" stroke-width="1.5" stroke-linecap="round"/>
<path d="M86.9946 76.0625L91.9297 76.0625" stroke="#E4E4E7" stroke-width="1.5" stroke-linecap="round"/>
<path d="M56.5225 91.1914H66.9937" stroke="#ABC0FA" stroke-linecap="round"/>
<g filter="url(#filter0_d_390_6412)">
<line x1="12.7422" y1="83.0512" x2="94.8313" y2="83.0512" stroke="#6A90F2" stroke-width="0.3"/>
</g>
<path d="M28.3652 86.418C27.5617 86.418 26.7763 86.6979 26.1082 87.2224C25.4402 87.7469 24.9195 88.4925 24.612 89.3647C24.3045 90.2369 24.224 91.1967 24.3808 92.1226C24.5375 93.0486 24.9245 93.8991 25.4926 94.5667C26.0608 95.2343 26.7846 95.6889 27.5727 95.8731C28.3607 96.0573 29.1776 95.9627 29.9199 95.6015C30.6622 95.2402 31.2967 94.6283 31.7431 93.8434C32.1895 93.0584 32.4277 92.1355 32.4277 91.1914C32.4266 89.9258 31.9982 88.7124 31.2366 87.8175C30.475 86.9226 29.4423 86.4193 28.3652 86.418ZM31.4266 89.3555H30.0426C29.8831 88.6181 29.6153 87.9191 29.2512 87.29C29.7163 87.4369 30.1502 87.6966 30.5249 88.0523C30.8995 88.408 31.2067 88.8519 31.4266 89.3555ZM28.3652 87.1574C28.834 87.7541 29.1855 88.5137 29.3953 89.3555H27.3352C27.5449 88.5137 27.8965 87.755 28.3652 87.1574ZM27.1152 91.1914C27.1153 90.8223 27.1414 90.4538 27.1934 90.0898H29.5371C29.6408 90.8192 29.6408 91.5636 29.5371 92.2929H27.1934C27.1414 91.9289 27.1153 91.5605 27.1152 91.1914ZM27.3352 93.0273H29.3953C29.1855 93.8691 28.834 94.6278 28.3652 95.2254C27.8965 94.6278 27.5449 93.8691 27.3352 93.0273ZM29.2512 95.0927C29.6153 94.4636 29.8831 93.7647 30.0426 93.0273H31.4266C31.2067 93.5309 30.8995 93.9748 30.5249 94.3305C30.1502 94.6862 29.7163 94.9459 29.2512 95.0927ZM30.1703 92.2929C30.2635 91.5627 30.2635 90.8201 30.1703 90.0898H31.6727C31.8461 90.8101 31.8461 91.5727 31.6727 92.2929H30.1703Z" fill="#ABC0FA"/>
<g filter="url(#filter1_i_390_6412)">
<path d="M12.6611 83.084H94.8667V97.2161C94.8667 99.4252 93.0758 101.216 90.8667 101.216H16.6611C14.452 101.216 12.6611 99.4252 12.6611 97.2161V83.084Z" fill="white"/>
</g>
<path d="M73.3263 99.6024C73.3239 98.6643 73.6388 97.7634 74.2016 97.098C74.7645 96.4327 75.5292 96.0572 76.3277 96.0544C77.1261 96.0516 77.8928 96.4215 78.4591 97.0829C79.0254 97.7442 79.3448 98.6428 79.3473 99.581C79.3477 99.7373 79.2952 99.8875 79.2014 99.9984C79.1076 100.109 78.9801 100.172 78.847 100.172C78.714 100.173 78.5862 100.111 78.4918 100.001C78.3974 99.8907 78.3442 99.7409 78.3438 99.5846C78.3422 98.9591 78.1292 98.3601 77.7516 97.9192C77.3741 97.4782 76.863 97.2316 76.3307 97.2335C75.7984 97.2354 75.2886 97.4857 74.9133 97.9293C74.5381 98.3728 74.3282 98.9734 74.3298 99.5988C74.3302 99.7552 74.2777 99.9053 74.1839 100.016C74.0901 100.127 73.9627 100.19 73.8296 100.19C73.6965 100.191 73.5687 100.129 73.4744 100.019C73.38 99.9085 73.3267 99.7588 73.3263 99.6024ZM82.3201 103.697C81.7802 103.729 81.3664 104.277 81.368 104.911L81.3694 105.448C81.3715 105.6 81.3246 105.748 81.2379 105.861C81.1513 105.974 81.0314 106.044 80.9025 106.058C80.8338 106.063 80.765 106.052 80.7001 106.025C80.6353 105.998 80.5759 105.956 80.5256 105.901C80.4753 105.846 80.4351 105.779 80.4077 105.705C80.3802 105.631 80.366 105.551 80.366 105.47L80.3615 103.737C80.3598 103.103 79.9433 102.56 79.4032 102.53C79.2675 102.523 79.1319 102.548 79.0048 102.604C78.8776 102.66 78.7615 102.746 78.6635 102.857C78.5654 102.967 78.4874 103.1 78.4343 103.247C78.3812 103.394 78.354 103.552 78.3544 103.711L78.3574 104.871C78.3595 105.023 78.3126 105.17 78.2259 105.283C78.1393 105.396 78.0195 105.467 77.8905 105.48C77.8219 105.486 77.753 105.475 77.6882 105.448C77.6233 105.421 77.5639 105.378 77.5136 105.323C77.4633 105.268 77.4231 105.202 77.3957 105.127C77.3682 105.053 77.354 104.973 77.354 104.893L77.3404 99.6213C77.3387 98.9868 76.9221 98.4437 76.382 98.4139C76.2463 98.4067 76.1108 98.432 75.9837 98.4881C75.8565 98.5443 75.7404 98.6302 75.6423 98.7407C75.5443 98.8511 75.4663 98.9838 75.4132 99.1307C75.3601 99.2776 75.3329 99.4357 75.3333 99.5953L75.3561 108.419C75.3579 108.562 75.3168 108.701 75.24 108.811C75.1631 108.921 75.0555 108.996 74.9361 109.022L74.9286 109.022C74.8538 109.032 74.7781 109.016 74.711 108.976C74.644 108.936 74.5885 108.873 74.5517 108.796L73.2277 106.115C72.9566 105.566 72.364 105.339 71.8843 105.632C71.7631 105.705 71.6558 105.806 71.5689 105.93C71.4821 106.053 71.4175 106.196 71.3791 106.349C71.3407 106.503 71.3293 106.664 71.3456 106.823C71.3619 106.981 71.4056 107.135 71.4739 107.273L73.4296 111.692C73.4739 111.78 73.5368 111.852 73.6122 111.903C73.6877 111.954 73.7731 111.981 73.86 111.981L82.3897 111.951C82.4829 111.951 82.5742 111.92 82.6534 111.862C82.7325 111.804 82.7964 111.722 82.8379 111.623C82.8603 111.57 83.3895 110.512 83.3846 108.626L83.3749 104.873C83.3747 104.713 83.3468 104.555 83.293 104.408C83.2392 104.262 83.1606 104.129 83.0619 104.019C82.9633 103.909 82.8467 103.824 82.7191 103.769C82.5916 103.713 82.4559 103.689 82.3201 103.697Z" fill="#71717A"/>
<path d="M54.2535 93.4758C53.8435 93.4758 53.4468 93.3974 53.0768 93.2564C52.9602 93.2094 52.8302 93.2447 52.7402 93.3504L52.2168 94.122C51.2735 93.5933 50.3902 92.5945 49.9202 91.4469L50.5702 90.7968C50.6602 90.6871 50.6868 90.5344 50.6502 90.3973C50.5268 89.9625 50.4635 89.4964 50.4635 89.0147C50.4635 88.8032 50.3135 88.627 50.1335 88.627H48.9802C48.8002 88.627 48.5835 88.721 48.5835 89.0147C48.5835 92.6533 51.1602 95.6769 54.2535 95.6769C54.4902 95.6769 54.5835 95.4302 54.5835 95.2148V93.8635C54.5835 93.652 54.4335 93.4758 54.2535 93.4758Z" fill="#6A90F2"/>
<defs>
<filter id="filter0_d_390_6412" x="12.7422" y="82.9004" width="90.0889" height="8.30078" filterUnits="userSpaceOnUse" color-interpolation-filters="sRGB">
<feFlood flood-opacity="0" result="BackgroundImageFix"/>
<feColorMatrix in="SourceAlpha" type="matrix" values="0 0 0 0 0 0 0 0 0 0 0 0 0 0 0 0 0 0 127 0" result="hardAlpha"/>
<feOffset dx="4" dy="4"/>
<feGaussianBlur stdDeviation="2"/>
<feComposite in2="hardAlpha" operator="out"/>
<feColorMatrix type="matrix" values="0 0 0 0 0 0 0 0 0 0 0 0 0 0 0 0 0 0 0.1 0"/>
<feBlend mode="normal" in2="BackgroundImageFix" result="effect1_dropShadow_390_6412"/>
<feBlend mode="normal" in="SourceGraphic" in2="effect1_dropShadow_390_6412" result="shape"/>
</filter>
<filter id="filter1_i_390_6412" x="12.6611" y="83.084" width="82.2056" height="18.1328" filterUnits="userSpaceOnUse" color-interpolation-filters="sRGB">
<feFlood flood-opacity="0" result="BackgroundImageFix"/>
<feBlend mode="normal" in="SourceGraphic" in2="BackgroundImageFix" result="shape"/>
<feColorMatrix in="SourceAlpha" type="matrix" values="0 0 0 0 0 0 0 0 0 0 0 0 0 0 0 0 0 0 127 0" result="hardAlpha"/>
<feOffset/>
<feGaussianBlur stdDeviation="1"/>
<feComposite in2="hardAlpha" operator="arithmetic" k2="-1" k3="1"/>
<feColorMatrix type="matrix" values="0 0 0 0 0.670588 0 0 0 0 0.752941 0 0 0 0 0.980392 0 0 0 1 0"/>
<feBlend mode="normal" in2="shape" result="effect1_innerShadow_390_6412"/>
</filter>
</defs>
</svg>
