<svg width="106" height="124" viewBox="0 0 106 124" fill="none" xmlns="http://www.w3.org/2000/svg">
<rect x="0.0126953" y="0.898438" width="105.223" height="123.088" rx="10" fill="#F2F3F7"/>
<rect x="11.0703" y="10.2266" width="83.1069" height="92.7969" rx="4.5" fill="white" stroke="#6B91F5"/>
<path d="M19.4307 62.1758H24.2505" stroke="#ABC0FA" stroke-linecap="round"/>
<path d="M28.2373 62.1758H56.1616" stroke="#ABC0FA" stroke-linecap="round"/>
<path d="M19.4307 67.6992L71.9048 67.8603" stroke="#ABC0FA" stroke-linecap="round"/>
<path d="M18.917 52.0547H46.5321" stroke="#2B64EE" stroke-width="1.5" stroke-linecap="round"/>
<path d="M15.3105 18.9766C15.3105 16.4913 17.3253 14.4766 19.8105 14.4766H85.4375C87.9228 14.4766 89.9375 16.4913 89.9375 18.9766V42.8926C89.9375 43.1687 89.7136 43.3926 89.4375 43.3926H15.8105C15.5344 43.3926 15.3105 43.1687 15.3105 42.8926V18.9766Z" fill="#F4F4F5" stroke="#F4F4F5"/>
<g filter="url(#filter0_d_389_6323)">
<line x1="11.603" y1="86.8344" x2="93.6921" y2="86.8344" stroke="#6A90F2" stroke-width="0.3"/>
</g>
<g filter="url(#filter1_i_389_6323)">
<path d="M11.522 86.8848H93.7275V98.5059C93.7275 100.715 91.9367 102.506 89.7275 102.506H15.522C13.3128 102.506 11.522 100.715 11.522 98.5059V86.8848Z" fill="white"/>
</g>
<path d="M76.2096 100.393C76.2072 99.5946 76.5221 98.828 77.0849 98.2617C77.6478 97.6954 78.4125 97.3759 79.211 97.3735C80.0094 97.3711 80.7761 97.6859 81.3424 98.2488C81.9087 98.8116 82.2281 99.5764 82.2306 100.375C82.231 100.508 82.1785 100.636 82.0847 100.73C81.9909 100.824 81.8634 100.878 81.7303 100.878C81.5973 100.878 81.4695 100.826 81.3751 100.732C81.2807 100.638 81.2275 100.511 81.2271 100.378C81.2255 99.8456 81.0125 99.3357 80.6349 98.9605C80.2574 98.5853 79.7463 98.3754 79.214 98.377C78.6817 98.3786 78.1719 98.5916 77.7966 98.9691C77.4214 99.3466 77.2115 99.8577 77.2131 100.39C77.2135 100.523 77.161 100.651 77.0672 100.745C76.9734 100.84 76.846 100.893 76.7129 100.893C76.5798 100.894 76.452 100.841 76.3577 100.747C76.2633 100.654 76.21 100.526 76.2096 100.393ZM85.2034 103.878C84.6635 103.905 84.2497 104.371 84.2513 104.911L84.2527 105.368C84.2548 105.497 84.2079 105.623 84.1212 105.719C84.0346 105.815 83.9147 105.875 83.7858 105.887C83.7171 105.892 83.6483 105.882 83.5834 105.859C83.5186 105.836 83.4592 105.8 83.4089 105.753C83.3586 105.706 83.3184 105.65 83.291 105.587C83.2635 105.524 83.2493 105.456 83.2493 105.387L83.2448 103.912C83.2432 103.372 82.8266 102.91 82.2865 102.885C82.1508 102.879 82.0152 102.9 81.8881 102.948C81.7609 102.996 81.6448 103.069 81.5468 103.163C81.4487 103.257 81.3707 103.37 81.3176 103.495C81.2645 103.62 81.2373 103.754 81.2377 103.89L81.2407 104.877C81.2428 105.006 81.1959 105.132 81.1092 105.228C81.0226 105.324 80.9028 105.384 80.7738 105.395C80.7052 105.4 80.6363 105.391 80.5715 105.368C80.5066 105.345 80.4472 105.309 80.3969 105.262C80.3466 105.215 80.3064 105.158 80.279 105.095C80.2515 105.032 80.2373 104.964 80.2373 104.895L80.2237 100.409C80.222 99.8691 79.8054 99.4069 79.2654 99.3816C79.1296 99.3754 78.9941 99.3969 78.867 99.4447C78.7398 99.4925 78.6237 99.5656 78.5256 99.6597C78.4276 99.7537 78.3496 99.8666 78.2965 99.9916C78.2434 100.117 78.2162 100.251 78.2166 100.387L78.2394 107.897C78.2412 108.018 78.2001 108.136 78.1233 108.23C78.0464 108.324 77.9388 108.388 77.8194 108.41L77.8119 108.41C77.7371 108.419 77.6614 108.405 77.5943 108.371C77.5273 108.336 77.4718 108.283 77.435 108.217L76.111 105.936C75.8399 105.469 75.2473 105.276 74.7676 105.525C74.6464 105.587 74.5391 105.673 74.4522 105.778C74.3654 105.883 74.3008 106.004 74.2624 106.135C74.224 106.266 74.2126 106.403 74.2289 106.538C74.2452 106.673 74.2889 106.804 74.3572 106.921L76.3129 110.682C76.3572 110.757 76.4201 110.819 76.4955 110.862C76.571 110.905 76.6564 110.928 76.7433 110.928L85.273 110.902C85.3662 110.902 85.4575 110.876 85.5367 110.827C85.6158 110.778 85.6797 110.707 85.7212 110.624C85.7436 110.579 86.2728 109.678 86.2679 108.073L86.2582 104.878C86.258 104.742 86.2301 104.608 86.1763 104.483C86.1225 104.358 86.0439 104.246 85.9452 104.152C85.8466 104.059 85.73 103.986 85.6024 103.939C85.4749 103.892 85.3392 103.871 85.2034 103.878Z" fill="#71717A"/>
<g clip-path="url(#clip0_389_6323)">
<path d="M34.9627 96.6439H30.2961V91.9772H32.6294V91.3105H30.2961C29.9261 91.3105 29.6294 91.6105 29.6294 91.9772V96.6439C29.6294 97.0105 29.9261 97.3105 30.2961 97.3105H34.9627C35.3294 97.3105 35.6294 97.0105 35.6294 96.6439V94.3105H34.9627V96.6439ZM33.2961 91.3105V91.9772H34.4927L31.2161 95.2539L31.6861 95.7239L34.9627 92.4472V93.6439H35.6294V91.3105H33.2961Z" fill="#6A90F2"/>
</g>
<path d="M54.4541 94.3105H64.3579" stroke="#D4D4D8" stroke-linecap="round"/>
<path d="M45.667 94.3105H50.7266" stroke="#D4D4D8" stroke-linecap="round"/>
<path d="M43.9663 28.1855H58.9663C59.1652 28.1855 59.356 28.1065 59.4966 27.9659C59.6373 27.8252 59.7163 27.6345 59.7163 27.4355V25.1855C59.7164 25.087 59.6971 24.9895 59.6594 24.8984C59.6218 24.8074 59.5666 24.7246 59.4969 24.6549L54.2469 19.4049C54.1772 19.3353 54.0945 19.2801 54.0034 19.2424C53.9124 19.2048 53.8148 19.1855 53.7163 19.1855H44.7163C44.3185 19.1855 43.937 19.3436 43.6556 19.6249C43.3743 19.9062 43.2163 20.2877 43.2163 20.6855V27.4355C43.2163 27.6345 43.2953 27.8252 43.436 27.9659C43.5766 28.1065 43.7674 28.1855 43.9663 28.1855ZM53.7163 21.0605L57.8413 25.1855H53.7163V21.0605ZM60.4663 31.1855C60.4663 31.3845 60.3873 31.5752 60.2466 31.7159C60.106 31.8565 59.9152 31.9355 59.7163 31.9355H57.4663V33.4355H58.9663C59.1652 33.4355 59.356 33.5146 59.4966 33.6552C59.6373 33.7959 59.7163 33.9866 59.7163 34.1855C59.7163 34.3845 59.6373 34.5752 59.4966 34.7159C59.356 34.8565 59.1652 34.9355 58.9663 34.9355H57.4663V36.4355C57.4663 36.6345 57.3873 36.8252 57.2466 36.9659C57.106 37.1065 56.9152 37.1855 56.7163 37.1855C56.5174 37.1855 56.3266 37.1065 56.186 36.9659C56.0453 36.8252 55.9663 36.6345 55.9663 36.4355V31.1855C55.9663 30.9866 56.0453 30.7959 56.186 30.6552C56.3266 30.5146 56.5174 30.4355 56.7163 30.4355H59.7163C59.9152 30.4355 60.106 30.5146 60.2466 30.6552C60.3873 30.7959 60.4663 30.9866 60.4663 31.1855ZM45.4663 30.4355H43.9663C43.7674 30.4355 43.5766 30.5146 43.436 30.6552C43.2953 30.7959 43.2163 30.9866 43.2163 31.1855V36.4355C43.2163 36.6345 43.2953 36.8252 43.436 36.9659C43.5766 37.1065 43.7674 37.1855 43.9663 37.1855C44.1652 37.1855 44.356 37.1065 44.4966 36.9659C44.6373 36.8252 44.7163 36.6345 44.7163 36.4355V35.6855H45.4663C46.1625 35.6855 46.8302 35.409 47.3225 34.9167C47.8147 34.4244 48.0913 33.7567 48.0913 33.0605C48.0913 32.3644 47.8147 31.6967 47.3225 31.2044C46.8302 30.7121 46.1625 30.4355 45.4663 30.4355ZM45.4663 34.1855H44.7163V31.9355H45.4663C45.7647 31.9355 46.0508 32.0541 46.2618 32.2651C46.4728 32.476 46.5913 32.7622 46.5913 33.0605C46.5913 33.3589 46.4728 33.6451 46.2618 33.856C46.0508 34.067 45.7647 34.1855 45.4663 34.1855ZM51.4663 30.4355H49.9663C49.7674 30.4355 49.5766 30.5146 49.436 30.6552C49.2953 30.7959 49.2163 30.9866 49.2163 31.1855V36.4355C49.2163 36.6345 49.2953 36.8252 49.436 36.9659C49.5766 37.1065 49.7674 37.1855 49.9663 37.1855H51.4663C52.3614 37.1855 53.2199 36.83 53.8528 36.197C54.4857 35.5641 54.8413 34.7057 54.8413 33.8105C54.8413 32.9154 54.4857 32.057 53.8528 31.4241C53.2199 30.7911 52.3614 30.4355 51.4663 30.4355ZM51.4663 35.6855H50.7163V31.9355H51.4663C51.9636 31.9355 52.4405 32.1331 52.7921 32.4847C53.1438 32.8364 53.3413 33.3133 53.3413 33.8105C53.3413 34.3078 53.1438 34.7847 52.7921 35.1364C52.4405 35.488 51.9636 35.6855 51.4663 35.6855Z" fill="#A1A1AA"/>
<defs>
<filter id="filter0_d_389_6323" x="11.603" y="86.6836" width="90.0889" height="8.30078" filterUnits="userSpaceOnUse" color-interpolation-filters="sRGB">
<feFlood flood-opacity="0" result="BackgroundImageFix"/>
<feColorMatrix in="SourceAlpha" type="matrix" values="0 0 0 0 0 0 0 0 0 0 0 0 0 0 0 0 0 0 127 0" result="hardAlpha"/>
<feOffset dx="4" dy="4"/>
<feGaussianBlur stdDeviation="2"/>
<feComposite in2="hardAlpha" operator="out"/>
<feColorMatrix type="matrix" values="0 0 0 0 0 0 0 0 0 0 0 0 0 0 0 0 0 0 0.1 0"/>
<feBlend mode="normal" in2="BackgroundImageFix" result="effect1_dropShadow_389_6323"/>
<feBlend mode="normal" in="SourceGraphic" in2="effect1_dropShadow_389_6323" result="shape"/>
</filter>
<filter id="filter1_i_389_6323" x="11.522" y="86.8848" width="82.2056" height="15.6211" filterUnits="userSpaceOnUse" color-interpolation-filters="sRGB">
<feFlood flood-opacity="0" result="BackgroundImageFix"/>
<feBlend mode="normal" in="SourceGraphic" in2="BackgroundImageFix" result="shape"/>
<feColorMatrix in="SourceAlpha" type="matrix" values="0 0 0 0 0 0 0 0 0 0 0 0 0 0 0 0 0 0 127 0" result="hardAlpha"/>
<feOffset/>
<feGaussianBlur stdDeviation="1"/>
<feComposite in2="hardAlpha" operator="arithmetic" k2="-1" k3="1"/>
<feColorMatrix type="matrix" values="0 0 0 0 0.670588 0 0 0 0 0.752941 0 0 0 0 0.980392 0 0 0 1 0"/>
<feBlend mode="normal" in2="shape" result="effect1_innerShadow_389_6323"/>
</filter>
<clipPath id="clip0_389_6323">
<rect width="8" height="8" fill="white" transform="translate(28.6294 90.3105)"/>
</clipPath>
</defs>
</svg>
