<svg width="182" height="94" viewBox="0 0 182 94" fill="none" xmlns="http://www.w3.org/2000/svg">
<rect width="182" height="60" rx="5" fill="#F8FAFC"/>
<rect x="20.5" y="15.5" width="29" height="29" rx="1.5" fill="white"/>
<path d="M25 22H45" stroke="#94A3B8" stroke-width="1.5"/>
<path d="M25 26H38" stroke="#94A3B8" stroke-width="1.5"/>
<rect x="20.5" y="15.5" width="29" height="29" rx="1.5" stroke="#94A3B8"/>
<rect x="131.5" y="13.5" width="29" height="29" rx="1.5" fill="white"/>
<path d="M136 20L156 20" stroke="#94A3B8" stroke-width="2"/>
<path d="M136 24L148 24" stroke="#94A3B8" stroke-width="2"/>
<rect x="134" y="36" width="12" height="5" rx="0.5" fill="#94A3B8"/>
<rect x="147" y="36" width="12" height="5" rx="0.5" fill="#94A3B8"/>
<rect x="131.5" y="13.5" width="29" height="29" rx="1.5" stroke="#94A3B8"/>
<g filter="url(#filter0_d_683_6895)">
<rect x="65" y="4" width="49" height="49" rx="5" fill="white"/>
</g>
<rect x="72.5" y="11.5" width="35" height="35" rx="3" fill="#F1F5F9"/>
<rect x="73" y="11" width="34" height="13" fill="#334155"/>
<path d="M75 28H100" stroke="#334155" stroke-width="2"/>
<path d="M75 33H89" stroke="#334155" stroke-width="2"/>
<rect x="91" y="39" width="14" height="6" rx="0.5" fill="#334155"/>
<rect x="75" y="39" width="14" height="6" rx="0.5" fill="#334155"/>
<rect x="72.5" y="11.5" width="35" height="35" rx="3" stroke="#334155"/>
<path opacity="0.3" d="M142.032 83.2411L139.559 85.7137C139.266 86.0065 138.869 86.171 138.455 86.171C138.041 86.171 137.643 86.0065 137.35 85.7137L127.645 76.0145C127.465 75.8341 127.244 75.7005 127.001 75.6252C126.757 75.55 126.499 75.5354 126.249 75.5828C125.998 75.6302 125.763 75.738 125.564 75.897C125.365 76.056 125.208 76.2613 125.106 76.495L121.306 85.2391C121.176 85.5239 120.964 85.7633 120.697 85.9263C120.43 86.0894 120.121 86.1686 119.808 86.1536C119.496 86.1387 119.195 86.0303 118.945 85.8426C118.695 85.6548 118.507 85.3963 118.405 85.1004L108.194 53.8348C108.111 53.5633 108.103 53.2742 108.171 52.9985C108.239 52.7228 108.382 52.471 108.583 52.2701C108.784 52.0693 109.035 51.927 109.311 51.8585C109.587 51.7901 109.876 51.7981 110.147 51.8817L141.417 62.0848C141.713 62.1864 141.971 62.3745 142.159 62.6246C142.347 62.8748 142.455 63.1755 142.47 63.488C142.485 63.8004 142.406 64.1101 142.243 64.3771C142.08 64.644 141.84 64.8558 141.556 64.9852L132.811 68.7879C132.578 68.8897 132.373 69.0471 132.214 69.2463C132.055 69.4455 131.948 69.6805 131.9 69.9309C131.853 70.1812 131.868 70.4393 131.943 70.6826C132.019 70.926 132.152 71.1472 132.333 71.327L142.034 81.0282C142.179 81.1735 142.295 81.346 142.373 81.5359C142.452 81.7259 142.492 81.9295 142.492 82.135C142.492 82.3406 142.451 82.5441 142.372 82.7339C142.293 82.9237 142.178 83.096 142.032 83.2411Z" fill="#7C3AED"/>
<path d="M138.133 70.2365L146.877 66.4357C147.453 66.1803 147.938 65.7567 148.269 65.2205C148.6 64.6843 148.762 64.0606 148.732 63.4312C148.702 62.8018 148.483 62.1962 148.103 61.6936C147.722 61.1911 147.199 60.8153 146.602 60.6154L115.336 50.4064C114.789 50.2311 114.205 50.2099 113.647 50.3451C113.089 50.4802 112.579 50.7665 112.173 51.1726C111.767 51.5786 111.48 52.0886 111.345 52.6467C111.21 53.2047 111.231 53.7893 111.406 54.3361L121.615 85.6017C121.808 86.2049 122.181 86.7345 122.685 87.1187C123.188 87.5029 123.797 87.7233 124.43 87.7501H124.584C125.191 87.7521 125.785 87.5756 126.292 87.2425C126.799 86.9095 127.197 86.4346 127.436 85.8771L131.236 77.1329L140.938 86.8341C141.228 87.1244 141.572 87.3546 141.952 87.5117C142.331 87.6688 142.737 87.7497 143.148 87.7497C143.558 87.7497 143.964 87.6688 144.344 87.5117C144.723 87.3546 145.067 87.1244 145.358 86.8341L147.834 84.3576C148.124 84.0674 148.355 83.7228 148.512 83.3436C148.669 82.9645 148.75 82.558 148.75 82.1476C148.75 81.7371 148.669 81.3307 148.512 80.9515C148.355 80.5723 148.124 80.2278 147.834 79.9376L138.133 70.2365ZM143.147 84.6251L133.447 74.924C133.087 74.5633 132.644 74.2962 132.157 74.146C131.67 73.9958 131.154 73.967 130.653 74.0621C130.152 74.1573 129.682 74.3735 129.284 74.6919C128.886 75.0103 128.572 75.4212 128.369 75.8888L124.576 84.6095L114.375 53.3751L145.6 63.5724L136.881 67.3634C136.413 67.5662 136.002 67.8803 135.684 68.2784C135.366 68.6764 135.149 69.1463 135.054 69.6471C134.959 70.1478 134.988 70.6643 135.138 71.1513C135.288 71.6384 135.555 72.0813 135.916 72.4415L145.625 82.1466L143.147 84.6251ZM122.188 48.6876V47.1251C122.188 46.7107 122.352 46.3133 122.645 46.0203C122.938 45.7272 123.336 45.5626 123.75 45.5626C124.165 45.5626 124.562 45.7272 124.855 46.0203C125.148 46.3133 125.313 46.7107 125.313 47.1251V48.6876C125.313 49.102 125.148 49.4995 124.855 49.7925C124.562 50.0855 124.165 50.2501 123.75 50.2501C123.336 50.2501 122.938 50.0855 122.645 49.7925C122.352 49.4995 122.188 49.102 122.188 48.6876ZM106.563 62.7501C106.563 62.3357 106.727 61.9383 107.02 61.6453C107.313 61.3522 107.711 61.1876 108.125 61.1876H109.688C110.102 61.1876 110.499 61.3522 110.792 61.6453C111.086 61.9383 111.25 62.3357 111.25 62.7501C111.25 63.1645 111.086 63.562 110.792 63.855C110.499 64.148 110.102 64.3126 109.688 64.3126H108.125C107.711 64.3126 107.313 64.148 107.02 63.855C106.727 63.562 106.563 63.1645 106.563 62.7501ZM128.604 49.5509L130.166 46.4259C130.352 46.0553 130.677 45.7735 131.07 45.6426C131.463 45.5116 131.892 45.5422 132.263 45.7277C132.633 45.9131 132.915 46.2382 133.046 46.6314C133.177 47.0246 133.147 47.4537 132.961 47.8243L131.399 50.9493C131.307 51.1329 131.18 51.2965 131.025 51.4309C130.87 51.5653 130.69 51.6679 130.495 51.7327C130.3 51.7975 130.095 51.8234 129.89 51.8088C129.685 51.7942 129.485 51.7394 129.302 51.6476C129.118 51.5558 128.955 51.4287 128.82 51.2736C128.686 51.1186 128.583 50.9386 128.519 50.7439C128.454 50.5492 128.428 50.3436 128.442 50.1389C128.457 49.9342 128.512 49.7344 128.604 49.5509ZM112.649 68.3009C112.741 68.4845 112.795 68.6845 112.81 68.8893C112.825 69.0942 112.799 69.2999 112.734 69.4947C112.669 69.6895 112.566 69.8696 112.432 70.0247C112.297 70.1798 112.133 70.3068 111.949 70.3986L108.824 71.9611C108.454 72.1465 108.025 72.1771 107.631 72.0462C107.238 71.9152 106.913 71.6335 106.728 71.2628C106.542 70.8922 106.512 70.4631 106.643 70.0699C106.773 69.6767 107.055 69.3516 107.426 69.1661L110.551 67.6036C110.734 67.5116 110.934 67.4567 111.139 67.4419C111.344 67.4271 111.549 67.4529 111.744 67.5176C111.939 67.5824 112.119 67.6849 112.274 67.8193C112.43 67.9537 112.557 68.1173 112.649 68.3009Z" fill="#334155"/>
<defs>
<filter id="filter0_d_683_6895" x="61" y="1" width="57" height="57" filterUnits="userSpaceOnUse" color-interpolation-filters="sRGB">
<feFlood flood-opacity="0" result="BackgroundImageFix"/>
<feColorMatrix in="SourceAlpha" type="matrix" values="0 0 0 0 0 0 0 0 0 0 0 0 0 0 0 0 0 0 127 0" result="hardAlpha"/>
<feOffset dy="1"/>
<feGaussianBlur stdDeviation="2"/>
<feComposite in2="hardAlpha" operator="out"/>
<feColorMatrix type="matrix" values="0 0 0 0 0 0 0 0 0 0 0 0 0 0 0 0 0 0 0.25 0"/>
<feBlend mode="normal" in2="BackgroundImageFix" result="effect1_dropShadow_683_6895"/>
<feBlend mode="normal" in="SourceGraphic" in2="effect1_dropShadow_683_6895" result="shape"/>
</filter>
</defs>
</svg>
