<svg width="92" height="92" viewBox="0 0 92 92" fill="none" xmlns="http://www.w3.org/2000/svg">
<rect width="91" height="92" fill="white"/>
<g filter="url(#filter0_d_708_6579)">
<rect x="28" y="12" width="41" height="40" rx="5" fill="white"/>
</g>
<rect x="30.5387" y="14.65" width="34.7" height="34.7" rx="2.85" fill="#F1F5F9"/>
<rect x="30.8887" y="14" width="34" height="13" fill="#DDD6FE"/>
<path d="M32.8887 31H57.8887" stroke="#C4B5FD" stroke-width="2"/>
<path d="M32.8887 36H46.8887" stroke="#C4B5FD" stroke-width="2"/>
<rect x="48.8887" y="42" width="14" height="6" rx="0.5" fill="#C4B5FD"/>
<rect x="32.8887" y="42" width="14" height="6" rx="0.5" fill="#C4B5FD"/>
<rect x="30.5387" y="14.65" width="34.7" height="34.7" rx="2.85" stroke="#6D28D9" stroke-width="1.3"/>
<rect x="6.5" y="22.3164" width="21" height="21" rx="1.5" fill="white"/>
<path d="M8 28.8164H23" stroke="#94A3B8" stroke-width="1.5"/>
<path d="M8 32.8164H18" stroke="#94A3B8" stroke-width="1.5"/>
<rect x="6.5" y="22.3164" width="21" height="21" rx="1.5" stroke="#94A3B8"/>
<path opacity="0.3" d="M82.4737 78.287L80.4461 80.3146C80.2059 80.5547 79.8801 80.6896 79.5405 80.6896C79.2008 80.6896 78.875 80.5547 78.6348 80.3146L70.6766 72.3613C70.529 72.2133 70.3475 72.1038 70.1479 72.0421C69.9483 71.9804 69.7366 71.9684 69.5313 72.0073C69.326 72.0461 69.1334 72.1346 68.9701 72.2649C68.8068 72.3953 68.6779 72.5636 68.5946 72.7552L65.4779 79.9254C65.3719 80.159 65.1981 80.3553 64.9793 80.489C64.7604 80.6227 64.5064 80.6876 64.2502 80.6753C63.994 80.6631 63.7474 80.5742 63.5423 80.4203C63.3371 80.2663 63.1829 80.0543 63.0996 79.8117L54.7267 54.1739C54.6581 53.9513 54.6515 53.7142 54.7077 53.4882C54.7638 53.2621 54.8805 53.0556 55.0452 52.8909C55.2099 52.7262 55.4164 52.6095 55.6425 52.5534C55.8685 52.4973 56.1056 52.5038 56.3282 52.5724L81.9692 60.9389C82.2118 61.0222 82.4238 61.1764 82.5778 61.3816C82.7317 61.5867 82.8206 61.8333 82.8328 62.0895C82.8451 62.3457 82.7802 62.5997 82.6465 62.8186C82.5128 63.0374 82.3165 63.2112 82.0829 63.3172L74.9127 66.4355C74.7213 66.519 74.5531 66.648 74.4229 66.8113C74.2927 66.9747 74.2044 67.1674 74.1657 67.3727C74.127 67.578 74.1391 67.7896 74.2009 67.9891C74.2627 68.1887 74.3724 68.3701 74.5204 68.5175L82.4753 76.4725C82.5946 76.5916 82.6892 76.7331 82.7536 76.8888C82.8181 77.0446 82.8512 77.2115 82.8511 77.3801C82.851 77.5487 82.8175 77.7155 82.7528 77.8712C82.688 78.0268 82.5932 78.1681 82.4737 78.287Z" fill="#7C3AED"/>
<path d="M80.212 67.4475L87.3822 64.3308C87.8545 64.1214 88.2525 63.7741 88.5239 63.3344C88.7953 62.8948 88.9275 62.3833 88.9031 61.8672C88.8786 61.3511 88.6988 60.8544 88.3871 60.4424C88.0753 60.0303 87.6463 59.7221 87.1564 59.5582L61.5185 51.1868C61.0702 51.0431 60.5909 51.0257 60.1332 51.1366C59.6756 51.2474 59.2574 51.4822 58.9245 51.8151C58.5915 52.148 58.3568 52.5663 58.2459 53.0239C58.1351 53.4815 58.1525 53.9608 58.2962 54.4092L66.6676 80.047C66.8255 80.5416 67.1316 80.9758 67.5443 81.2909C67.9571 81.606 68.4566 81.7867 68.9754 81.8087H69.1019C69.5994 81.8103 70.0863 81.6656 70.5021 81.3925C70.9179 81.1194 71.2441 80.73 71.4402 80.2728L74.5569 73.1026L82.5118 81.0576C82.7498 81.2956 83.0323 81.4844 83.3432 81.6132C83.6542 81.742 83.9874 81.8083 84.324 81.8083C84.6606 81.8083 84.9938 81.742 85.3048 81.6132C85.6157 81.4844 85.8982 81.2956 86.1362 81.0576L88.1669 79.0268C88.405 78.7888 88.5938 78.5063 88.7226 78.1954C88.8514 77.8844 88.9177 77.5512 88.9177 77.2146C88.9177 76.8781 88.8514 76.5448 88.7226 76.2339C88.5938 75.9229 88.405 75.6404 88.1669 75.4025L80.212 67.4475ZM84.3232 79.2462L76.3698 71.2912C76.0745 70.9955 75.7113 70.7765 75.3119 70.6533C74.9125 70.5301 74.489 70.5065 74.0784 70.5846C73.6677 70.6626 73.2824 70.8398 72.956 71.1009C72.6297 71.362 72.3721 71.699 72.2058 72.0824L69.0955 79.2334L60.7306 53.6212L86.3348 61.983L79.1854 65.0916C78.8019 65.2579 78.465 65.5155 78.2039 65.8419C77.9428 66.1683 77.7655 66.5536 77.6875 66.9642C77.6095 67.3748 77.6331 67.7983 77.7563 68.1977C77.8795 68.5971 78.0985 68.9603 78.3942 69.2557L86.3556 77.2138L84.3232 79.2462ZM67.1368 49.7774V48.4962C67.1368 48.1564 67.2718 47.8305 67.5121 47.5902C67.7524 47.3499 68.0783 47.2149 68.4181 47.2149C68.7579 47.2149 69.0838 47.3499 69.3241 47.5902C69.5643 47.8305 69.6993 48.1564 69.6993 48.4962V49.7774C69.6993 50.1173 69.5643 50.4431 69.3241 50.6834C69.0838 50.9237 68.7579 51.0587 68.4181 51.0587C68.0783 51.0587 67.7524 50.9237 67.5121 50.6834C67.2718 50.4431 67.1368 50.1173 67.1368 49.7774ZM54.3243 61.3087C54.3243 60.9689 54.4593 60.643 54.6996 60.4027C54.9399 60.1624 55.2658 60.0275 55.6056 60.0275H56.8868C57.2266 60.0275 57.5525 60.1624 57.7928 60.4027C58.0331 60.643 58.1681 60.9689 58.1681 61.3087C58.1681 61.6485 58.0331 61.9744 57.7928 62.2147C57.5525 62.455 57.2266 62.59 56.8868 62.59H55.6056C55.2658 62.59 54.9399 62.455 54.6996 62.2147C54.4593 61.9744 54.3243 61.6485 54.3243 61.3087ZM72.398 50.4853L73.6792 47.9228C73.8313 47.6189 74.0978 47.3879 74.4203 47.2805C74.7427 47.1731 75.0946 47.1982 75.3985 47.3503C75.7024 47.5023 75.9335 47.7689 76.0408 48.0913C76.1482 48.4138 76.1231 48.7656 75.971 49.0696L74.6898 51.6321C74.6145 51.7825 74.5103 51.9167 74.3831 52.0269C74.256 52.1372 74.1084 52.2212 73.9487 52.2744C73.7891 52.3276 73.6205 52.3488 73.4527 52.3368C73.2848 52.3248 73.121 52.2799 72.9705 52.2046C72.82 52.1293 72.6859 52.0251 72.5756 51.898C72.4654 51.7708 72.3813 51.6232 72.3282 51.4636C72.275 51.3039 72.2538 51.1354 72.2658 50.9675C72.2777 50.7997 72.3227 50.6358 72.398 50.4853ZM59.3148 65.8603C59.3902 66.0109 59.4352 66.1749 59.4472 66.3428C59.4592 66.5108 59.4379 66.6795 59.3847 66.8392C59.3314 66.999 59.2472 67.1467 59.1368 67.2739C59.0265 67.401 58.8921 67.5052 58.7414 67.5804L56.1789 68.8617C55.875 69.0137 55.5231 69.0388 55.2007 68.9315C54.8783 68.8241 54.6117 68.593 54.4597 68.2891C54.3076 67.9852 54.2825 67.6333 54.3899 67.3109C54.4972 66.9885 54.7283 66.7219 55.0322 66.5698L57.5947 65.2886C57.7452 65.2131 57.9091 65.1681 58.077 65.1559C58.2449 65.1438 58.4135 65.1649 58.5732 65.218C58.733 65.2711 58.8807 65.3552 59.0079 65.4654C59.1352 65.5756 59.2394 65.7098 59.3148 65.8603Z" fill="#334155"/>
<defs>
<filter id="filter0_d_708_6579" x="24" y="9" width="49" height="48" filterUnits="userSpaceOnUse" color-interpolation-filters="sRGB">
<feFlood flood-opacity="0" result="BackgroundImageFix"/>
<feColorMatrix in="SourceAlpha" type="matrix" values="0 0 0 0 0 0 0 0 0 0 0 0 0 0 0 0 0 0 127 0" result="hardAlpha"/>
<feOffset dy="1"/>
<feGaussianBlur stdDeviation="2"/>
<feComposite in2="hardAlpha" operator="out"/>
<feColorMatrix type="matrix" values="0 0 0 0 0 0 0 0 0 0 0 0 0 0 0 0 0 0 0.25 0"/>
<feBlend mode="normal" in2="BackgroundImageFix" result="effect1_dropShadow_708_6579"/>
<feBlend mode="normal" in="SourceGraphic" in2="effect1_dropShadow_708_6579" result="shape"/>
</filter>
</defs>
</svg>
