<svg width="90" height="91" viewBox="0 0 90 91" fill="none" xmlns="http://www.w3.org/2000/svg">
<rect width="90" height="91" fill="white"/>
<path opacity="0.2" d="M71.9996 18.6328V53.6461H58.8696V31.7628H36.9863V18.6328H71.9996Z" fill="#16A34A"/>
<path d="M67.3316 18H32.3183C31.7379 18 31.1813 18.2306 30.7709 18.6409C30.3605 19.0513 30.13 19.6079 30.13 20.1883V31.13H19.1883C18.6079 31.13 18.0513 31.3605 17.6409 31.7709C17.2306 32.1813 17 32.7379 17 33.3183V68.3316C17 68.9119 17.2306 69.4686 17.6409 69.879C18.0513 70.2893 18.6079 70.5199 19.1883 70.5199H54.2016C54.782 70.5199 55.3386 70.2893 55.749 69.879C56.1594 69.4686 56.3899 68.9119 56.3899 68.3316V57.3899H67.3316C67.9119 57.3899 68.4686 57.1594 68.879 56.749C69.2893 56.3386 69.5199 55.782 69.5199 55.2016V20.1883C69.5199 19.6079 69.2893 19.0513 68.879 18.6409C68.4686 18.2306 67.9119 18 67.3316 18ZM52.0133 66.1432H21.3767V35.5066H52.0133V66.1432ZM65.1432 53.0133H56.3899V33.3183C56.3899 32.7379 56.1594 32.1813 55.749 31.7709C55.3386 31.3605 54.782 31.13 54.2016 31.13H34.5066V22.3767H65.1432V53.0133Z" fill="#334155"/>
</svg>
