<svg width="55" height="53" viewBox="0 0 55 53" fill="none" xmlns="http://www.w3.org/2000/svg">
<path opacity="0.2" d="M54.9996 0.632812V35.6461H41.8696V13.7628H19.9863V0.632812H54.9996Z" fill="#16A34A"/>
<path d="M50.3316 0H15.3183C14.7379 0 14.1813 0.230556 13.7709 0.640947C13.3605 1.05134 13.13 1.60795 13.13 2.18833V13.13H2.18833C1.60795 13.13 1.05134 13.3605 0.640947 13.7709C0.230556 14.1813 0 14.7379 0 15.3183V50.3316C0 50.9119 0.230556 51.4686 0.640947 51.879C1.05134 52.2893 1.60795 52.5199 2.18833 52.5199H37.2016C37.782 52.5199 38.3386 52.2893 38.749 51.879C39.1594 51.4686 39.3899 50.9119 39.3899 50.3316V39.3899H50.3316C50.9119 39.3899 51.4686 39.1594 51.879 38.749C52.2893 38.3386 52.5199 37.782 52.5199 37.2016V2.18833C52.5199 1.60795 52.2893 1.05134 51.879 0.640947C51.4686 0.230556 50.9119 0 50.3316 0ZM35.0133 48.1432H4.37666V17.5066H35.0133V48.1432ZM48.1432 35.0133H39.3899V15.3183C39.3899 14.7379 39.1594 14.1813 38.749 13.7709C38.3386 13.3605 37.782 13.13 37.2016 13.13H17.5066V4.37666H48.1432V35.0133Z" fill="#334155"/>
</svg>
