<svg width="808" height="377" viewBox="0 0 808 377" fill="none" xmlns="http://www.w3.org/2000/svg">
<rect x="0.699219" y="0.482422" width="807" height="376" rx="20" fill="#F2F2F2"/>
<path d="M417.559 161.764C417.559 159.121 418.342 156.539 419.81 154.342C421.278 152.145 423.364 150.432 425.806 149.421C428.247 148.41 430.933 148.146 433.524 148.661C436.116 149.176 438.496 150.449 440.364 152.317C442.233 154.186 443.505 156.566 444.021 159.157C444.536 161.749 444.272 164.435 443.26 166.876C442.249 169.317 440.537 171.404 438.34 172.872C436.143 174.34 433.56 175.123 430.918 175.123C427.375 175.123 423.977 173.716 421.471 171.21C418.966 168.705 417.559 165.307 417.559 161.764ZM494.375 128.365V248.6C494.375 253.029 492.616 257.276 489.484 260.408C486.352 263.539 482.105 265.299 477.676 265.299H330.723C326.294 265.299 322.046 263.539 318.915 260.408C315.783 257.276 314.023 253.029 314.023 248.6V128.365C314.023 123.936 315.783 119.689 318.915 116.557C322.046 113.425 326.294 111.666 330.723 111.666H477.676C482.105 111.666 486.352 113.425 489.484 116.557C492.616 119.689 494.375 123.936 494.375 128.365ZM334.062 131.705V198.268L362.334 169.996C365.466 166.866 369.713 165.107 374.141 165.107C378.569 165.107 382.815 166.866 385.947 169.996L420.322 204.347L434.667 190.01C437.799 186.88 442.045 185.121 446.473 185.121C450.901 185.121 455.148 186.88 458.28 190.01L474.336 206.092V131.705H334.062ZM334.062 245.26H432.872L374.141 186.529L334.062 226.607V245.26ZM474.336 245.26V234.405L446.473 206.543L434.492 218.541L461.21 245.26H474.336Z" fill="white"/>
</svg>
