<svg width="90" height="91" viewBox="0 0 90 91" fill="none" xmlns="http://www.w3.org/2000/svg">
<rect width="90" height="91" fill="white"/>
<path opacity="0.5" d="M58.1485 47.0164L44.7905 51.9293C44.5124 52.0312 44.2598 52.1925 44.0503 52.4019C43.8409 52.6113 43.6796 52.8639 43.5778 53.1421L38.6648 66.5001C38.5199 66.8929 38.258 67.2318 37.9145 67.4711C37.571 67.7105 37.1623 67.8388 36.7436 67.8388C36.3249 67.8388 35.9163 67.7105 35.5728 67.4711C35.2293 67.2318 34.9674 66.8929 34.8224 66.5001L29.9095 53.1421C29.8076 52.8639 29.6464 52.6113 29.4369 52.4019C29.2275 52.1925 28.9749 52.0312 28.6968 51.9293L15.3388 47.0164C14.946 46.8714 14.6071 46.6095 14.3677 46.266C14.1283 45.9225 14 45.5139 14 45.0952C14 44.6765 14.1283 44.2679 14.3677 43.9244C14.6071 43.5809 14.946 43.319 15.3388 43.174L28.6968 38.2611C28.9749 38.1592 29.2275 37.9979 29.4369 37.7885C29.6464 37.5791 29.8076 37.3265 29.9095 37.0483L34.8224 23.6903C34.9674 23.2975 35.2293 22.9586 35.5728 22.7193C35.9163 22.4799 36.3249 22.3516 36.7436 22.3516C37.1623 22.3516 37.571 22.4799 37.9145 22.7193C38.258 22.9586 38.5199 23.2975 38.6648 23.6903L43.5778 37.0483C43.6796 37.3265 43.8409 37.5791 44.0503 37.7885C44.2598 37.9979 44.5124 38.1592 44.7905 38.2611L58.1485 43.174C58.5413 43.319 58.8802 43.5809 59.1196 43.9244C59.3589 44.2679 59.4873 44.6765 59.4873 45.0952C59.4873 45.5139 59.3589 45.9225 59.1196 46.266C58.8802 46.6095 58.5413 46.8714 58.1485 47.0164Z" fill="#FACC15"/>
<path d="M63.3956 43.3031L50.0506 38.3902L45.1376 25.0348C44.8467 24.2444 44.3203 23.5623 43.6295 23.0804C42.9387 22.5986 42.1168 22.3403 41.2745 22.3403C40.4323 22.3403 39.6103 22.5986 38.9195 23.0804C38.2287 23.5623 37.7023 24.2444 37.4114 25.0348L32.4933 38.3747L19.1379 43.2876C18.3475 43.5786 17.6654 44.1049 17.1835 44.7957C16.7017 45.4865 16.4434 46.3085 16.4434 47.1507C16.4434 47.993 16.7017 48.8149 17.1835 49.5057C17.6654 50.1965 18.3475 50.7229 19.1379 51.0139L32.4752 55.9578L37.3881 69.3055C37.6791 70.0959 38.2055 70.778 38.8962 71.2598C39.587 71.7417 40.409 72 41.2513 72C42.0935 72 42.9155 71.7417 43.6063 71.2598C44.297 70.778 44.8234 70.0959 45.1144 69.3055L50.0273 55.9604L63.3827 51.0475C64.1731 50.7565 64.8552 50.2301 65.3371 49.5394C65.8189 48.8486 66.0772 48.0266 66.0772 47.1844C66.0772 46.3421 65.8189 45.5201 65.3371 44.8294C64.8552 44.1386 64.1731 43.6122 63.3827 43.3212L63.3956 43.3031ZM48.6077 52.0792C48.0487 52.2844 47.541 52.6087 47.12 53.0298C46.6989 53.4509 46.3745 53.9585 46.1694 54.5175L41.2564 67.8238L36.3538 54.5072C36.1485 53.9511 35.8251 53.4462 35.406 53.027C34.9868 52.6079 34.4819 52.2845 33.9258 52.0792L20.6195 47.1663L33.9258 42.2533C34.4819 42.048 34.9868 41.7246 35.406 41.3055C35.8251 40.8863 36.1485 40.3814 36.3538 39.8253L41.2668 26.519L46.1797 39.8253C46.3849 40.3843 46.7093 40.892 47.1303 41.313C47.5514 41.7341 48.059 42.0585 48.6181 42.2637L61.9244 47.1766L48.6077 52.0792ZM49.5412 20.2744C49.5412 19.7258 49.7591 19.1996 50.1471 18.8117C50.535 18.4238 51.0612 18.2058 51.6098 18.2058H55.747V14.0686C55.747 13.52 55.9649 12.9938 56.3529 12.6059C56.7408 12.2179 57.267 12 57.8156 12C58.3642 12 58.8904 12.2179 59.2783 12.6059C59.6663 12.9938 59.8842 13.52 59.8842 14.0686V18.2058H64.0214C64.57 18.2058 65.0962 18.4238 65.4841 18.8117C65.8721 19.1996 66.09 19.7258 66.09 20.2744C66.09 20.823 65.8721 21.3492 65.4841 21.7371C65.0962 22.1251 64.57 22.343 64.0214 22.343H59.8842V26.4802C59.8842 27.0288 59.6663 27.555 59.2783 27.9429C58.8904 28.3309 58.3642 28.5488 57.8156 28.5488C57.267 28.5488 56.7408 28.3309 56.3529 27.9429C55.9649 27.555 55.747 27.0288 55.747 26.4802V22.343H51.6098C51.0612 22.343 50.535 22.1251 50.1471 21.7371C49.7591 21.3492 49.5412 20.823 49.5412 20.2744ZM76.433 32.686C76.433 33.2347 76.2151 33.7608 75.8271 34.1488C75.4392 34.5367 74.913 34.7546 74.3644 34.7546H72.2958V36.8232C72.2958 37.3719 72.0779 37.898 71.6899 38.286C71.302 38.6739 70.7758 38.8918 70.2272 38.8918C69.6786 38.8918 69.1524 38.6739 68.7645 38.286C68.3765 37.898 68.1586 37.3719 68.1586 36.8232V34.7546H66.09C65.5414 34.7546 65.0152 34.5367 64.6273 34.1488C64.2393 33.7608 64.0214 33.2347 64.0214 32.686C64.0214 32.1374 64.2393 31.6112 64.6273 31.2233C65.0152 30.8354 65.5414 30.6174 66.09 30.6174H68.1586V28.5488C68.1586 28.0002 68.3765 27.474 68.7645 27.0861C69.1524 26.6982 69.6786 26.4802 70.2272 26.4802C70.7758 26.4802 71.302 26.6982 71.6899 27.0861C72.0779 27.474 72.2958 28.0002 72.2958 28.5488V30.6174H74.3644C74.913 30.6174 75.4392 30.8354 75.8271 31.2233C76.2151 31.6112 76.433 32.1374 76.433 32.686Z" fill="#334155"/>
</svg>
