<svg width="66" height="64" viewBox="0 0 66 64" fill="none" xmlns="http://www.w3.org/2000/svg">
<path opacity="0.5" d="M46.672 37.02L32.5505 42.2137C32.2564 42.3214 31.9894 42.4919 31.768 42.7133C31.5466 42.9347 31.3761 43.2017 31.2684 43.4958L26.0747 57.6173C25.9214 58.0325 25.6445 58.3908 25.2814 58.6439C24.9182 58.8969 24.4863 59.0326 24.0436 59.0326C23.601 59.0326 23.169 58.8969 22.8059 58.6439C22.4427 58.3908 22.1659 58.0325 22.0126 57.6173L16.8189 43.4958C16.7112 43.2017 16.5407 42.9347 16.3193 42.7133C16.0979 42.4919 15.8309 42.3214 15.5368 42.2137L1.41529 37.02C1.00005 36.8667 0.641772 36.5899 0.388719 36.2267C0.135666 35.8636 0 35.4316 0 34.989C0 34.5463 0.135666 34.1143 0.388719 33.7512C0.641772 33.3881 1.00005 33.1112 1.41529 32.9579L15.5368 27.7642C15.8309 27.6565 16.0979 27.486 16.3193 27.2646C16.5407 27.0432 16.7112 26.7762 16.8189 26.4821L22.0126 12.3606C22.1659 11.9454 22.4427 11.5871 22.8059 11.334C23.169 11.081 23.601 10.9453 24.0436 10.9453C24.4863 10.9453 24.9182 11.081 25.2814 11.334C25.6445 11.5871 25.9214 11.9454 26.0747 12.3606L31.2684 26.4821C31.3761 26.7762 31.5466 27.0432 31.768 27.2646C31.9894 27.486 32.2564 27.6565 32.5505 27.7642L46.672 32.9579C47.0872 33.1112 47.4455 33.3881 47.6986 33.7512C47.9516 34.1143 48.0873 34.5463 48.0873 34.989C48.0873 35.4316 47.9516 35.8636 47.6986 36.2267C47.4455 36.5899 47.0872 36.8667 46.672 37.02Z" fill="#FACC15"/>
<path d="M52.2181 33.0924L38.1102 27.8986L32.9165 13.7798C32.6089 12.9443 32.0524 12.2232 31.3221 11.7138C30.5918 11.2044 29.7229 10.9313 28.8325 10.9313C27.9421 10.9313 27.0732 11.2044 26.3429 11.7138C25.6126 12.2232 25.0562 12.9443 24.7486 13.7798L19.5494 27.8822L5.43057 33.076C4.595 33.3836 3.87389 33.94 3.36451 34.6703C2.85514 35.4006 2.58203 36.2695 2.58203 37.1599C2.58203 38.0503 2.85514 38.9193 3.36451 39.6495C3.87389 40.3798 4.595 40.9363 5.43057 41.2439L19.5302 46.4704L24.724 60.581C25.0316 61.4166 25.588 62.1377 26.3183 62.6471C27.0486 63.1564 27.9175 63.4295 28.8079 63.4295C29.6983 63.4295 30.5672 63.1564 31.2975 62.6471C32.0278 62.1377 32.5843 61.4166 32.8918 60.581L38.0856 46.4731L52.2044 41.2794C53.04 40.9718 53.7611 40.4153 54.2705 39.6851C54.7798 38.9548 55.0529 38.0858 55.0529 37.1955C55.0529 36.3051 54.7798 35.4361 54.2705 34.7058C53.7611 33.9756 53.04 33.4191 52.2044 33.1115L52.2181 33.0924ZM36.5849 42.3701C35.9939 42.587 35.4572 42.9299 35.0121 43.375C34.567 43.8202 34.224 44.3568 34.0071 44.9478L28.8134 59.0147L23.6306 44.9369C23.4135 44.349 23.0717 43.8152 22.6285 43.3721C22.1854 42.929 21.6516 42.5871 21.0638 42.3701L6.9969 37.1763L21.0638 31.9826C21.6516 31.7655 22.1854 31.4237 22.6285 30.9806C23.0717 30.5374 23.4135 30.0036 23.6306 29.4158L28.8243 15.3489L34.0181 29.4158C34.235 30.0067 34.5779 30.5434 35.023 30.9885C35.4682 31.4337 36.0048 31.7766 36.5958 31.9935L50.6627 37.1873L36.5849 42.3701ZM37.5717 8.74737C37.5717 8.16738 37.8021 7.61115 38.2122 7.20104C38.6223 6.79093 39.1785 6.56053 39.7585 6.56053H44.1322V2.18684C44.1322 1.60686 44.3626 1.05062 44.7727 0.640511C45.1828 0.230399 45.7391 0 46.3191 0C46.899 0 47.4553 0.230399 47.8654 0.640511C48.2755 1.05062 48.5059 1.60686 48.5059 2.18684V6.56053H52.8796C53.4596 6.56053 54.0158 6.79093 54.4259 7.20104C54.836 7.61115 55.0664 8.16738 55.0664 8.74737C55.0664 9.32736 54.836 9.88359 54.4259 10.2937C54.0158 10.7038 53.4596 10.9342 52.8796 10.9342H48.5059V15.3079C48.5059 15.8879 48.2755 16.4441 47.8654 16.8542C47.4553 17.2643 46.899 17.4947 46.3191 17.4947C45.7391 17.4947 45.1828 17.2643 44.7727 16.8542C44.3626 16.4441 44.1322 15.8879 44.1322 15.3079V10.9342H39.7585C39.1785 10.9342 38.6223 10.7038 38.2122 10.2937C37.8021 9.88359 37.5717 9.32736 37.5717 8.74737ZM66.0006 21.8684C66.0006 22.4484 65.7702 23.0046 65.3601 23.4148C64.95 23.8249 64.3938 24.0553 63.8138 24.0553H61.627V26.2421C61.627 26.8221 61.3966 27.3783 60.9864 27.7884C60.5763 28.1986 60.0201 28.429 59.4401 28.429C58.8601 28.429 58.3039 28.1986 57.8938 27.7884C57.4837 27.3783 57.2533 26.8221 57.2533 26.2421V24.0553H55.0664C54.4864 24.0553 53.9302 23.8249 53.5201 23.4148C53.11 23.0046 52.8796 22.4484 52.8796 21.8684C52.8796 21.2884 53.11 20.7322 53.5201 20.3221C53.9302 19.912 54.4864 19.6816 55.0664 19.6816H57.2533V17.4947C57.2533 16.9148 57.4837 16.3585 57.8938 15.9484C58.3039 15.5383 58.8601 15.3079 59.4401 15.3079C60.0201 15.3079 60.5763 15.5383 60.9864 15.9484C61.3966 16.3585 61.627 16.9148 61.627 17.4947V19.6816H63.8138C64.3938 19.6816 64.95 19.912 65.3601 20.3221C65.7702 20.7322 66.0006 21.2884 66.0006 21.8684Z" fill="#334155"/>
</svg>
