<svg width="807" height="377" viewBox="0 0 807 377" fill="none" xmlns="http://www.w3.org/2000/svg">
<rect y="0.753906" width="807" height="376" rx="20" fill="#F2F2F2"/>
<path d="M477.121 111.785H329.879C325.441 111.785 321.185 113.548 318.047 116.686C314.909 119.824 313.146 124.08 313.146 128.517V215.524C313.146 219.962 314.909 224.218 318.047 227.356C321.185 230.494 325.441 232.257 329.879 232.257H477.121C481.559 232.257 485.815 230.494 488.953 227.356C492.091 224.218 493.854 219.962 493.854 215.524V128.517C493.854 124.08 492.091 119.824 488.953 116.686C485.815 113.548 481.559 111.785 477.121 111.785ZM473.775 212.178H333.225V131.864H473.775V212.178ZM493.854 255.681C493.854 258.344 492.796 260.898 490.913 262.78C489.03 264.663 486.477 265.721 483.814 265.721H323.186C320.523 265.721 317.97 264.663 316.087 262.78C314.204 260.898 313.146 258.344 313.146 255.681C313.146 253.019 314.204 250.465 316.087 248.583C317.97 246.7 320.523 245.642 323.186 245.642H483.814C486.477 245.642 489.03 246.7 490.913 248.583C492.796 250.465 493.854 253.019 493.854 255.681ZM383.421 188.753V155.289C383.421 153.496 383.9 151.737 384.809 150.192C385.719 148.647 387.025 147.375 388.593 146.505C390.16 145.636 391.932 145.203 393.723 145.249C395.515 145.296 397.262 145.822 398.782 146.772L425.553 163.504C426.998 164.406 428.19 165.661 429.017 167.151C429.843 168.641 430.277 170.317 430.277 172.021C430.277 173.725 429.843 175.4 429.017 176.89C428.19 178.38 426.998 179.635 425.553 180.537L398.782 197.27C397.262 198.22 395.515 198.745 393.723 198.792C391.932 198.839 390.16 198.405 388.593 197.536C387.025 196.667 385.719 195.394 384.809 193.85C383.9 192.305 383.421 190.545 383.421 188.753Z" fill="white"/>
</svg>
