<svg width="32" height="32" viewBox="0 0 32 32" fill="none" xmlns="http://www.w3.org/2000/svg">
<path d="M30.6004 18.7989C30.4953 18.8777 30.3758 18.935 30.2486 18.9676C30.1213 19.0002 29.989 19.0074 29.859 18.9889C29.729 18.9703 29.6039 18.9263 29.4909 18.8594C29.3779 18.7925 29.2792 18.704 29.2004 18.5989C28.5976 17.7887 27.8131 17.1314 26.9099 16.6798C26.0068 16.2282 25.0102 15.995 24.0004 15.9989C23.8037 15.9989 23.6115 15.9409 23.4476 15.8322C23.2837 15.7235 23.1556 15.5688 23.0791 15.3877C23.0272 15.2646 23.0005 15.1325 23.0005 14.9989C23.0005 14.8654 23.0272 14.7332 23.0791 14.6102C23.1556 14.429 23.2837 14.2744 23.4476 14.1657C23.6115 14.0569 23.8037 13.9989 24.0004 13.9989C24.5615 13.9989 25.1113 13.8415 25.5874 13.5446C26.0635 13.2477 26.4469 12.8233 26.6938 12.3195C26.9408 11.8157 27.0416 11.2527 26.9846 10.6945C26.9277 10.1363 26.7154 9.60527 26.3717 9.1617C26.0281 8.71813 25.567 8.37982 25.0408 8.18519C24.5145 7.99056 23.9442 7.94741 23.3947 8.06065C22.8451 8.17389 22.3384 8.43897 21.9319 8.82578C21.5255 9.2126 21.2357 9.70565 21.0954 10.2489C21.0625 10.3761 21.005 10.4956 20.926 10.6006C20.847 10.7056 20.748 10.794 20.6349 10.8607C20.5217 10.9274 20.3965 10.9712 20.2664 10.9896C20.1363 11.008 20.0038 11.0005 19.8766 10.9677C19.7494 10.9348 19.6299 10.8773 19.5249 10.7983C19.42 10.7192 19.3316 10.6203 19.2648 10.5072C19.1981 10.394 19.1543 10.2688 19.136 10.1387C19.1176 10.0086 19.125 9.87614 19.1579 9.74892C19.3526 8.99556 19.7204 8.29804 20.2321 7.71186C20.7438 7.12568 21.3853 6.66701 22.1054 6.37236C22.8256 6.07771 23.6046 5.9552 24.3804 6.01458C25.1563 6.07397 25.9075 6.31361 26.5745 6.71444C27.2414 7.11526 27.8056 7.66621 28.2221 8.32344C28.6386 8.98068 28.896 9.72605 28.9738 10.5003C29.0516 11.2745 28.9476 12.0562 28.6701 12.7831C28.3926 13.5101 27.9493 14.1622 27.3754 14.6877C28.7351 15.2764 29.9172 16.2107 30.8041 17.3977C30.8829 17.503 30.9402 17.6228 30.9726 17.7503C31.005 17.8778 31.0119 18.0104 30.993 18.1406C30.9741 18.2707 30.9296 18.3959 30.8623 18.5089C30.7949 18.6218 30.7059 18.7204 30.6004 18.7989ZM23.8654 26.4989C23.9377 26.6127 23.9863 26.74 24.0082 26.8731C24.0301 27.0062 24.0248 27.1423 23.9928 27.2733C23.9607 27.4043 23.9024 27.5275 23.8215 27.6354C23.7406 27.7433 23.6387 27.8337 23.5219 27.9012C23.4051 27.9687 23.2759 28.0118 23.142 28.0281C23.0082 28.0444 22.8724 28.0334 22.7428 27.9958C22.6133 27.9582 22.4927 27.8948 22.3883 27.8094C22.2839 27.7241 22.1979 27.6184 22.1354 27.4989C21.5054 26.4323 20.6083 25.5483 19.5324 24.9342C18.4565 24.3201 17.2392 23.9971 16.0004 23.9971C14.7616 23.9971 13.5442 24.3201 12.4683 24.9342C11.3925 25.5483 10.4953 26.4323 9.86538 27.4989C9.80286 27.6184 9.71682 27.7241 9.61243 27.8094C9.50803 27.8948 9.38744 27.9582 9.25792 27.9958C9.12839 28.0334 8.9926 28.0444 8.85871 28.0281C8.72483 28.0118 8.59562 27.9687 8.47885 27.9012C8.36209 27.8337 8.26018 27.7433 8.17926 27.6354C8.09835 27.5275 8.0401 27.4043 8.00801 27.2733C7.97592 27.1423 7.97066 27.0062 7.99255 26.8731C8.01444 26.74 8.06303 26.6127 8.13538 26.4989C9.10488 24.8331 10.5831 23.5223 12.3529 22.7589C11.357 21.9965 10.6252 20.9411 10.2601 19.7412C9.8951 18.5413 9.91525 17.2572 10.3178 16.0693C10.7203 14.8814 11.4849 13.8496 12.5042 13.1188C13.5235 12.3879 14.7462 11.9949 16.0004 11.9949C17.2546 11.9949 18.4773 12.3879 19.4965 13.1188C20.5158 13.8496 21.2805 14.8814 21.683 16.0693C22.0855 17.2572 22.1057 18.5413 21.7406 19.7412C21.3756 20.9411 20.6437 21.9965 19.6479 22.7589C21.4176 23.5223 22.8959 24.8331 23.8654 26.4989ZM16.0004 21.9989C16.7915 21.9989 17.5649 21.7643 18.2227 21.3248C18.8805 20.8853 19.3931 20.2606 19.6959 19.5297C19.9986 18.7988 20.0779 17.9945 19.9235 17.2186C19.7692 16.4426 19.3882 15.7299 18.8288 15.1705C18.2694 14.6111 17.5567 14.2301 16.7807 14.0758C16.0048 13.9214 15.2005 14.0007 14.4696 14.3034C13.7387 14.6062 13.114 15.1188 12.6745 15.7766C12.235 16.4344 12.0004 17.2078 12.0004 17.9989C12.0004 19.0598 12.4218 20.0772 13.172 20.8273C13.9221 21.5775 14.9395 21.9989 16.0004 21.9989ZM9.00038 14.9989C9.00038 14.7337 8.89502 14.4794 8.70749 14.2918C8.51995 14.1043 8.2656 13.9989 8.00038 13.9989C7.43929 13.9989 6.88946 13.8415 6.41334 13.5446C5.93722 13.2477 5.5539 12.8233 5.30692 12.3195C5.05994 11.8157 4.95919 11.2527 5.01613 10.6945C5.07306 10.1363 5.2854 9.60527 5.62901 9.1617C5.97263 8.71813 6.43375 8.37982 6.96 8.18519C7.48626 7.99056 8.05654 7.94741 8.60609 8.06065C9.15563 8.17389 9.66241 8.43897 10.0688 8.82578C10.4753 9.2126 10.7651 9.70565 10.9054 10.2489C10.9717 10.5058 11.1373 10.7259 11.3659 10.8607C11.5945 10.9955 11.8672 11.034 12.1241 10.9677C12.3811 10.9014 12.6011 10.7357 12.7359 10.5072C12.8707 10.2786 12.9092 10.0058 12.8429 9.74892C12.6482 8.99556 12.2803 8.29804 11.7686 7.71186C11.2569 7.12568 10.6155 6.66701 9.89532 6.37236C9.17516 6.07771 8.39617 5.9552 7.62033 6.01458C6.84449 6.07397 6.09321 6.31361 5.42629 6.71444C4.75936 7.11526 4.19519 7.66621 3.77866 8.32344C3.36212 8.98068 3.10473 9.72605 3.02697 10.5003C2.9492 11.2745 3.05319 12.0562 3.33068 12.7831C3.60817 13.5101 4.0515 14.1622 4.62538 14.6877C3.26698 15.277 2.08627 16.2112 1.20038 17.3977C1.04108 17.6098 0.972598 17.8766 1.00999 18.1393C1.04738 18.4019 1.18758 18.639 1.39975 18.7983C1.61193 18.9576 1.87869 19.0261 2.14136 18.9887C2.40403 18.9513 2.64108 18.8111 2.80038 18.5989C3.40311 17.7887 4.18765 17.1314 5.09083 16.6798C5.99401 16.2282 6.9906 15.995 8.00038 15.9989C8.2656 15.9989 8.51995 15.8936 8.70749 15.706C8.89502 15.5185 9.00038 15.2641 9.00038 14.9989Z" fill="#4001FE"/>
</svg>
