<svg width="24" height="25" viewBox="0 0 24 25" fill="none" xmlns="http://www.w3.org/2000/svg">
<path d="M23.3538 9.97303L13.3538 0.53803C13.3489 0.533765 13.3443 0.529171 13.34 0.52428C12.9718 0.189447 12.492 0.00390625 11.9944 0.00390625C11.4967 0.00390625 11.0169 0.189447 10.6488 0.52428L10.635 0.53803L0.64625 9.97303C0.442497 10.1604 0.279855 10.388 0.168614 10.6415C0.057374 10.8949 -4.20536e-05 11.1687 2.31098e-08 11.4455V23.0018C2.31098e-08 23.5322 0.210714 24.0409 0.585786 24.416C0.960859 24.7911 1.46957 25.0018 2 25.0018H22C22.5304 25.0018 23.0391 24.7911 23.4142 24.416C23.7893 24.0409 24 23.5322 24 23.0018V11.4455C24 11.1687 23.9426 10.8949 23.8314 10.6415C23.7201 10.388 23.5575 10.1604 23.3538 9.97303ZM22 23.0018H2V11.4455L2.01375 11.433L12 2.00178L21.9875 11.4305L22.0012 11.443L22 23.0018Z" fill="black"/>
</svg>
