<svg width="27" height="27" viewBox="0 0 27 27" fill="none" xmlns="http://www.w3.org/2000/svg">
<path d="M2.60758 12.5853V16.4243C2.60758 17.15 3.08008 17.7912 3.77195 18.0021L22.2501 23.6721C23.3132 24.0012 24.3848 23.1996 24.3848 22.0943V6.90684C24.3848 5.79309 23.3132 4.99996 22.2501 5.32902L3.77195 11.0159C3.08008 11.2268 2.60758 11.8681 2.60758 12.5937V12.5853Z" fill="#7660E8"/>
<g style="mix-blend-mode:multiply">
<path d="M8.51344 13.582H11.8041C12.7407 13.582 13.5 14.3413 13.5 15.278V22.028C13.5 22.9646 12.7407 23.7239 11.8041 23.7239H8.51344C7.5768 23.7239 6.8175 22.9646 6.8175 22.028V15.278C6.8175 14.3413 7.5768 13.582 8.51344 13.582Z" fill="#2EE8ED"/>
</g>
</svg>
