<svg width="18" height="18" viewBox="0 0 18 18" fill="none" xmlns="http://www.w3.org/2000/svg">
<path d="M11.7888 1.85298C11.8105 1.78236 11.8181 1.70816 11.8111 1.6346C11.8041 1.56105 11.7828 1.48959 11.7482 1.4243C11.7136 1.359 11.6665 1.30116 11.6096 1.25407C11.5526 1.20699 11.487 1.17157 11.4164 1.14985C11.3458 1.12814 11.2716 1.12054 11.198 1.1275C11.1244 1.13446 11.053 1.15584 10.9877 1.19042C10.9224 1.225 10.8646 1.2721 10.8175 1.32903C10.7704 1.38596 10.735 1.45161 10.7133 1.52223L6.21325 16.1472C6.16939 16.2899 6.18399 16.4441 6.25382 16.5759C6.32365 16.7078 6.44301 16.8065 6.58563 16.8504C6.72825 16.8942 6.88245 16.8796 7.01431 16.8098C7.14618 16.74 7.2449 16.6206 7.28876 16.478L11.7888 1.85298ZM5.46176 4.66435C5.51414 4.71661 5.5557 4.77868 5.58406 4.84702C5.61241 4.91535 5.62701 4.98862 5.62701 5.0626C5.62701 5.13659 5.61241 5.20985 5.58406 5.27819C5.5557 5.34653 5.51414 5.4086 5.46176 5.46085L1.92138 9.0001L5.46176 12.5394C5.56738 12.645 5.62672 12.7882 5.62672 12.9376C5.62672 13.087 5.56738 13.2302 5.46176 13.3359C5.35613 13.4415 5.21288 13.5008 5.06351 13.5008C4.91413 13.5008 4.77088 13.4415 4.66526 13.3359L0.727756 9.39835C0.675372 9.3461 0.633811 9.28403 0.605454 9.21569C0.577097 9.14735 0.5625 9.07409 0.5625 9.0001C0.5625 8.92612 0.577097 8.85286 0.605454 8.78452C0.633811 8.71618 0.675372 8.65411 0.727756 8.60185L4.66526 4.66435C4.71751 4.61197 4.77958 4.57041 4.84792 4.54205C4.91626 4.5137 4.98952 4.4991 5.06351 4.4991C5.13749 4.4991 5.21075 4.5137 5.27909 4.54205C5.34743 4.57041 5.4095 4.61197 5.46176 4.66435ZM12.5403 4.66435C12.4879 4.71661 12.4463 4.77868 12.418 4.84702C12.3896 4.91535 12.375 4.98862 12.375 5.0626C12.375 5.13659 12.3896 5.20985 12.418 5.27819C12.4463 5.34653 12.4879 5.4086 12.5403 5.46085L16.0806 9.0001L12.5403 12.5394C12.488 12.5917 12.4465 12.6537 12.4182 12.7221C12.3899 12.7904 12.3753 12.8636 12.3753 12.9376C12.3753 13.0116 12.3899 13.0848 12.4182 13.1531C12.4465 13.2215 12.488 13.2836 12.5403 13.3359C12.5926 13.3882 12.6546 13.4296 12.723 13.4579C12.7913 13.4862 12.8645 13.5008 12.9385 13.5008C13.0125 13.5008 13.0857 13.4862 13.154 13.4579C13.2224 13.4296 13.2845 13.3882 13.3368 13.3359L17.2743 9.39835C17.3266 9.3461 17.3682 9.28403 17.3966 9.21569C17.4249 9.14735 17.4395 9.07409 17.4395 9.0001C17.4395 8.92612 17.4249 8.85286 17.3966 8.78452C17.3682 8.71618 17.3266 8.65411 17.2743 8.60185L13.3368 4.66435C13.2845 4.61197 13.2224 4.57041 13.1541 4.54205C13.0858 4.5137 13.0125 4.4991 12.9385 4.4991C12.8645 4.4991 12.7913 4.5137 12.7229 4.54205C12.6546 4.57041 12.5925 4.61197 12.5403 4.66435Z" fill="#6B7280"/>
</svg>
