<svg width="18" height="18" viewBox="0 0 18 18" fill="none" xmlns="http://www.w3.org/2000/svg">
<g clip-path="url(#clip0_1347_739)">
<path d="M9 16.875C6.91142 16.875 4.90838 16.0453 3.43153 14.5685C1.95468 13.0916 1.125 11.0886 1.125 9C1.125 6.91142 1.95468 4.90838 3.43153 3.43153C4.90838 1.95468 6.91142 1.125 9 1.125C11.0886 1.125 13.0916 1.95468 14.5685 3.43153C16.0453 4.90838 16.875 6.91142 16.875 9C16.875 11.0886 16.0453 13.0916 14.5685 14.5685C13.0916 16.0453 11.0886 16.875 9 16.875ZM9 18C11.3869 18 13.6761 17.0518 15.364 15.364C17.0518 13.6761 18 11.3869 18 9C18 6.61305 17.0518 4.32387 15.364 2.63604C13.6761 0.948212 11.3869 0 9 0C6.61305 0 4.32387 0.948212 2.63604 2.63604C0.948212 4.32387 0 6.61305 0 9C0 11.3869 0.948212 13.6761 2.63604 15.364C4.32387 17.0518 6.61305 18 9 18Z" fill="#6B7280"/>
<path d="M4.8203 10.7629C4.94949 10.6883 5.10302 10.6681 5.24712 10.7067C5.39122 10.7453 5.51408 10.8396 5.58867 10.9688C5.93417 11.5676 6.43136 12.0649 7.03017 12.4105C7.62898 12.7562 8.30828 12.9379 8.99967 12.9375C9.69107 12.9379 10.3704 12.7562 10.9692 12.4105C11.568 12.0649 12.0652 11.5676 12.4107 10.9688C12.4473 10.9043 12.4964 10.8477 12.555 10.8022C12.6137 10.7568 12.6807 10.7234 12.7523 10.7039C12.8239 10.6845 12.8986 10.6794 12.9722 10.689C13.0457 10.6985 13.1167 10.7225 13.1809 10.7596C13.2452 10.7967 13.3014 10.8462 13.3465 10.9051C13.3916 10.964 13.4245 11.0313 13.4435 11.103C13.4624 11.1747 13.467 11.2495 13.457 11.323C13.4469 11.3965 13.4224 11.4673 13.3849 11.5312C12.9407 12.3011 12.3015 12.9404 11.5317 13.3848C10.7618 13.8292 9.88854 14.0629 8.99967 14.0625C8.1108 14.0629 7.23751 13.8292 6.46768 13.3848C5.69786 12.9404 5.05866 12.3011 4.61442 11.5312C4.53983 11.4021 4.51962 11.2485 4.55823 11.1044C4.59684 10.9603 4.69111 10.8375 4.8203 10.7629ZM7.87467 7.3125C7.87467 8.244 7.37067 9 6.74967 9C6.12867 9 5.62467 8.244 5.62467 7.3125C5.62467 6.381 6.12867 5.625 6.74967 5.625C7.37067 5.625 7.87467 6.381 7.87467 7.3125ZM12.3747 7.3125C12.3747 8.244 11.8707 9 11.2497 9C10.6287 9 10.1247 8.244 10.1247 7.3125C10.1247 6.381 10.6287 5.625 11.2497 5.625C11.8707 5.625 12.3747 6.381 12.3747 7.3125Z" fill="#6B7280"/>
</g>
<defs>
<clipPath id="clip0_1347_739">
<rect width="18" height="18" fill="white"/>
</clipPath>
</defs>
</svg>
