<svg width="18" height="18" viewBox="0 0 18 18" fill="none" xmlns="http://www.w3.org/2000/svg">
<path fill-rule="evenodd" clip-rule="evenodd" d="M1 15C1 16.1046 1.89543 17 3 17H15C16.1046 17 17 16.1046 17 15V3C17 1.89543 16.1046 1 15 1H3C1.89543 1 1 1.89543 1 3V15ZM2.3333 14.8001C2.3333 15.3524 2.78101 15.8001 3.33329 15.8001H14.6666C15.2189 15.8001 15.6666 15.3524 15.6666 14.8001V3.20009C15.6666 2.64781 15.2189 2.20009 14.6666 2.20009H3.3333C2.78101 2.20009 2.3333 2.64781 2.3333 3.20009V14.8001Z" fill="#3A3A3A"/>
<path d="M12.6602 1.80078H11.1602V16.2008H12.6602V1.80078Z" fill="#3A3A3A"/>
<path fill-rule="evenodd" clip-rule="evenodd" d="M7.20215 9.07308L5.37235 10.8025C4.87588 11.2717 4.87588 12.0325 5.37235 12.5017L9 9.07308L5.37235 5.64453C4.87588 6.11372 4.87588 6.87448 5.37235 7.3437L7.20215 9.07308Z" fill="#3A3A3A"/>
</svg>
