<svg width="18" height="18" viewBox="0 0 18 18" fill="none" xmlns="http://www.w3.org/2000/svg">
<path d="M5.30554 7.35975L3.76204 8.90325C3.12905 9.53624 2.77344 10.3948 2.77344 11.2899C2.77344 12.1851 3.12905 13.0436 3.76204 13.6766C4.39502 14.3096 5.25354 14.6652 6.14872 14.6652C7.0439 14.6652 7.90242 14.3096 8.53541 13.6766L10.5919 11.619C10.9736 11.2372 11.2582 10.7695 11.4217 10.255C11.5852 9.7405 11.6229 9.19429 11.5317 8.6622C11.4404 8.13012 11.2229 7.62769 10.8973 7.19708C10.5717 6.76648 10.1475 6.42026 9.66041 6.1875L9.00116 6.84675C8.93423 6.9138 8.87602 6.98902 8.82791 7.07062C9.20425 7.17882 9.54585 7.38335 9.81892 7.66402C10.092 7.94468 10.2871 8.29175 10.3849 8.67092C10.4827 9.05008 10.4799 9.44822 10.3767 9.82596C10.2735 10.2037 10.0736 10.548 9.79654 10.8247L7.74116 12.8812C7.31897 13.3034 6.74635 13.5406 6.14929 13.5406C5.55222 13.5406 4.9796 13.3034 4.55741 12.8812C4.13522 12.4591 3.89803 11.8864 3.89803 11.2894C3.89803 10.6923 4.13522 10.1197 4.55741 9.6975L5.44954 8.8065C5.32367 8.33482 5.27504 7.84586 5.30554 7.35862V7.35975Z" fill="#6B7280"/>
<path d="M7.41022 5.25604C7.02851 5.6378 6.74396 6.10555 6.58043 6.62005C6.41691 7.13454 6.37919 7.68075 6.47044 8.21283C6.56169 8.74492 6.77925 9.24735 7.10486 9.67796C7.43047 10.1086 7.85462 10.4548 8.34172 10.6875L9.2136 9.81454C8.83216 9.71222 8.48437 9.51132 8.20518 9.23201C7.92599 8.95271 7.72524 8.60484 7.62308 8.22336C7.52093 7.84188 7.52098 7.44024 7.62323 7.05879C7.72548 6.67734 7.92633 6.32952 8.2056 6.05029L10.261 3.99379C10.6832 3.57159 11.2558 3.33441 11.8528 3.33441C12.4499 3.33441 13.0225 3.57159 13.4447 3.99379C13.8669 4.41598 14.1041 4.98859 14.1041 5.58566C14.1041 6.18273 13.8669 6.75534 13.4447 7.17754L12.5526 8.06854C12.6786 8.54104 12.727 9.03041 12.6966 9.51641L14.2401 7.97291C14.8731 7.33992 15.2287 6.48141 15.2287 5.58622C15.2287 4.69104 14.8731 3.83252 14.2401 3.19954C13.6071 2.56655 12.7486 2.21094 11.8534 2.21094C10.9582 2.21094 10.0997 2.56655 9.46672 3.19954L7.41022 5.25604Z" fill="#6B7280"/>
</svg>
