<svg width="18" height="18" viewBox="0 0 18 18" fill="none" xmlns="http://www.w3.org/2000/svg">
<path d="M9.23709 14.6243C11.6063 14.6243 13.0756 13.4015 13.0756 11.4485C13.0756 9.97922 11.9686 8.88009 10.4611 8.76422V8.70234C11.0384 8.61542 11.5656 8.32504 11.9477 7.88358C12.3297 7.44212 12.5414 6.87866 12.5446 6.29484C12.5446 4.59609 11.2373 3.52734 9.15384 3.52734H4.32422V14.6243H9.23709ZM6.64734 5.25759H8.55534C9.63872 5.25759 10.262 5.76497 10.262 6.65709C10.262 7.59534 9.55434 8.14209 8.31572 8.14209H6.64734V5.25647V5.25759ZM6.64734 12.8941V9.67209H8.59359C9.96272 9.67209 10.7086 10.2256 10.7086 11.264C10.7086 12.3248 9.98522 12.8941 8.64759 12.8941H6.64622H6.64734Z" fill="#6B7280"/>
</svg>
