<svg width="22" height="37" viewBox="0 0 22 37" fill="none" xmlns="http://www.w3.org/2000/svg">
<path d="M17.6517 36.2909C18.1252 36.7497 18.728 37 19.4384 37C20.8591 37 22 35.9154 22 34.5389C22 33.8506 21.6986 33.2249 21.2035 32.7452L6.13503 18.4791L21.2035 4.25479C21.6986 3.77508 22 3.12852 22 2.4611C22 1.08455 20.8591 0 19.4384 0C18.728 0 18.1252 0.250282 17.6517 0.709132L0.90411 16.5603C0.30137 17.1026 0.0215264 17.77 0 18.5C0 19.23 0.30137 19.8557 0.90411 20.4188L17.6517 36.2909Z" fill="#0277B4"/>
</svg>
