<?xml version="1.0" encoding="UTF-8"?>
<svg width="700pt" height="700pt" version="1.1" viewBox="0 0 700 700" xmlns="http://www.w3.org/2000/svg">
 <path d="m466.67 75.832h-184.87c-35.398 0-64.168 28.77-64.168 64.168v5.832h-7.6289c-35.398 0-64.168 28.77-64.168 64.168v210c0 35.398 28.77 64.168 64.168 64.168h210c29.285 0 53.762-19.809 61.438-46.668h8.5625c35.398 0 64.168-28.77 64.168-64.168v-210c0-48.23-39.27-87.5-87.5-87.5zm-46.668 373.33-210 0.003907c-16.078 0-29.168-13.09-29.168-29.168v-210c0-16.078 13.09-29.168 29.168-29.168h210c16.078 0 29.168 13.09 29.168 29.168v210c0 16.078-13.09 29.168-29.168 29.168zm99.168-75.832c0 16.078-13.09 29.168-29.168 29.168h-5.832v-192.5c0-35.398-28.77-64.168-64.168-64.168h-167.37v-5.832c0-16.078 13.09-29.168 29.168-29.168h184.87c28.934 0 52.5 23.566 52.5 52.5z"/>
</svg>
