<svg width="55" height="55" viewBox="0 0 55 55" fill="none" xmlns="http://www.w3.org/2000/svg">
<g clip-path="url(#clip0_512_6380)">
<path d="M41.9803 43.2865C34.8166 43.2865 23.2531 35.3987 18.5783 30.7246H18.578C14.6973 26.5965 11.4449 21.9203 8.92507 16.8458C6.59513 12.229 4.58339 6.10754 7.47803 3.08277C9.77904 0.839301 11.704 -0.0867223 13.5853 0.0868491C16.1615 0.405364 18.0282 2.8221 19.6491 5.39829C21.4553 8.44242 21.6292 12.1859 20.1122 15.3844C19.7163 16.3008 19.8202 17.3564 20.3874 18.1779C21.8585 20.2574 23.5204 22.1953 25.3514 23.9666C27.1229 25.8014 29.0609 27.4682 31.1401 28.945C31.9582 29.507 33.0069 29.6106 33.919 29.2201C37.1222 27.7035 40.8697 27.8767 43.919 29.6833C46.4807 31.3042 48.9119 33.1565 49.2015 35.7471C49.404 37.6284 48.4636 39.5533 46.3071 41.782C45.1328 42.8574 43.5676 43.402 41.9799 43.2872L41.9803 43.2865ZM13.0787 2.86523C11.6606 3.13342 10.3893 3.91059 9.50394 5.05053C8.05659 6.49788 8.79489 10.4053 11.3707 15.6152H11.371C13.7609 20.4156 16.8373 24.8423 20.5032 28.7558C26.8855 35.1526 41.0247 43.011 44.2231 39.798C45.7862 38.2349 46.4952 37.0049 46.394 36.0352C46.2927 35.0655 45.0334 33.6763 42.3852 32.012H42.3849C40.1159 30.6813 37.3275 30.5888 34.9753 31.7661C33.1959 32.53 31.1495 32.3336 29.5481 31.2451C27.3393 29.6613 25.2806 27.8785 23.3972 25.9193C21.443 24.0193 19.6654 21.9461 18.0858 19.7249C17.0064 18.1122 16.8262 16.0597 17.6082 14.2833C18.7813 11.9287 18.6831 9.14038 17.3478 6.87369C15.6257 4.23965 14.3953 2.98037 13.2665 2.87916L13.0787 2.86523Z" fill="#0277B4"/>
</g>
<defs>
<clipPath id="clip0_512_6380">
<rect width="54" height="54" fill="white" transform="translate(0.630859 0.0859375)"/>
</clipPath>
</defs>
</svg>
