<svg width="30" height="30" viewBox="0 0 30 30" fill="none" xmlns="http://www.w3.org/2000/svg">
<path d="M26.8552 15.2436V18.0209V22.2169C26.8552 22.682 26.8685 23.1471 26.8083 23.6089C26.825 23.4918 26.8418 23.3713 26.8552 23.2542C26.7916 23.7026 26.6745 24.1343 26.5005 24.5525C26.544 24.4455 26.5908 24.3384 26.6343 24.2313C26.4603 24.6362 26.2395 25.0177 25.9718 25.3656C26.042 25.2753 26.1123 25.185 26.1826 25.0946C25.9149 25.4393 25.6037 25.7505 25.259 26.0182C25.3494 25.9479 25.4397 25.8776 25.5301 25.8073C25.1787 26.075 24.8006 26.2992 24.3957 26.4699C24.5028 26.4264 24.6099 26.3795 24.717 26.336C24.3021 26.51 23.867 26.6271 23.4187 26.6907C23.5358 26.674 23.6562 26.6573 23.7734 26.6439C23.074 26.7342 22.3445 26.6907 21.6419 26.6907H17.6399H12.7278H8.53848C7.92949 26.6907 7.32051 26.6941 6.71483 26.6907C6.4806 26.6907 6.24971 26.674 6.01883 26.6439C6.13595 26.6606 6.25641 26.6773 6.37352 26.6907C5.92514 26.6271 5.49348 26.51 5.07521 26.336C5.18229 26.3795 5.28936 26.4264 5.39644 26.4699C4.99156 26.2959 4.61007 26.075 4.26211 25.8073C4.35246 25.8776 4.4428 25.9479 4.53315 26.0182C4.1885 25.7505 3.87729 25.4393 3.6096 25.0946C3.67987 25.185 3.75014 25.2753 3.82041 25.3656C3.55272 25.0143 3.32852 24.6362 3.15788 24.2313C3.20138 24.3384 3.24823 24.4455 3.29173 24.5525C3.11773 24.1376 3.00061 23.7026 2.93704 23.2542C2.95377 23.3713 2.9705 23.4918 2.98388 23.6089C2.89354 22.9096 2.93704 22.1801 2.93704 21.4774V17.4755V12.5634V8.37404C2.93704 7.76505 2.93369 7.15607 2.93704 6.55039C2.93704 6.31616 2.95377 6.08528 2.98388 5.85439C2.96715 5.97151 2.95042 6.09197 2.93704 6.20909C3.00061 5.76071 3.11773 5.32904 3.29173 4.91078C3.24823 5.01785 3.20138 5.12493 3.15788 5.232C3.33188 4.82712 3.55272 4.44564 3.82041 4.09767C3.75014 4.18802 3.67987 4.27836 3.6096 4.36871C3.87729 4.02406 4.18848 3.71285 4.53315 3.44516C4.4428 3.51543 4.35246 3.5857 4.26211 3.65597C4.61345 3.38828 4.99157 3.16409 5.39644 2.99344C5.28936 3.03694 5.18229 3.08379 5.07521 3.12729C5.49013 2.95329 5.92515 2.83618 6.37352 2.7726C6.25641 2.78933 6.13595 2.80606 6.01883 2.81945C6.42371 2.76591 6.83194 2.7726 7.24017 2.7726H9.01696H13.3569H14.3841C15.0835 2.7726 15.7561 2.15694 15.7226 1.43415C15.6891 0.708055 15.1337 0.0957031 14.3841 0.0957031H11.8478H7.74208H6.74493C5.70764 0.0957031 4.71385 0.343318 3.78694 0.798366C1.62872 1.84906 0.263475 4.16459 0.25344 6.54363C0.250094 7.01208 0.25344 7.48051 0.25344 7.95232V11.4055V15.7488V19.8243V22.4778V22.9128C0.256786 24.0371 0.551246 25.158 1.11341 26.1351C2.25441 28.1227 4.4294 29.3608 6.71483 29.3708C7.23348 29.3742 7.75211 29.3708 8.27079 29.3708H11.8043H16.1609H20.1863H22.726C22.8733 29.3708 23.0238 29.3742 23.1711 29.3708C24.3656 29.3474 25.5803 29.0027 26.5774 28.3402C27.5478 27.6977 28.3843 26.8077 28.8762 25.7469C29.2978 24.8368 29.532 23.8832 29.532 22.876V19.8979V15.9461V15.2468C29.532 14.5474 28.9164 13.8749 28.1936 13.9083C27.4675 13.9384 26.8551 14.4939 26.8551 15.2434L26.8552 15.2436Z" fill="#0277B4"/>
<path d="M20.7654 2.76479H23.2783H27.2803H28.1938C28.8932 2.76479 29.5657 2.14913 29.5322 1.42634C29.4988 0.700242 28.9433 0.0878906 28.1938 0.0878906H25.6809H21.6789H20.7654C20.0661 0.0878906 19.3935 0.703546 19.427 1.42634C19.4604 2.15244 20.0159 2.76479 20.7654 2.76479Z" fill="#0277B4"/>
<path d="M29.5324 8.85396V6.34104V2.3391V1.42558C29.5324 0.726227 28.9167 0.0536678 28.1939 0.0871366C27.4678 0.120598 26.8555 0.676054 26.8555 1.42558V3.9385V7.94045V8.85396C26.8555 9.55332 27.4711 10.2259 28.1939 10.1924C28.92 10.1589 29.5324 9.60349 29.5324 8.85396Z" fill="#0277B4"/>
<path d="M15.8652 15.6465C16.3069 15.2048 16.7519 14.7598 17.1936 14.3181C18.2476 13.264 19.305 12.2066 20.359 11.1526C21.6339 9.87777 22.9088 8.60289 24.1869 7.32471C25.2945 6.21712 26.3987 5.11296 27.5063 4.00536C28.0417 3.46998 28.5871 2.93797 29.1158 2.39586C29.1225 2.38917 29.1292 2.38248 29.1392 2.37244C29.6344 1.87721 29.6712 0.967051 29.1392 0.47854C28.6038 -0.0133417 27.774 -0.0501452 27.2453 0.47854C26.8036 0.920231 26.3586 1.36525 25.9169 1.80695C24.8628 2.86101 23.8055 3.91837 22.7515 4.97236C21.4766 6.24724 20.2017 7.52211 18.9236 8.80029C17.816 9.90788 16.7118 11.0121 15.6042 12.1196C15.0688 12.655 14.5234 13.187 13.9947 13.7291C13.988 13.7358 13.9813 13.7425 13.9713 13.7526C13.4761 14.2478 13.4393 15.158 13.9713 15.6465C14.5067 16.135 15.3365 16.1752 15.8652 15.6465Z" fill="#0277B4"/>
</svg>
