<svg width="665" height="665" viewBox="0 0 665 665" fill="none" xmlns="http://www.w3.org/2000/svg">
<path d="M39.6213 0.00429281C17.876 0.00429281 0.0120036 17.8643 0.0120036 39.603V221.203C0.0120036 231.818 8.84533 240.615 19.424 240.615C30.0385 240.615 38.836 231.818 38.836 221.203V39.603C38.836 39.0873 39.0912 38.8686 39.5704 38.8686H624.81C625.3 38.8686 625.545 39.103 625.545 39.603V624.803C625.545 625.319 625.29 625.537 624.81 625.537H443.157C432.496 625.537 423.745 634.418 423.745 644.996C423.745 655.611 432.542 664.408 443.157 664.408H624.81C646.556 664.408 664.42 646.548 664.42 624.799V39.5987C664.42 17.8533 646.56 0 624.81 0L39.6213 0.00429281ZM382.648 100.911C372.034 100.911 363.236 109.744 363.236 120.323C363.236 130.937 372.033 139.735 382.648 139.735H497.169L374.576 262.328H39.5627C17.8493 262.365 0 280.203 0 301.938V624.818C0 646.563 17.86 664.427 39.6093 664.427H362.489C384.235 664.427 402.099 646.567 402.099 624.818V289.804L524.692 167.211V281.732C524.692 292.347 533.525 301.144 544.104 301.144C554.719 301.144 563.516 292.347 563.516 281.732V120.306C563.516 109.691 554.683 100.894 544.104 100.894L382.648 100.911ZM39.6213 301.204H363.235V624.818C363.235 625.333 362.979 625.552 362.5 625.552H39.6203C39.1307 625.552 38.8859 625.318 38.8859 624.818V301.938C38.8859 301.422 39.1411 301.203 39.6203 301.203L39.6213 301.204Z" fill="#A1A1AA"/>
</svg>
