<svg width="919" height="788" viewBox="0 0 919 788" fill="none" xmlns="http://www.w3.org/2000/svg">
<path d="M0.5 0.500954C35.0061 0.632691 68.0702 14.3971 92.4792 38.8062C117.007 63.3333 130.786 96.5994 130.786 131.286V656.429C130.786 691.113 117.007 724.378 92.4792 748.907C68.0702 773.318 35.0061 787.082 0.5 787.213V0.500954Z" fill="black" stroke="black"/>
<path d="M918.499 196.429H393.856C359.17 196.429 325.904 182.65 301.377 158.122C276.967 133.713 263.203 100.649 263.071 66.1429H918.499V196.429Z" fill="black" stroke="black"/>
<path d="M918.499 721.572H393.856C359.17 721.572 325.904 707.793 301.377 683.264C276.967 658.853 263.203 625.792 263.071 591.286H918.499V721.572Z" fill="black" stroke="black"/>
<path d="M918.499 459H393.856C359.17 459 325.904 445.221 301.377 420.694L301.023 421.047L301.377 420.694C276.967 396.285 263.203 363.22 263.071 328.714H918.499V459Z" fill="black" stroke="black"/>
</svg>
