<svg width="40" height="40" viewBox="0 0 40 40" fill="none" xmlns="http://www.w3.org/2000/svg">
<path d="M9.33945 34C8.43425 34 7.65138 33.6697 6.99083 33.0092C6.33028 32.3486 6 31.5658 6 30.6606V9.37615C6 8.44648 6.33028 7.65138 6.99083 6.99083C7.65138 6.33028 8.43425 6 9.33945 6H19.1376V9.37615H9.33945V30.6606H30.6239V20.8624H34V30.6606C34 31.5658 33.6697 32.3486 33.0092 33.0092C32.3486 33.6697 31.5535 34 30.6239 34H9.33945ZM17.2661 25.0826L14.9541 22.7339L28.3119 9.37615H21.3395V6H34V18.6606H30.6239V11.7248L17.2661 25.0826Z" fill="#60A5FA"/>
</svg>
