<svg width="367" height="665" viewBox="0 0 367 665" fill="none" xmlns="http://www.w3.org/2000/svg">
<path fill-rule="evenodd" clip-rule="evenodd" d="M0 88.6041C0 84.526 0.156252 81.2187 4.224 81.2187V36.912C4.224 16.5267 20.5733 0 40.76 0H326.387C346.564 0 362.923 16.5933 362.923 36.912L362.949 132.907C366.975 132.907 366.454 136.271 366.454 140.256V236.725C366.454 240.787 367.011 244.079 362.923 244.079V627.626C362.923 648.011 346.573 664.538 326.387 664.538H40.76C20.5827 664.538 4.22404 647.944 4.22404 627.626V287.972C0.18244 287.972 4.06901e-05 284.608 4.06901e-05 280.623V221.483C4.06901e-05 217.426 0.156293 214.135 4.22404 214.135L4.198 206.754C0.171998 206.754 0.00012207 203.39 0.00012207 199.4V140.264C0.00012207 136.207 0.135534 132.915 4.22412 132.915V118.15C0.182521 118.15 0.00012207 114.869 0.00012207 110.764L0 88.6041ZM86.5467 11.1975H45.4373C28.9426 11.1975 15.5733 24.5721 15.5733 41.0668V623.467C15.5733 639.961 28.9426 653.336 45.4373 653.336H321.704C338.199 653.336 351.568 639.961 351.568 623.467V41.0668C351.568 24.5721 338.199 11.1975 321.704 11.1975H280.683C275.724 11.1975 275.287 16.3433 274.709 18.7235C271.646 31.3849 260.891 40.1141 248.094 40.1141H119.042C104.99 40.1141 93.3913 29.5777 91.7247 15.9741C91.5892 14.8648 91.834 11.1981 86.5424 11.1981L86.5467 11.1975Z" fill="black"/>
</svg>
