<svg width="115" height="115" viewBox="0 0 115 115" fill="none" xmlns="http://www.w3.org/2000/svg">
<circle cx="57.5" cy="57.5" r="57.5" fill="#A8ACB3"/>
<circle cx="57.5" cy="58.75" r="47.5" fill="white"/>
<path fill-rule="evenodd" clip-rule="evenodd" d="M42.1185 9.62851C32.431 12.7273 27.441 16.0435 19.3985 24.7298C-1.41399 47.2098 3.05976 83.7435 28.7235 100.881C39.156 107.849 47.651 110.157 60.391 109.489C79.4748 108.487 95.6623 97.541 103.957 80.031C107.657 72.2198 107.949 70.6473 107.949 58.4798C107.949 44.3423 106.29 38.7898 98.8273 27.9435C87.571 11.5835 61.9148 3.29726 42.1185 9.62851ZM65.6035 29.8048C75.1398 34.421 78.6673 46.8023 72.9373 55.5473C67.921 63.2023 55.646 65.8773 47.716 61.0423C38.036 55.1398 36.391 40.9248 44.491 33.1798C51.131 26.8298 57.391 25.8298 65.6035 29.8048ZM68.6435 71.6298C75.5385 74.0623 81.5298 78.6548 86.1773 85.071L89.8598 90.1548L87.0298 93.2323C83.0273 97.5823 70.6523 103.196 62.9423 104.16C51.4035 105.601 34.0448 100.216 27.726 93.2335C25.6848 90.9785 25.6973 90.6223 27.966 86.4098C35.1185 73.1298 53.7285 66.3673 68.6435 71.6298Z" fill="#A8ACB3"/>
</svg>
