<svg width="40" height="40" viewBox="0 0 40 40" fill="none" xmlns="http://www.w3.org/2000/svg">
<path d="M32.25 34C29.087 34 25.9435 33.2222 22.8194 31.6667C19.6954 30.1111 16.8889 28.0889 14.4 25.6C11.9111 23.1111 9.88889 20.3046 8.33333 17.1806C6.77778 14.0565 6 10.913 6 7.75C6 7.25741 6.16852 6.84259 6.50556 6.50556C6.84259 6.16852 7.25741 6 7.75 6H13.1944C13.5574 6 13.875 6.12315 14.1472 6.36944C14.4194 6.61574 14.5944 6.9463 14.6722 7.36111L15.7222 12.2611C15.7741 12.6241 15.7676 12.9546 15.7028 13.2528C15.638 13.5509 15.5019 13.8037 15.2944 14.0111L11.4056 17.9389C12.8574 20.35 14.4843 22.45 16.2861 24.2389C18.088 26.0278 20.1296 27.5444 22.4111 28.7889L26.1056 24.9778C26.3648 24.6926 26.663 24.4917 27 24.375C27.337 24.2583 27.6741 24.2389 28.0111 24.3167L32.6389 25.3278C33.0278 25.4056 33.3519 25.6 33.6111 25.9111C33.8704 26.2222 34 26.5852 34 27V32.25C34 32.7426 33.8315 33.1574 33.4944 33.4944C33.1574 33.8315 32.7426 34 32.25 34Z" fill="#60A5FA"/>
</svg>
