<svg width="55" height="55" viewBox="0 0 55 55" fill="none" xmlns="http://www.w3.org/2000/svg">
<g clip-path="url(#clip0_504_6109)">
<path d="M27.7806 0L22.7296 4.72222L14.8724 3.05556L11.7857 10L5.05102 11.6667L5.89286 19.1667L0 24.4444L4.20918 30.2778L1.96429 36.9444L8.41837 41.1111L9.2602 48.3333H17.398L22.449 55L27.7806 50.5556L34.5153 54.4444L38.4439 48.3333H46.0204L47.1429 41.1111L53.5969 36.9444L51.0714 30.2778L55 24.4444L49.6684 19.1667L50.2296 11.6667L44.0561 10L40.4082 3.05556L33.1122 4.72222L27.7806 0Z" fill="#25D366"/>
<path d="M18.2397 26.9393L15.4336 30.3066L24.9744 39.0056L40.9693 19.6434L37.3214 16.5566L24.1326 32.2709L18.2397 26.9393Z" fill="white"/>
</g>
<defs>
<clipPath id="clip0_504_6109">
<rect width="55" height="55" fill="white"/>
</clipPath>
</defs>
</svg>
