<svg width="1440" height="1024" viewBox="0 0 1440 1024" fill="none" xmlns="http://www.w3.org/2000/svg">
<rect width="1440" height="1024" fill="white"/>
<path d="M1193.11 192.29H1190.98C1190.92 191.941 1190.81 191.633 1190.65 191.364C1190.48 191.091 1190.28 190.86 1190.04 190.67C1189.8 190.481 1189.52 190.339 1189.21 190.244C1188.9 190.146 1188.57 190.097 1188.22 190.097C1187.58 190.097 1187.02 190.256 1186.53 190.574C1186.05 190.888 1185.66 191.35 1185.39 191.96C1185.11 192.566 1184.97 193.307 1184.97 194.182C1184.97 195.072 1185.11 195.822 1185.39 196.432C1185.67 197.038 1186.05 197.496 1186.53 197.807C1187.02 198.114 1187.58 198.267 1188.21 198.267C1188.56 198.267 1188.88 198.222 1189.19 198.131C1189.49 198.036 1189.77 197.898 1190.01 197.716C1190.26 197.534 1190.46 197.311 1190.63 197.045C1190.8 196.78 1190.92 196.477 1190.98 196.136L1193.11 196.148C1193.03 196.701 1192.86 197.22 1192.59 197.705C1192.33 198.189 1191.99 198.617 1191.56 198.989C1191.14 199.356 1190.64 199.644 1190.07 199.852C1189.51 200.057 1188.88 200.159 1188.18 200.159C1187.16 200.159 1186.25 199.922 1185.44 199.449C1184.64 198.975 1184.01 198.292 1183.55 197.398C1183.08 196.504 1182.85 195.432 1182.85 194.182C1182.85 192.928 1183.09 191.856 1183.55 190.966C1184.02 190.072 1184.65 189.388 1185.45 188.915C1186.26 188.441 1187.17 188.205 1188.18 188.205C1188.83 188.205 1189.43 188.295 1189.99 188.477C1190.55 188.659 1191.04 188.926 1191.48 189.278C1191.91 189.627 1192.27 190.055 1192.55 190.562C1192.84 191.066 1193.02 191.642 1193.11 192.29ZM1194.95 200V191.273H1196.94V192.727H1197.03C1197.19 192.223 1197.46 191.835 1197.85 191.562C1198.24 191.286 1198.69 191.148 1199.19 191.148C1199.3 191.148 1199.43 191.153 1199.57 191.165C1199.71 191.172 1199.83 191.186 1199.92 191.205V193.097C1199.84 193.066 1199.7 193.04 1199.51 193.017C1199.32 192.991 1199.14 192.977 1198.97 192.977C1198.6 192.977 1198.26 193.059 1197.96 193.222C1197.66 193.381 1197.43 193.602 1197.26 193.886C1197.09 194.17 1197 194.498 1197 194.869V200H1194.95ZM1204.8 200.17C1203.92 200.17 1203.16 199.989 1202.53 199.625C1201.9 199.258 1201.41 198.739 1201.07 198.068C1200.73 197.394 1200.56 196.6 1200.56 195.688C1200.56 194.79 1200.73 194.002 1201.07 193.324C1201.41 192.642 1201.89 192.112 1202.51 191.733C1203.13 191.35 1203.85 191.159 1204.69 191.159C1205.23 191.159 1205.73 191.246 1206.21 191.42C1206.69 191.591 1207.12 191.856 1207.48 192.216C1207.85 192.576 1208.15 193.034 1208.36 193.591C1208.57 194.144 1208.68 194.803 1208.68 195.568V196.199H1201.52V194.812H1206.7C1206.7 194.419 1206.62 194.068 1206.45 193.761C1206.28 193.451 1206.05 193.206 1205.75 193.028C1205.45 192.85 1205.11 192.761 1204.72 192.761C1204.3 192.761 1203.93 192.864 1203.61 193.068C1203.29 193.269 1203.04 193.534 1202.86 193.864C1202.69 194.189 1202.6 194.547 1202.6 194.938V196.148C1202.6 196.655 1202.69 197.091 1202.88 197.455C1203.06 197.814 1203.32 198.091 1203.65 198.284C1203.99 198.473 1204.38 198.568 1204.82 198.568C1205.12 198.568 1205.39 198.527 1205.64 198.443C1205.88 198.356 1206.09 198.229 1206.27 198.062C1206.45 197.896 1206.58 197.689 1206.67 197.443L1208.59 197.659C1208.47 198.167 1208.24 198.61 1207.9 198.989C1207.56 199.364 1207.13 199.655 1206.6 199.864C1206.08 200.068 1205.47 200.17 1204.8 200.17ZM1212.93 200.176C1212.37 200.176 1211.88 200.078 1211.43 199.881C1210.99 199.68 1210.65 199.384 1210.39 198.994C1210.13 198.604 1210.01 198.123 1210.01 197.551C1210.01 197.059 1210.1 196.652 1210.28 196.33C1210.46 196.008 1210.71 195.75 1211.02 195.557C1211.34 195.364 1211.69 195.218 1212.09 195.119C1212.48 195.017 1212.9 194.943 1213.32 194.898C1213.83 194.845 1214.25 194.797 1214.56 194.756C1214.88 194.71 1215.11 194.642 1215.26 194.551C1215.4 194.456 1215.48 194.311 1215.48 194.114V194.08C1215.48 193.652 1215.35 193.32 1215.1 193.085C1214.84 192.85 1214.48 192.733 1214 192.733C1213.5 192.733 1213.1 192.843 1212.8 193.062C1212.51 193.282 1212.31 193.542 1212.21 193.841L1210.29 193.568C1210.44 193.038 1210.69 192.595 1211.04 192.239C1211.39 191.879 1211.82 191.61 1212.32 191.432C1212.82 191.25 1213.38 191.159 1213.99 191.159C1214.41 191.159 1214.83 191.208 1215.25 191.307C1215.66 191.405 1216.04 191.568 1216.39 191.795C1216.73 192.019 1217.01 192.324 1217.22 192.71C1217.43 193.097 1217.54 193.58 1217.54 194.159V200H1215.56V198.801H1215.49C1215.37 199.044 1215.19 199.271 1214.96 199.483C1214.74 199.691 1214.46 199.86 1214.12 199.989C1213.78 200.114 1213.38 200.176 1212.93 200.176ZM1213.46 198.665C1213.87 198.665 1214.23 198.583 1214.54 198.42C1214.84 198.254 1215.07 198.034 1215.23 197.761C1215.4 197.489 1215.48 197.191 1215.48 196.869V195.841C1215.42 195.894 1215.31 195.943 1215.15 195.989C1215 196.034 1214.83 196.074 1214.64 196.108C1214.45 196.142 1214.27 196.172 1214.08 196.199C1213.9 196.225 1213.73 196.248 1213.6 196.267C1213.29 196.309 1213.02 196.377 1212.77 196.472C1212.53 196.566 1212.34 196.699 1212.2 196.869C1212.06 197.036 1211.99 197.252 1211.99 197.517C1211.99 197.896 1212.13 198.182 1212.4 198.375C1212.68 198.568 1213.03 198.665 1213.46 198.665ZM1223.96 191.273V192.864H1218.94V191.273H1223.96ZM1220.18 189.182H1222.24V197.375C1222.24 197.652 1222.28 197.864 1222.37 198.011C1222.45 198.155 1222.57 198.254 1222.71 198.307C1222.85 198.36 1223 198.386 1223.17 198.386C1223.3 198.386 1223.42 198.377 1223.52 198.358C1223.63 198.339 1223.72 198.322 1223.77 198.307L1224.12 199.915C1224.01 199.953 1223.85 199.994 1223.65 200.04C1223.45 200.085 1223.2 200.112 1222.91 200.119C1222.4 200.134 1221.93 200.057 1221.52 199.886C1221.11 199.712 1220.78 199.443 1220.54 199.08C1220.3 198.716 1220.18 198.261 1220.18 197.716V189.182ZM1229.45 200.17C1228.58 200.17 1227.82 199.989 1227.18 199.625C1226.55 199.258 1226.07 198.739 1225.72 198.068C1225.38 197.394 1225.21 196.6 1225.21 195.688C1225.21 194.79 1225.38 194.002 1225.72 193.324C1226.07 192.642 1226.55 192.112 1227.17 191.733C1227.79 191.35 1228.51 191.159 1229.34 191.159C1229.88 191.159 1230.39 191.246 1230.87 191.42C1231.35 191.591 1231.77 191.856 1232.14 192.216C1232.51 192.576 1232.8 193.034 1233.01 193.591C1233.23 194.144 1233.33 194.803 1233.33 195.568V196.199H1226.18V194.812H1231.36C1231.36 194.419 1231.27 194.068 1231.11 193.761C1230.94 193.451 1230.71 193.206 1230.41 193.028C1230.11 192.85 1229.77 192.761 1229.37 192.761C1228.95 192.761 1228.58 192.864 1228.26 193.068C1227.95 193.269 1227.7 193.534 1227.52 193.864C1227.35 194.189 1227.26 194.547 1227.25 194.938V196.148C1227.25 196.655 1227.35 197.091 1227.53 197.455C1227.72 197.814 1227.98 198.091 1228.31 198.284C1228.64 198.473 1229.03 198.568 1229.48 198.568C1229.78 198.568 1230.05 198.527 1230.29 198.443C1230.54 198.356 1230.75 198.229 1230.92 198.062C1231.1 197.896 1231.24 197.689 1231.33 197.443L1233.25 197.659C1233.13 198.167 1232.89 198.61 1232.55 198.989C1232.22 199.364 1231.79 199.655 1231.26 199.864C1230.73 200.068 1230.13 200.17 1229.45 200.17ZM1248.69 188.364V200H1246.82L1241.34 192.074H1241.24V200H1239.13V188.364H1241.02L1246.5 196.295H1246.6V188.364H1248.69ZM1254.76 200.17C1253.89 200.17 1253.13 199.989 1252.5 199.625C1251.86 199.258 1251.38 198.739 1251.04 198.068C1250.7 197.394 1250.53 196.6 1250.53 195.688C1250.53 194.79 1250.7 194.002 1251.04 193.324C1251.38 192.642 1251.86 192.112 1252.48 191.733C1253.1 191.35 1253.82 191.159 1254.66 191.159C1255.19 191.159 1255.7 191.246 1256.18 191.42C1256.66 191.591 1257.08 191.856 1257.45 192.216C1257.82 192.576 1258.11 193.034 1258.33 193.591C1258.54 194.144 1258.64 194.803 1258.64 195.568V196.199H1251.49V194.812H1256.67C1256.67 194.419 1256.58 194.068 1256.42 193.761C1256.25 193.451 1256.02 193.206 1255.72 193.028C1255.42 192.85 1255.08 192.761 1254.68 192.761C1254.26 192.761 1253.89 192.864 1253.58 193.068C1253.26 193.269 1253.01 193.534 1252.83 193.864C1252.66 194.189 1252.57 194.547 1252.57 194.938V196.148C1252.57 196.655 1252.66 197.091 1252.84 197.455C1253.03 197.814 1253.29 198.091 1253.62 198.284C1253.96 198.473 1254.35 198.568 1254.79 198.568C1255.09 198.568 1255.36 198.527 1255.61 198.443C1255.85 198.356 1256.06 198.229 1256.24 198.062C1256.41 197.896 1256.55 197.689 1256.64 197.443L1258.56 197.659C1258.44 198.167 1258.21 198.61 1257.87 198.989C1257.53 199.364 1257.1 199.655 1256.57 199.864C1256.04 200.068 1255.44 200.17 1254.76 200.17ZM1262.14 200L1259.67 191.273H1261.77L1263.3 197.409H1263.38L1264.95 191.273H1267.03L1268.59 197.375H1268.68L1270.19 191.273H1272.29L1269.82 200H1267.68L1266.04 194.102H1265.92L1264.29 200H1262.14ZM1277.79 200V188.364H1282.24C1283.08 188.364 1283.78 188.496 1284.34 188.761C1284.9 189.023 1285.32 189.381 1285.6 189.835C1285.88 190.29 1286.02 190.805 1286.02 191.381C1286.02 191.854 1285.92 192.259 1285.74 192.597C1285.56 192.93 1285.32 193.201 1285.01 193.409C1284.7 193.617 1284.36 193.767 1283.98 193.858V193.972C1284.39 193.994 1284.79 194.121 1285.17 194.352C1285.55 194.58 1285.86 194.902 1286.11 195.318C1286.35 195.735 1286.47 196.239 1286.47 196.83C1286.47 197.432 1286.32 197.973 1286.03 198.455C1285.74 198.932 1285.3 199.309 1284.71 199.585C1284.13 199.862 1283.39 200 1282.5 200H1277.79ZM1279.9 198.239H1282.16C1282.93 198.239 1283.48 198.093 1283.82 197.801C1284.16 197.506 1284.33 197.127 1284.33 196.665C1284.33 196.32 1284.24 196.009 1284.07 195.733C1283.9 195.453 1283.66 195.233 1283.35 195.074C1283.03 194.911 1282.66 194.83 1282.22 194.83H1279.9V198.239ZM1279.9 193.312H1281.98C1282.35 193.312 1282.67 193.246 1282.96 193.114C1283.26 192.977 1283.49 192.786 1283.65 192.54C1283.82 192.29 1283.91 191.994 1283.91 191.653C1283.91 191.203 1283.75 190.831 1283.43 190.54C1283.12 190.248 1282.65 190.102 1282.03 190.102H1279.9V193.312ZM1292.02 200.17C1291.17 200.17 1290.43 199.983 1289.8 199.608C1289.18 199.233 1288.69 198.708 1288.35 198.034C1288.01 197.36 1287.84 196.572 1287.84 195.67C1287.84 194.769 1288.01 193.979 1288.35 193.301C1288.69 192.623 1289.18 192.097 1289.8 191.722C1290.43 191.347 1291.17 191.159 1292.02 191.159C1292.87 191.159 1293.61 191.347 1294.24 191.722C1294.86 192.097 1295.34 192.623 1295.68 193.301C1296.03 193.979 1296.2 194.769 1296.2 195.67C1296.2 196.572 1296.03 197.36 1295.68 198.034C1295.34 198.708 1294.86 199.233 1294.24 199.608C1293.61 199.983 1292.87 200.17 1292.02 200.17ZM1292.03 198.523C1292.49 198.523 1292.88 198.396 1293.19 198.142C1293.5 197.884 1293.73 197.54 1293.88 197.108C1294.04 196.676 1294.12 196.195 1294.12 195.665C1294.12 195.131 1294.04 194.648 1293.88 194.216C1293.73 193.78 1293.5 193.434 1293.19 193.176C1292.88 192.919 1292.49 192.79 1292.03 192.79C1291.56 192.79 1291.16 192.919 1290.85 193.176C1290.54 193.434 1290.31 193.78 1290.15 194.216C1290 194.648 1289.92 195.131 1289.92 195.665C1289.92 196.195 1290 196.676 1290.15 197.108C1290.31 197.54 1290.54 197.884 1290.85 198.142C1291.16 198.396 1291.56 198.523 1292.03 198.523ZM1302.31 191.273V192.864H1297.29V191.273H1302.31ZM1298.53 189.182H1300.58V197.375C1300.58 197.652 1300.63 197.864 1300.71 198.011C1300.8 198.155 1300.91 198.254 1301.05 198.307C1301.19 198.36 1301.35 198.386 1301.52 198.386C1301.64 198.386 1301.76 198.377 1301.87 198.358C1301.98 198.339 1302.06 198.322 1302.12 198.307L1302.46 199.915C1302.35 199.953 1302.2 199.994 1301.99 200.04C1301.79 200.085 1301.55 200.112 1301.25 200.119C1300.74 200.134 1300.28 200.057 1299.86 199.886C1299.45 199.712 1299.12 199.443 1298.88 199.08C1298.64 198.716 1298.52 198.261 1298.53 197.716V189.182Z" fill="white"/>
<path d="M201 129H1271V524C1271 535.046 1262.05 544 1251 544H221C209.954 544 201 535.046 201 524V129Z" fill="#D9D9D9"/>
<path d="M354.267 345.189L354.272 345.191C354.247 345.183 354.244 345.18 354.267 345.189Z" fill="#E05644"/>
<path d="M354.381 345.243C354.406 345.256 354.436 345.272 354.47 345.291C354.626 345.377 354.8 345.485 354.98 345.6C355.096 345.777 355.203 345.948 355.29 346.102L355.327 346.169L354.504 364.862L363.238 364.937C363.6 364.94 363.946 365.087 364.197 365.344C364.717 365.875 364.703 366.723 364.167 367.237L347.498 383.223L347.47 383.252C347.353 383.374 347.249 383.428 347.023 383.428C346.796 383.428 346.692 383.373 346.576 383.252L346.553 383.228L330.111 367.227C329.856 366.979 329.71 366.64 329.707 366.285C329.7 365.545 330.3 364.941 331.046 364.934L339.115 364.861L338.244 345.938C338.249 345.776 338.297 345.652 338.457 345.493L354.381 345.243Z" fill="#E05644"/>
<path d="M355.393 346.304C355.402 346.326 355.399 346.323 355.391 346.299L355.393 346.304Z" fill="#E05644"/>
<path d="M342.687 379.467L346.552 383.228L346.575 383.252C346.691 383.373 346.795 383.428 347.022 383.428C347.249 383.428 347.353 383.374 347.469 383.252L347.497 383.223L351.414 379.467H342.687Z" fill="#E05644"/>
<path fill-rule="evenodd" clip-rule="evenodd" d="M299.166 289.25C295.733 289.25 292.95 292.007 292.95 295.407V377.593C292.95 380.993 295.733 383.75 299.166 383.75H367.543C370.976 383.75 373.759 380.993 373.759 377.593V316.745C373.759 314.714 373.073 312.742 371.811 311.141L363.623 300.761L355.361 292.101C353.625 290.281 351.209 289.25 348.682 289.25H299.166ZM297.274 295.407C297.274 294.372 298.121 293.533 299.166 293.533H348.682C350.02 293.533 351.299 294.079 352.218 295.043L360.34 303.557L368.403 313.779C369.072 314.626 369.435 315.67 369.435 316.745V377.593C369.435 378.628 368.588 379.467 367.543 379.467H356.853L352.461 383.679H341.616L337.288 379.467H299.166C298.121 379.467 297.274 378.628 297.274 377.593V295.407Z" fill="#E05644"/>
<path fill-rule="evenodd" clip-rule="evenodd" d="M339.706 290.924C345.151 292.783 348.155 295.387 348.718 298.734C349.196 301.576 349.065 304.954 348.326 308.869V308.869C348.106 310.031 348.879 311.15 350.053 311.368C350.067 311.37 350.081 311.373 350.095 311.375L373.219 315.193L368.431 308.498L346.465 289.25L339.706 290.924Z" fill="#E05644"/>
<path d="M324.031 309.5H281.6V329.578H324.031V309.5Z" fill="#E05644"/>
<path d="M286.747 325.335V312.875H291.71C292.664 312.875 293.477 313.055 294.149 313.416C294.82 313.773 295.332 314.27 295.684 314.907C296.04 315.54 296.219 316.27 296.219 317.097C296.219 317.925 296.038 318.655 295.678 319.288C295.318 319.921 294.796 320.413 294.112 320.766C293.432 321.119 292.609 321.296 291.643 321.296H288.479V319.184H291.213C291.724 319.184 292.146 319.097 292.478 318.923C292.814 318.744 293.063 318.499 293.227 318.187C293.395 317.87 293.479 317.507 293.479 317.097C293.479 316.684 293.395 316.323 293.227 316.014C293.063 315.702 292.814 315.461 292.478 315.29C292.142 315.116 291.716 315.029 291.2 315.029H289.407V325.335H286.747Z" fill="white"/>
<path d="M302.405 325.335H297.946V312.875H302.442C303.708 312.875 304.797 313.124 305.71 313.623C306.623 314.118 307.325 314.83 307.817 315.759C308.312 316.688 308.56 317.799 308.56 319.093C308.56 320.391 308.312 321.506 307.817 322.439C307.325 323.372 306.619 324.088 305.698 324.587C304.78 325.086 303.683 325.335 302.405 325.335ZM300.606 323.078H302.295C303.081 323.078 303.742 322.94 304.279 322.664C304.819 322.385 305.225 321.953 305.495 321.369C305.769 320.78 305.907 320.022 305.907 319.093C305.907 318.172 305.769 317.42 305.495 316.836C305.225 316.252 304.821 315.822 304.285 315.546C303.749 315.27 303.087 315.132 302.301 315.132H300.606V323.078Z" fill="white"/>
<path d="M310.53 325.335V312.875H318.859V315.047H313.19V318.016H318.306V320.188H313.19V325.335H310.53Z" fill="white"/>
<rect x="464" y="296" width="714" height="12" rx="6" fill="#6B6363"/>
<rect x="464" y="296" width="714" height="12" rx="6" fill="#6B6363"/>
<rect x="464" y="296" width="714" height="12" rx="6" fill="#6B6363"/>
<rect x="468" y="364" width="142" height="12" rx="6" fill="#6B6363"/>
<rect x="468" y="364" width="142" height="12" rx="6" fill="#6B6363"/>
<rect x="468" y="364" width="142" height="12" rx="6" fill="#6B6363"/>
<rect x="205" y="599" width="735" height="9" rx="4.5" fill="#D9D9D9"/>
<rect x="205" y="630" width="412" height="9" rx="4.5" fill="#D9D9D9"/>
<rect x="205" y="661" width="525" height="9" rx="4.5" fill="#D9D9D9"/>
<rect x="201" y="743" width="735" height="9" rx="4.5" fill="#D9D9D9"/>
<rect x="201" y="774" width="412" height="9" rx="4.5" fill="#D9D9D9"/>
<rect x="201" y="805" width="525" height="9" rx="4.5" fill="#D9D9D9"/>
<rect x="205" y="935" width="246" height="9" rx="4.5" fill="#D9D9D9"/>
</svg>
