<svg width="1440" height="1024" viewBox="0 0 1440 1024" fill="none" xmlns="http://www.w3.org/2000/svg">
<rect width="1440" height="1024" fill="white"/>
<path d="M1193.11 192.29H1190.98C1190.92 191.941 1190.81 191.633 1190.65 191.364C1190.48 191.091 1190.28 190.86 1190.04 190.67C1189.8 190.481 1189.52 190.339 1189.21 190.244C1188.9 190.146 1188.57 190.097 1188.22 190.097C1187.58 190.097 1187.02 190.256 1186.53 190.574C1186.05 190.888 1185.66 191.35 1185.39 191.96C1185.11 192.566 1184.97 193.307 1184.97 194.182C1184.97 195.072 1185.11 195.822 1185.39 196.432C1185.67 197.038 1186.05 197.496 1186.53 197.807C1187.02 198.114 1187.58 198.267 1188.21 198.267C1188.56 198.267 1188.88 198.222 1189.19 198.131C1189.49 198.036 1189.77 197.898 1190.01 197.716C1190.26 197.534 1190.46 197.311 1190.63 197.045C1190.8 196.78 1190.92 196.477 1190.98 196.136L1193.11 196.148C1193.03 196.701 1192.86 197.22 1192.59 197.705C1192.33 198.189 1191.99 198.617 1191.56 198.989C1191.14 199.356 1190.64 199.644 1190.07 199.852C1189.51 200.057 1188.88 200.159 1188.18 200.159C1187.16 200.159 1186.25 199.922 1185.44 199.449C1184.64 198.975 1184.01 198.292 1183.55 197.398C1183.08 196.504 1182.85 195.432 1182.85 194.182C1182.85 192.928 1183.09 191.856 1183.55 190.966C1184.02 190.072 1184.65 189.388 1185.45 188.915C1186.26 188.441 1187.17 188.205 1188.18 188.205C1188.83 188.205 1189.43 188.295 1189.99 188.477C1190.55 188.659 1191.04 188.926 1191.48 189.278C1191.91 189.627 1192.27 190.055 1192.55 190.562C1192.84 191.066 1193.02 191.642 1193.11 192.29ZM1194.95 200V191.273H1196.94V192.727H1197.03C1197.19 192.223 1197.46 191.835 1197.85 191.562C1198.24 191.286 1198.69 191.148 1199.19 191.148C1199.3 191.148 1199.43 191.153 1199.57 191.165C1199.71 191.172 1199.83 191.186 1199.92 191.205V193.097C1199.84 193.066 1199.7 193.04 1199.51 193.017C1199.32 192.991 1199.14 192.977 1198.97 192.977C1198.6 192.977 1198.26 193.059 1197.96 193.222C1197.66 193.381 1197.43 193.602 1197.26 193.886C1197.09 194.17 1197 194.498 1197 194.869V200H1194.95ZM1204.8 200.17C1203.92 200.17 1203.16 199.989 1202.53 199.625C1201.9 199.258 1201.41 198.739 1201.07 198.068C1200.73 197.394 1200.56 196.6 1200.56 195.688C1200.56 194.79 1200.73 194.002 1201.07 193.324C1201.41 192.642 1201.89 192.112 1202.51 191.733C1203.13 191.35 1203.85 191.159 1204.69 191.159C1205.23 191.159 1205.73 191.246 1206.21 191.42C1206.69 191.591 1207.12 191.856 1207.48 192.216C1207.85 192.576 1208.15 193.034 1208.36 193.591C1208.57 194.144 1208.68 194.803 1208.68 195.568V196.199H1201.52V194.812H1206.7C1206.7 194.419 1206.62 194.068 1206.45 193.761C1206.28 193.451 1206.05 193.206 1205.75 193.028C1205.45 192.85 1205.11 192.761 1204.72 192.761C1204.3 192.761 1203.93 192.864 1203.61 193.068C1203.29 193.269 1203.04 193.534 1202.86 193.864C1202.69 194.189 1202.6 194.547 1202.6 194.938V196.148C1202.6 196.655 1202.69 197.091 1202.88 197.455C1203.06 197.814 1203.32 198.091 1203.65 198.284C1203.99 198.473 1204.38 198.568 1204.82 198.568C1205.12 198.568 1205.39 198.527 1205.64 198.443C1205.88 198.356 1206.09 198.229 1206.27 198.062C1206.45 197.896 1206.58 197.689 1206.67 197.443L1208.59 197.659C1208.47 198.167 1208.24 198.61 1207.9 198.989C1207.56 199.364 1207.13 199.655 1206.6 199.864C1206.08 200.068 1205.47 200.17 1204.8 200.17ZM1212.93 200.176C1212.37 200.176 1211.88 200.078 1211.43 199.881C1210.99 199.68 1210.65 199.384 1210.39 198.994C1210.13 198.604 1210.01 198.123 1210.01 197.551C1210.01 197.059 1210.1 196.652 1210.28 196.33C1210.46 196.008 1210.71 195.75 1211.02 195.557C1211.34 195.364 1211.69 195.218 1212.09 195.119C1212.48 195.017 1212.9 194.943 1213.32 194.898C1213.83 194.845 1214.25 194.797 1214.56 194.756C1214.88 194.71 1215.11 194.642 1215.26 194.551C1215.4 194.456 1215.48 194.311 1215.48 194.114V194.08C1215.48 193.652 1215.35 193.32 1215.1 193.085C1214.84 192.85 1214.48 192.733 1214 192.733C1213.5 192.733 1213.1 192.843 1212.8 193.062C1212.51 193.282 1212.31 193.542 1212.21 193.841L1210.29 193.568C1210.44 193.038 1210.69 192.595 1211.04 192.239C1211.39 191.879 1211.82 191.61 1212.32 191.432C1212.82 191.25 1213.38 191.159 1213.99 191.159C1214.41 191.159 1214.83 191.208 1215.25 191.307C1215.66 191.405 1216.04 191.568 1216.39 191.795C1216.73 192.019 1217.01 192.324 1217.22 192.71C1217.43 193.097 1217.54 193.58 1217.54 194.159V200H1215.56V198.801H1215.49C1215.37 199.044 1215.19 199.271 1214.96 199.483C1214.74 199.691 1214.46 199.86 1214.12 199.989C1213.78 200.114 1213.38 200.176 1212.93 200.176ZM1213.46 198.665C1213.87 198.665 1214.23 198.583 1214.54 198.42C1214.84 198.254 1215.07 198.034 1215.23 197.761C1215.4 197.489 1215.48 197.191 1215.48 196.869V195.841C1215.42 195.894 1215.31 195.943 1215.15 195.989C1215 196.034 1214.83 196.074 1214.64 196.108C1214.45 196.142 1214.27 196.172 1214.08 196.199C1213.9 196.225 1213.73 196.248 1213.6 196.267C1213.29 196.309 1213.02 196.377 1212.77 196.472C1212.53 196.566 1212.34 196.699 1212.2 196.869C1212.06 197.036 1211.99 197.252 1211.99 197.517C1211.99 197.896 1212.13 198.182 1212.4 198.375C1212.68 198.568 1213.03 198.665 1213.46 198.665ZM1223.96 191.273V192.864H1218.94V191.273H1223.96ZM1220.18 189.182H1222.24V197.375C1222.24 197.652 1222.28 197.864 1222.37 198.011C1222.45 198.155 1222.57 198.254 1222.71 198.307C1222.85 198.36 1223 198.386 1223.17 198.386C1223.3 198.386 1223.42 198.377 1223.52 198.358C1223.63 198.339 1223.72 198.322 1223.77 198.307L1224.12 199.915C1224.01 199.953 1223.85 199.994 1223.65 200.04C1223.45 200.085 1223.2 200.112 1222.91 200.119C1222.4 200.134 1221.93 200.057 1221.52 199.886C1221.11 199.712 1220.78 199.443 1220.54 199.08C1220.3 198.716 1220.18 198.261 1220.18 197.716V189.182ZM1229.45 200.17C1228.58 200.17 1227.82 199.989 1227.18 199.625C1226.55 199.258 1226.07 198.739 1225.72 198.068C1225.38 197.394 1225.21 196.6 1225.21 195.688C1225.21 194.79 1225.38 194.002 1225.72 193.324C1226.07 192.642 1226.55 192.112 1227.17 191.733C1227.79 191.35 1228.51 191.159 1229.34 191.159C1229.88 191.159 1230.39 191.246 1230.87 191.42C1231.35 191.591 1231.77 191.856 1232.14 192.216C1232.51 192.576 1232.8 193.034 1233.01 193.591C1233.23 194.144 1233.33 194.803 1233.33 195.568V196.199H1226.18V194.812H1231.36C1231.36 194.419 1231.27 194.068 1231.11 193.761C1230.94 193.451 1230.71 193.206 1230.41 193.028C1230.11 192.85 1229.77 192.761 1229.37 192.761C1228.95 192.761 1228.58 192.864 1228.26 193.068C1227.95 193.269 1227.7 193.534 1227.52 193.864C1227.35 194.189 1227.26 194.547 1227.25 194.938V196.148C1227.25 196.655 1227.35 197.091 1227.53 197.455C1227.72 197.814 1227.98 198.091 1228.31 198.284C1228.64 198.473 1229.03 198.568 1229.48 198.568C1229.78 198.568 1230.05 198.527 1230.29 198.443C1230.54 198.356 1230.75 198.229 1230.92 198.062C1231.1 197.896 1231.24 197.689 1231.33 197.443L1233.25 197.659C1233.13 198.167 1232.89 198.61 1232.55 198.989C1232.22 199.364 1231.79 199.655 1231.26 199.864C1230.73 200.068 1230.13 200.17 1229.45 200.17ZM1248.69 188.364V200H1246.82L1241.34 192.074H1241.24V200H1239.13V188.364H1241.02L1246.5 196.295H1246.6V188.364H1248.69ZM1254.76 200.17C1253.89 200.17 1253.13 199.989 1252.5 199.625C1251.86 199.258 1251.38 198.739 1251.04 198.068C1250.7 197.394 1250.53 196.6 1250.53 195.688C1250.53 194.79 1250.7 194.002 1251.04 193.324C1251.38 192.642 1251.86 192.112 1252.48 191.733C1253.1 191.35 1253.82 191.159 1254.66 191.159C1255.19 191.159 1255.7 191.246 1256.18 191.42C1256.66 191.591 1257.08 191.856 1257.45 192.216C1257.82 192.576 1258.11 193.034 1258.33 193.591C1258.54 194.144 1258.64 194.803 1258.64 195.568V196.199H1251.49V194.812H1256.67C1256.67 194.419 1256.58 194.068 1256.42 193.761C1256.25 193.451 1256.02 193.206 1255.72 193.028C1255.42 192.85 1255.08 192.761 1254.68 192.761C1254.26 192.761 1253.89 192.864 1253.58 193.068C1253.26 193.269 1253.01 193.534 1252.83 193.864C1252.66 194.189 1252.57 194.547 1252.57 194.938V196.148C1252.57 196.655 1252.66 197.091 1252.84 197.455C1253.03 197.814 1253.29 198.091 1253.62 198.284C1253.96 198.473 1254.35 198.568 1254.79 198.568C1255.09 198.568 1255.36 198.527 1255.61 198.443C1255.85 198.356 1256.06 198.229 1256.24 198.062C1256.41 197.896 1256.55 197.689 1256.64 197.443L1258.56 197.659C1258.44 198.167 1258.21 198.61 1257.87 198.989C1257.53 199.364 1257.1 199.655 1256.57 199.864C1256.04 200.068 1255.44 200.17 1254.76 200.17ZM1262.14 200L1259.67 191.273H1261.77L1263.3 197.409H1263.38L1264.95 191.273H1267.03L1268.59 197.375H1268.68L1270.19 191.273H1272.29L1269.82 200H1267.68L1266.04 194.102H1265.92L1264.29 200H1262.14ZM1277.79 200V188.364H1282.24C1283.08 188.364 1283.78 188.496 1284.34 188.761C1284.9 189.023 1285.32 189.381 1285.6 189.835C1285.88 190.29 1286.02 190.805 1286.02 191.381C1286.02 191.854 1285.92 192.259 1285.74 192.597C1285.56 192.93 1285.32 193.201 1285.01 193.409C1284.7 193.617 1284.36 193.767 1283.98 193.858V193.972C1284.39 193.994 1284.79 194.121 1285.17 194.352C1285.55 194.58 1285.86 194.902 1286.11 195.318C1286.35 195.735 1286.47 196.239 1286.47 196.83C1286.47 197.432 1286.32 197.973 1286.03 198.455C1285.74 198.932 1285.3 199.309 1284.71 199.585C1284.13 199.862 1283.39 200 1282.5 200H1277.79ZM1279.9 198.239H1282.16C1282.93 198.239 1283.48 198.093 1283.82 197.801C1284.16 197.506 1284.33 197.127 1284.33 196.665C1284.33 196.32 1284.24 196.009 1284.07 195.733C1283.9 195.453 1283.66 195.233 1283.35 195.074C1283.03 194.911 1282.66 194.83 1282.22 194.83H1279.9V198.239ZM1279.9 193.312H1281.98C1282.35 193.312 1282.67 193.246 1282.96 193.114C1283.26 192.977 1283.49 192.786 1283.65 192.54C1283.82 192.29 1283.91 191.994 1283.91 191.653C1283.91 191.203 1283.75 190.831 1283.43 190.54C1283.12 190.248 1282.65 190.102 1282.03 190.102H1279.9V193.312ZM1292.02 200.17C1291.17 200.17 1290.43 199.983 1289.8 199.608C1289.18 199.233 1288.69 198.708 1288.35 198.034C1288.01 197.36 1287.84 196.572 1287.84 195.67C1287.84 194.769 1288.01 193.979 1288.35 193.301C1288.69 192.623 1289.18 192.097 1289.8 191.722C1290.43 191.347 1291.17 191.159 1292.02 191.159C1292.87 191.159 1293.61 191.347 1294.24 191.722C1294.86 192.097 1295.34 192.623 1295.68 193.301C1296.03 193.979 1296.2 194.769 1296.2 195.67C1296.2 196.572 1296.03 197.36 1295.68 198.034C1295.34 198.708 1294.86 199.233 1294.24 199.608C1293.61 199.983 1292.87 200.17 1292.02 200.17ZM1292.03 198.523C1292.49 198.523 1292.88 198.396 1293.19 198.142C1293.5 197.884 1293.73 197.54 1293.88 197.108C1294.04 196.676 1294.12 196.195 1294.12 195.665C1294.12 195.131 1294.04 194.648 1293.88 194.216C1293.73 193.78 1293.5 193.434 1293.19 193.176C1292.88 192.919 1292.49 192.79 1292.03 192.79C1291.56 192.79 1291.16 192.919 1290.85 193.176C1290.54 193.434 1290.31 193.78 1290.15 194.216C1290 194.648 1289.92 195.131 1289.92 195.665C1289.92 196.195 1290 196.676 1290.15 197.108C1290.31 197.54 1290.54 197.884 1290.85 198.142C1291.16 198.396 1291.56 198.523 1292.03 198.523ZM1302.31 191.273V192.864H1297.29V191.273H1302.31ZM1298.53 189.182H1300.58V197.375C1300.58 197.652 1300.63 197.864 1300.71 198.011C1300.8 198.155 1300.91 198.254 1301.05 198.307C1301.19 198.36 1301.35 198.386 1301.52 198.386C1301.64 198.386 1301.76 198.377 1301.87 198.358C1301.98 198.339 1302.06 198.322 1302.12 198.307L1302.46 199.915C1302.35 199.953 1302.2 199.994 1301.99 200.04C1301.79 200.085 1301.55 200.112 1301.25 200.119C1300.74 200.134 1300.28 200.057 1299.86 199.886C1299.45 199.712 1299.12 199.443 1298.88 199.08C1298.64 198.716 1298.52 198.261 1298.53 197.716V189.182Z" fill="white"/>
<rect x="190" y="55" width="998" height="493" rx="15" fill="#D9D9D9"/>
<path d="M561.196 240.684C543.638 240.684 529.093 226.639 529.093 208.581C529.093 191.024 543.138 176.98 561.196 176.98C578.753 176.98 592.797 191.024 592.797 208.581C592.794 226.635 578.749 240.684 561.196 240.684Z" fill="#EBE0E0"/>
<path d="M784.909 322.946V155.412C784.909 147.385 778.387 140.363 769.86 140.363L486.958 140.366C478.431 140.366 471.909 147.389 471.909 155.415V381.637C471.909 389.663 478.431 396.686 486.958 396.686H711.173C713.682 432.301 743.775 460.891 779.892 460.891C818.012 460.891 849.113 429.792 849.113 391.669C848.613 355.554 820.524 325.456 784.908 322.951L784.909 322.946ZM701.643 238.175C699.638 236.67 696.625 236.67 695.121 238.175L606.84 320.437L566.212 280.308C564.707 278.804 561.698 278.303 559.69 279.808L481.944 336.486V155.409C481.944 152.9 483.949 150.391 486.962 150.391H769.864C772.873 150.391 774.882 152.9 774.882 155.409V302.377L701.643 238.175ZM807.982 388.655C805.977 390.66 802.965 390.66 800.96 388.655L784.907 372.602V422.762C784.907 425.271 782.902 427.779 779.889 427.779C776.88 427.779 774.872 425.271 774.872 422.762V372.602L758.819 388.655C757.815 389.659 756.31 390.159 755.306 390.159C753.802 390.159 752.797 389.659 751.793 388.655C749.788 386.65 749.788 383.637 751.793 381.633L776.372 357.053C776.873 356.553 777.377 356.049 777.877 356.049C778.881 355.549 780.386 355.549 781.89 356.049C782.391 356.049 782.894 356.55 783.395 357.053L807.974 381.633C809.986 383.638 809.986 386.647 807.981 388.655H807.982Z" fill="#EBE0E0"/>
<rect x="205" y="605" width="735" height="9" rx="4.5" fill="#D9D9D9"/>
<rect x="205" y="636" width="412" height="9" rx="4.5" fill="#D9D9D9"/>
<rect x="205" y="667" width="525" height="9" rx="4.5" fill="#D9D9D9"/>
<rect x="205" y="723" width="246" height="9" rx="4.5" fill="#D9D9D9"/>
<path d="M423.956 1005.15C419.449 1005.15 414.969 1004 410.518 1001.71C406.066 999.414 402.066 996.431 398.52 992.76C394.973 989.089 392.091 984.949 389.875 980.341C387.658 975.733 386.55 971.097 386.55 966.431C386.55 965.705 386.79 965.093 387.27 964.596C387.75 964.099 388.342 963.85 389.044 963.85H396.802C397.319 963.85 397.772 964.032 398.16 964.395C398.548 964.758 398.797 965.246 398.908 965.858L400.404 973.085C400.478 973.621 400.469 974.108 400.376 974.548C400.284 974.988 400.09 975.36 399.794 975.666L394.253 981.46C396.322 985.016 398.64 988.114 401.208 990.752C403.775 993.391 406.685 995.628 409.936 997.464L415.2 991.842C415.57 991.422 415.995 991.125 416.475 990.953C416.955 990.781 417.435 990.752 417.916 990.867L424.51 992.358C425.064 992.473 425.526 992.76 425.896 993.219C426.265 993.678 426.45 994.213 426.45 994.825V1002.57C426.45 1003.3 426.21 1003.91 425.729 1004.4C425.249 1004.9 424.658 1005.15 423.956 1005.15Z" fill="#E7E5E4"/>
<path d="M391.309 870.95C390.019 870.95 388.903 870.562 387.962 869.786C387.02 869.01 386.55 868.09 386.55 867.026V842.017C386.55 840.925 387.02 839.99 387.962 839.214C388.903 838.438 390.019 838.05 391.309 838.05H405.271V842.017H391.309V867.026H421.639V855.513H426.45V867.026C426.45 868.09 425.979 869.01 425.038 869.786C424.097 870.562 422.964 870.95 421.639 870.95H391.309ZM402.604 860.472L399.309 857.712L418.344 842.017H408.409V838.05H426.45V852.926H421.639V844.777L402.604 860.472Z" fill="#E5E5E5"/>
<rect x="468" y="849" width="181" height="9" rx="4.5" fill="#6B6363"/>
<rect x="468" y="849" width="181" height="9" rx="4.5" fill="#6B6363"/>
<rect x="468" y="849" width="181" height="9" rx="4.5" fill="#6B6363"/>
<rect x="467" y="985" width="181" height="9" rx="4.5" fill="#6B6363"/>
<rect x="467" y="985" width="181" height="9" rx="4.5" fill="#6B6363"/>
<rect x="467" y="985" width="181" height="9" rx="4.5" fill="#6B6363"/>
<rect x="720" y="846" width="181" height="9" rx="4.5" fill="#6B6363"/>
<rect x="720" y="846" width="181" height="9" rx="4.5" fill="#6B6363"/>
<rect x="720" y="846" width="181" height="9" rx="4.5" fill="#6B6363"/>
<rect x="720" y="846" width="181" height="9" rx="4.5" fill="#6B6363"/>
<rect x="720" y="846" width="181" height="9" rx="4.5" fill="#6B6363"/>
<rect x="720" y="846" width="181" height="9" rx="4.5" fill="#6B6363"/>
<rect x="720" y="981" width="181" height="9" rx="4.5" fill="#6B6363"/>
<rect x="720" y="981" width="181" height="9" rx="4.5" fill="#6B6363"/>
<rect x="720" y="981" width="181" height="9" rx="4.5" fill="#6B6363"/>
<rect x="970" y="980" width="39" height="9" rx="4.5" fill="#6B6363"/>
<rect x="970" y="980" width="39" height="9" rx="4.5" fill="#6B6363"/>
<rect x="970" y="980" width="39" height="9" rx="4.5" fill="#6B6363"/>
<line x1="201" y1="772.5" x2="1206" y2="772.5" stroke="#A9A3A3"/>
<line x1="201" y1="913.5" x2="1206" y2="913.5" stroke="#A9A3A3"/>
</svg>
