<svg width="106" height="94" viewBox="0 0 106 94" fill="none" xmlns="http://www.w3.org/2000/svg">
<rect x="0.69873" y="0.210938" width="105.223" height="93.625" rx="10" fill="#F2F3F7"/>
<rect x="11.7573" y="9.53711" width="83.1069" height="73.082" rx="4.5" fill="white" stroke="#6B91F5"/>
<path d="M20.1177 61.4883H24.9375" stroke="#ABC0FA" stroke-linecap="round"/>
<path d="M28.9243 61.4883H56.8486" stroke="#ABC0FA" stroke-linecap="round"/>
<path d="M20.1177 67.0098L72.5918 67.1708" stroke="#ABC0FA" stroke-linecap="round"/>
<path d="M19.603 51.3652H47.2182" stroke="#2B64EE" stroke-width="1.5" stroke-linecap="round"/>
<path d="M20.1177 78.0332H47.7328" stroke="#E4E4E7" stroke-width="1.5" stroke-linecap="round"/>
<path d="M20.4966 13.7871H86.1235C88.6088 13.7871 90.6235 15.8018 90.6235 18.2871V42.2031C90.6235 42.4793 90.3997 42.7031 90.1235 42.7031H16.4966C16.2204 42.7031 15.9966 42.4793 15.9966 42.2031V18.2871C15.9966 15.8018 18.0113 13.7871 20.4966 13.7871Z" fill="#F4F4F5" stroke="#F4F4F5"/>
<path d="M47.3867 28.6973H62.3867C62.5856 28.6973 62.7764 28.6182 62.917 28.4776C63.0577 28.3369 63.1367 28.1462 63.1367 27.9473V25.6973C63.1368 25.5987 63.1175 25.5012 63.0798 25.4101C63.0422 25.3191 62.987 25.2363 62.9173 25.1666L57.6673 19.9166C57.5976 19.847 57.5149 19.7918 57.4239 19.7542C57.3328 19.7165 57.2352 19.6972 57.1367 19.6973H48.1367C47.7389 19.6973 47.3574 19.8553 47.0761 20.1366C46.7948 20.4179 46.6367 20.7994 46.6367 21.1973V27.9473C46.6367 28.1462 46.7157 28.3369 46.8564 28.4776C46.997 28.6182 47.1878 28.6973 47.3867 28.6973ZM57.1367 21.5723L61.2617 25.6973H57.1367V21.5723ZM63.8867 31.6973C63.8867 31.8962 63.8077 32.0869 63.667 32.2276C63.5264 32.3682 63.3356 32.4473 63.1367 32.4473H60.8867V33.9473H62.3867C62.5856 33.9473 62.7764 34.0263 62.917 34.1669C63.0577 34.3076 63.1367 34.4984 63.1367 34.6973C63.1367 34.8962 63.0577 35.0869 62.917 35.2276C62.7764 35.3682 62.5856 35.4473 62.3867 35.4473H60.8867V36.9473C60.8867 37.1462 60.8077 37.3369 60.667 37.4776C60.5264 37.6182 60.3356 37.6973 60.1367 37.6973C59.9378 37.6973 59.747 37.6182 59.6064 37.4776C59.4657 37.3369 59.3867 37.1462 59.3867 36.9473V31.6973C59.3867 31.4984 59.4657 31.3076 59.6064 31.1669C59.747 31.0263 59.9378 30.9473 60.1367 30.9473H63.1367C63.3356 30.9473 63.5264 31.0263 63.667 31.1669C63.8077 31.3076 63.8867 31.4984 63.8867 31.6973ZM48.8867 30.9473H47.3867C47.1878 30.9473 46.997 31.0263 46.8564 31.1669C46.7157 31.3076 46.6367 31.4984 46.6367 31.6973V36.9473C46.6367 37.1462 46.7157 37.3369 46.8564 37.4776C46.997 37.6182 47.1878 37.6973 47.3867 37.6973C47.5856 37.6973 47.7764 37.6182 47.917 37.4776C48.0577 37.3369 48.1367 37.1462 48.1367 36.9473V36.1973H48.8867C49.5829 36.1973 50.2506 35.9207 50.7429 35.4284C51.2352 34.9361 51.5117 34.2685 51.5117 33.5723C51.5117 32.8761 51.2352 32.2084 50.7429 31.7161C50.2506 31.2238 49.5829 30.9473 48.8867 30.9473ZM48.8867 34.6973H48.1367V32.4473H48.8867C49.1851 32.4473 49.4712 32.5658 49.6822 32.7768C49.8932 32.9877 50.0117 33.2739 50.0117 33.5723C50.0117 33.8706 49.8932 34.1568 49.6822 34.3678C49.4712 34.5787 49.1851 34.6973 48.8867 34.6973ZM54.8867 30.9473H53.3867C53.1878 30.9473 52.997 31.0263 52.8564 31.1669C52.7157 31.3076 52.6367 31.4984 52.6367 31.6973V36.9473C52.6367 37.1462 52.7157 37.3369 52.8564 37.4776C52.997 37.6182 53.1878 37.6973 53.3867 37.6973H54.8867C55.7818 37.6973 56.6403 37.3417 57.2732 36.7088C57.9061 36.0758 58.2617 35.2174 58.2617 34.3223C58.2617 33.4272 57.9061 32.5687 57.2732 31.9358C56.6403 31.3028 55.7818 30.9473 54.8867 30.9473ZM54.8867 36.1973H54.1367V32.4473H54.8867C55.384 32.4473 55.8609 32.6448 56.2125 32.9964C56.5642 33.3481 56.7617 33.825 56.7617 34.3223C56.7617 34.8195 56.5642 35.2965 56.2125 35.6481C55.8609 35.9997 55.384 36.1973 54.8867 36.1973Z" fill="#A1A1AA"/>
</svg>
