<svg width="361" height="371" viewBox="0 0 361 371" fill="none" xmlns="http://www.w3.org/2000/svg">
<path d="M284.646 219.118L284.667 219.126C284.57 219.095 284.557 219.083 284.646 219.118Z" fill="#E05644"/>
<path d="M285.093 219.331C285.193 219.382 285.308 219.444 285.441 219.517C286.054 219.856 286.735 220.278 287.44 220.731C287.893 221.424 288.314 222.093 288.654 222.697L288.798 222.959L285.573 296.181L319.788 296.474C321.205 296.486 322.559 297.061 323.545 298.07C325.578 300.15 325.524 303.47 323.424 305.484L258.13 368.103L258.022 368.216C257.565 368.693 257.158 368.908 256.27 368.908C255.383 368.908 254.973 368.692 254.518 368.217L254.429 368.123L190.026 305.446C189.025 304.472 188.455 303.143 188.443 301.753C188.416 298.858 190.764 296.489 193.687 296.463L225.294 296.178L221.882 222.055C221.903 221.418 222.091 220.933 222.718 220.311L285.093 219.331Z" fill="#E05644"/>
<path d="M289.057 223.486C289.092 223.574 289.08 223.562 289.048 223.466L289.057 223.486Z" fill="#E05644"/>
<path d="M239.286 353.389L254.425 368.123L254.515 368.217C254.97 368.692 255.379 368.908 256.267 368.908C257.154 368.908 257.562 368.693 258.019 368.216L258.127 368.103L273.469 353.389H239.286Z" fill="#E05644"/>
<path fill-rule="evenodd" clip-rule="evenodd" d="M68.8109 0C55.3633 0 44.4619 10.7982 44.4619 24.1185V346.049C44.4619 359.369 55.3633 370.167 68.8109 370.167H336.65C350.097 370.167 360.999 359.369 360.999 346.049V107.703C360.999 99.7472 358.312 92.0201 353.367 85.7511L321.294 45.0912L288.932 11.1667C282.133 4.03903 272.67 0 262.77 0H68.8109ZM61.4003 24.1185C61.4003 20.0645 64.7181 16.7781 68.8109 16.7781H262.77C268.011 16.7781 273.021 18.9164 276.62 22.6899L308.436 56.042L340.02 96.0814C342.638 99.4002 344.06 103.491 344.06 107.703V346.049C344.06 350.103 340.742 353.389 336.65 353.389H294.777L277.572 369.889H235.092L218.138 353.389H68.8109C64.7181 353.389 61.4003 350.103 61.4003 346.049V24.1185Z" fill="#E05644"/>
<path fill-rule="evenodd" clip-rule="evenodd" d="M227.609 6.55615C248.937 13.8408 260.703 24.0392 262.91 37.1515C264.783 48.2837 264.27 61.516 261.373 76.8486V76.8486C260.512 81.4027 263.542 85.7855 268.139 86.638C268.194 86.6482 268.25 86.6579 268.305 86.6671L358.882 101.62L340.129 75.3958L254.085 0L227.609 6.55615Z" fill="#E05644"/>
<path d="M166.208 79.3215H0V157.969H166.208V79.3215Z" fill="#E05644"/>
<path d="M20.1631 141.351V92.5418H39.6038C43.3411 92.5418 46.5251 93.2488 49.1557 94.6629C51.7863 96.061 53.7913 98.0074 55.1708 100.502C56.5662 102.98 57.264 105.84 57.264 109.082C57.264 112.323 56.5582 115.183 55.1467 117.661C53.7352 120.14 51.69 122.07 49.0113 123.453C46.3487 124.835 43.1246 125.526 39.3391 125.526H26.9481V117.256H37.6549C39.6599 117.256 41.312 116.915 42.6113 116.231C43.9266 115.532 44.905 114.571 45.5467 113.348C46.2043 112.108 46.5331 110.686 46.5331 109.082C46.5331 107.461 46.2043 106.047 45.5467 104.839C44.905 103.616 43.9266 102.671 42.6113 102.003C41.296 101.32 39.6278 100.978 37.6068 100.978H30.5812V141.351H20.1631Z" fill="white"/>
<path d="M81.4987 141.351H64.0309V92.5418H81.643C86.5995 92.5418 90.8661 93.5189 94.4431 95.4732C98.0201 97.4115 100.771 100.2 102.696 103.838C104.637 107.477 105.607 111.83 105.607 116.899C105.607 121.983 104.637 126.352 102.696 130.007C100.771 133.661 98.004 136.465 94.395 138.419C90.802 140.374 86.5032 141.351 81.4987 141.351ZM74.449 132.509H81.0656C84.1453 132.509 86.7358 131.969 88.8371 130.888C90.9544 129.792 92.5423 128.1 93.601 125.812C94.6757 123.508 95.213 120.537 95.213 116.899C95.213 113.292 94.6757 110.345 93.601 108.057C92.5423 105.769 90.9624 104.085 88.8611 103.004C86.7599 101.924 84.1694 101.384 81.0897 101.384H74.449V132.509Z" fill="white"/>
<path d="M113.324 141.351V92.5418H145.95V101.05H123.742V112.68H143.785V121.188H123.742V141.351H113.324Z" fill="white"/>
</svg>
