<svg width="23" height="27" viewBox="0 0 23 27" fill="none" xmlns="http://www.w3.org/2000/svg">
<path d="M21.7402 26.4482H1.74023C1.32602 26.4482 0.990234 26.1125 0.990234 25.6982V1.69824C0.990234 1.28403 1.32602 0.948242 1.74023 0.948242H17.326C17.5249 0.948242 17.7157 1.02726 17.8563 1.16791L22.2706 5.58213C22.4112 5.72278 22.4902 5.91354 22.4902 6.11246V25.6982C22.4902 26.1125 22.1544 26.4482 21.7402 26.4482Z" fill="white" stroke="#D9D9DA" stroke-width="0.5"/>
<mask id="path-2-inside-1_372_6001" fill="white">
<path fill-rule="evenodd" clip-rule="evenodd" d="M16.7402 0.698242V5.69824C16.7402 6.25053 17.1879 6.69824 17.7402 6.69824H22.7402V6.11246C22.7402 5.84751 22.6351 5.59341 22.4479 5.40593C22.4477 5.40574 22.4475 5.40554 22.4473 5.40535L18.0331 0.991135C17.8456 0.803599 17.5912 0.698242 17.326 0.698242H16.7402Z"/>
</mask>
<path fill-rule="evenodd" clip-rule="evenodd" d="M16.7402 0.698242V5.69824C16.7402 6.25053 17.1879 6.69824 17.7402 6.69824H22.7402V6.11246C22.7402 5.84751 22.6351 5.59341 22.4479 5.40593C22.4477 5.40574 22.4475 5.40554 22.4473 5.40535L18.0331 0.991135C17.8456 0.803599 17.5912 0.698242 17.326 0.698242H16.7402Z" fill="#EFEFEF"/>
<path d="M16.7402 0.698242V0.198242H16.2402V0.698242H16.7402ZM22.7402 6.69824V7.19824H23.2402V6.69824H22.7402ZM22.4479 5.40593L22.0939 5.75905L22.0941 5.75919L22.4479 5.40593ZM22.4473 5.40535L22.8009 5.0518L22.8009 5.0518L22.4473 5.40535ZM18.0331 0.991135L17.6796 1.34469L17.6796 1.34469L18.0331 0.991135ZM17.2402 5.69824V0.698242H16.2402V5.69824H17.2402ZM17.7402 6.19824C17.4641 6.19824 17.2402 5.97438 17.2402 5.69824H16.2402C16.2402 6.52667 16.9118 7.19824 17.7402 7.19824V6.19824ZM22.7402 6.19824H17.7402V7.19824H22.7402V6.19824ZM23.2402 6.69824V6.11246H22.2402V6.69824H23.2402ZM23.2402 6.11246C23.2402 5.71504 23.0825 5.33389 22.8018 5.05267L22.0941 5.75919C22.1877 5.85293 22.2402 5.97998 22.2402 6.11246H23.2402ZM22.8019 5.05281C22.8015 5.05236 22.8011 5.05195 22.8009 5.0518L22.0938 5.7589L22.0939 5.75905L22.8019 5.05281ZM17.6796 1.34469L22.0938 5.7589L22.8009 5.0518L18.3867 0.637582L17.6796 1.34469ZM18.3867 0.637582C18.1054 0.356278 17.7238 0.198242 17.326 0.198242V1.19824C17.4586 1.19824 17.5858 1.25092 17.6796 1.34469L18.3867 0.637582ZM17.326 0.198242H16.7402V1.19824H17.326V0.198242Z" fill="#D9D9DA" mask="url(#path-2-inside-1_372_6001)"/>
<path d="M8.41 12.4146C8.88396 12.4146 9.25993 12.5877 9.53793 12.9341C9.81592 13.2782 9.95492 13.7453 9.95492 14.3354C9.95492 14.9256 9.81592 15.3939 9.53793 15.7402C9.26221 16.0866 8.88852 16.2598 8.41684 16.2598C8.15251 16.2598 7.92009 16.2051 7.71957 16.0957C7.51905 15.984 7.3698 15.8302 7.27182 15.6343H7.21371V17.4355H6.47885V12.4761H7.18637V13.0913H7.24105C7.35271 12.8794 7.51221 12.7142 7.71957 12.5957C7.92693 12.4749 8.15707 12.4146 8.41 12.4146ZM8.2015 15.6001C8.51368 15.6001 8.75749 15.4884 8.93295 15.2651C9.11068 15.0396 9.19955 14.7297 9.19955 14.3354C9.19955 13.9412 9.11068 13.6325 8.93295 13.4092C8.75749 13.1859 8.51482 13.0742 8.20492 13.0742C7.89503 13.0742 7.65007 13.1882 7.47006 13.416C7.29005 13.6416 7.20004 13.9492 7.20004 14.3389C7.20004 14.7262 7.29005 15.0339 7.47006 15.2617C7.65007 15.4873 7.89389 15.6001 8.2015 15.6001ZM11.7905 16.2598C11.3166 16.2598 10.9406 16.0866 10.6626 15.7402C10.3846 15.3939 10.2456 14.9256 10.2456 14.3354C10.2456 13.7476 10.3846 13.2804 10.6626 12.9341C10.9429 12.5877 11.3188 12.4146 11.7905 12.4146C12.0457 12.4146 12.2747 12.4727 12.4775 12.5889C12.6803 12.7028 12.8319 12.8623 12.9321 13.0674H12.9868V11.0234H13.7217V16.1982H13.0176V15.6104H12.9595C12.8478 15.8132 12.6883 15.9727 12.481 16.0889C12.2759 16.2028 12.0457 16.2598 11.7905 16.2598ZM11.999 13.0742C11.6891 13.0742 11.4453 13.187 11.2676 13.4126C11.0921 13.6359 11.0044 13.9435 11.0044 14.3354C11.0044 14.7297 11.0921 15.0396 11.2676 15.2651C11.4453 15.4884 11.6891 15.6001 11.999 15.6001C12.3089 15.6001 12.5527 15.4873 12.7305 15.2617C12.9105 15.0361 13.0005 14.7285 13.0005 14.3389C13.0005 13.9515 12.9105 13.6439 12.7305 13.416C12.5505 13.1882 12.3066 13.0742 11.999 13.0742ZM14.6789 16.1982V13.1118H14.0671V12.4932H14.6789V12.0933C14.6789 11.3573 15.0617 10.9893 15.8273 10.9893C15.9868 10.9893 16.1326 11.0018 16.2648 11.0269V11.6045C16.1964 11.5908 16.1019 11.584 15.9811 11.584C15.7783 11.584 15.6313 11.6296 15.5402 11.7207C15.449 11.8118 15.4035 11.9508 15.4035 12.1377V12.4932H16.234V13.1118H15.4137V16.1982H14.6789Z" fill="#D84737"/>
</svg>
