<svg width="157" height="175" viewBox="0 0 157 175" fill="none" xmlns="http://www.w3.org/2000/svg">
<g filter="url(#filter0_d_1466_11790)">
<path d="M142.312 3.5H14.6882C10.4421 3.5 7 5.7386 7 8.5V124.484C7 127.245 10.4421 129.484 14.6882 129.484H142.312C146.558 129.484 150 127.245 150 124.484V8.5C150 5.7386 146.558 3.5 142.312 3.5Z" fill="white"/>
<path d="M6 8.5C6 5.7386 9.4909 3.5 13.7957 3.5H143.204C147.509 3.5 151 5.7386 151 8.5V59.484H6V8.5Z" fill="#F9FAFB"/>
<path d="M72.7979 18.9264L67.6889 35.946C67.4489 36.747 67.9059 37.59 68.7069 37.826L84.5999 42.514C85.3969 42.749 86.2329 42.295 86.4709 41.499L91.5789 24.4144C91.8189 23.6123 91.3599 22.7683 90.5559 22.5345L74.6629 17.9119C73.8679 17.6807 73.0359 18.1336 72.7979 18.9264Z" fill="#0092FF"/>
<path d="M68.7069 37.826C67.9059 37.59 67.4489 36.747 67.6889 35.946L72.7979 18.9264C73.0359 18.1336 73.8679 17.6807 74.6629 17.9119L90.5559 22.5345C91.3599 22.7683 91.8189 23.6123 91.5789 24.4144M68.7069 37.826L68.9369 37.047M68.7069 37.826L84.5999 42.514C85.3969 42.749 86.2329 42.295 86.4709 41.499L91.5789 24.4144M91.5789 24.4144L90.8009 24.1818" stroke="white" stroke-width="1.62401"/>
<path d="M71.0183 32.7257L74.6983 20.5534C74.8083 20.1879 75.1923 19.9797 75.5593 20.0866L88.9403 23.9892C89.3083 24.0967 89.5203 24.4826 89.4133 24.8514L85.8603 37.087C85.7533 37.457 85.3653 37.67 84.9963 37.561L71.4883 33.5949C71.1173 33.486 70.9063 33.0957 71.0183 32.7257Z" fill="white"/>
<path d="M85.3299 36.622L86.5309 32.6322C86.5699 32.5032 86.5499 32.3636 86.4779 32.2498L85.5509 30.7896C85.4619 30.6495 85.3049 30.5675 85.1389 30.5747L83.9839 30.6245C83.8689 30.6295 83.7609 30.6792 83.6719 30.7535C83.0329 31.2896 82.4609 31.0557 81.1569 31.1851C80.0989 31.29 80.1709 31.5694 80.3599 31.7157L80.3619 31.7178C80.3819 31.7328 80.4029 31.749 80.4199 31.7656C83.6289 34.773 77.6689 33.8113 76.4189 33.8802C75.5009 33.9308 75.5829 34.364 75.9309 34.433L84.7589 36.935C85.0029 37.004 85.2569 36.865 85.3299 36.622Z" fill="#F8D91E"/>
<path d="M86.1871 30.7773L86.6651 31.5064C86.7771 31.6768 87.0381 31.6307 87.0851 31.4323L87.2321 30.8074C87.2621 30.6768 87.1761 30.5475 87.0441 30.5254L86.4191 30.4213C86.2201 30.388 86.0761 30.6082 86.1871 30.7773Z" fill="#0092FF"/>
<path d="M83.3094 28.9449C83.0794 29.5225 83.0934 29.7666 83.1444 29.8417C83.1594 29.8633 83.1874 29.8667 83.2134 29.8667H84.3634C84.5984 29.8667 84.7414 29.4772 84.6064 29.2847C84.3944 28.9841 84.2154 28.5835 84.1874 28.0939C84.1204 26.8884 83.7824 26.8175 83.5114 26.5339C83.3244 26.3371 83.2584 26.375 83.2444 26.4348C83.2404 26.4532 83.2434 26.4717 83.2484 26.4901C83.3834 27.0474 83.5754 28.2752 83.3094 28.9449Z" fill="#0092FF"/>
<path d="M78.8945 25.4371L78.6025 25.0559C78.5285 24.9591 78.5415 24.8213 78.6335 24.7408L78.9735 24.4413C79.1295 24.3041 79.3735 24.4249 79.3585 24.6319L79.3095 25.3127C79.2945 25.5257 79.0235 25.6067 78.8945 25.4371Z" fill="#F8D91E"/>
<path d="M79.3893 26.2076C80.0033 26.3756 79.9703 24.8777 79.8773 24.1078C79.8363 23.4359 80.2513 24.1778 80.2963 24.5278C80.3663 25.0644 80.6033 26.0536 80.9943 25.7177C81.3843 25.3817 81.4823 25.5777 81.4823 25.7177C81.5383 26.3896 81.0403 26.5576 80.7843 26.5576C79.8773 26.4876 79.4593 27.1875 78.9703 27.3975C77.6103 27.9823 77.3663 26.6976 77.6453 26.3476C77.7553 26.2093 77.8363 25.9399 77.8923 25.6578C77.9373 25.431 78.2983 25.3433 78.4493 25.5184C78.7113 25.8216 79.0433 26.113 79.3893 26.2076Z" fill="#0092FF"/>
<path d="M83.0753 28.3334C83.2263 27.2763 82.8573 26.3828 82.8573 25.5445C82.7453 24.552 81.5213 27.0331 80.3953 27.1749C79.2703 27.3167 77.7923 28.9472 77.3003 28.5927C77.1003 28.4489 77.2063 28.2625 77.4163 28.0891C77.5983 27.9393 77.5543 27.5141 77.3653 27.3734C77.0793 27.1603 76.9113 26.824 77.1593 26.3243C77.4983 25.6415 77.5933 25.1835 77.5993 24.9382C77.6013 24.8345 77.5103 24.7666 77.4073 24.7788C76.2103 24.9206 75.0633 25.9728 74.5283 26.611C74.4603 26.6916 74.3493 26.7212 74.2523 26.6805L73.8093 26.4947C73.6823 26.4415 73.5373 26.5096 73.4973 26.6412L71.8343 32.1214C71.7893 32.2704 71.9003 32.4207 72.0553 32.4206C73.8453 32.419 77.1373 32.4033 78.1443 32.3499C79.4813 32.279 78.0033 31.7119 78.1443 30.6485C78.2853 29.5852 83.2093 30.7903 82.7873 30.1523C82.4603 29.6592 82.8083 28.8175 83.0443 28.4202C83.0593 28.3935 83.0713 28.3641 83.0753 28.3334Z" fill="#F8D91E"/>
<path d="M64.1818 28.3437L69.6458 26.6211L66.9978 35.676C66.6398 36.902 67.3388 38.187 68.5638 38.551L77.0808 41.083L68.8888 43.75C67.6498 44.153 66.3218 43.458 65.9488 42.209L62.6568 31.2221C62.2928 30.0072 62.9718 28.7251 64.1818 28.3437Z" fill="#0092FF"/>
<path d="M150 59.5H7V60.5H150V59.5Z" fill="#D1D5DB"/>
<path d="M50 75.4844H24C22.8954 75.4844 22 76.3804 22 77.4844C22 78.5894 22.8954 79.4844 24 79.4844H50C51.105 79.4844 52 78.5894 52 77.4844C52 76.3804 51.105 75.4844 50 75.4844Z" fill="#64748B"/>
<path d="M72 86.4844H24C22.8954 86.4844 22 87.3804 22 88.4844C22 89.5894 22.8954 90.4844 24 90.4844H72C73.105 90.4844 74 89.5894 74 88.4844C74 87.3804 73.105 86.4844 72 86.4844Z" fill="#D1D5DB"/>
<path d="M36 110.484H24C22.8954 110.484 22 111.38 22 112.484C22 113.589 22.8954 114.484 24 114.484H36C37.105 114.484 38 113.589 38 112.484C38 111.38 37.105 110.484 36 110.484Z" fill="#D1D5DB"/>
<path d="M83 110.484H45C43.895 110.484 43 111.38 43 112.484C43 113.589 43.895 114.484 45 114.484H83C84.105 114.484 85 113.589 85 112.484C85 111.38 84.105 110.484 83 110.484Z" fill="#D1D5DB"/>
<path d="M142.074 3H14.9255C10.2722 3 6.5 5.4624 6.5 8.5V124.484C6.5 127.522 10.2722 129.984 14.9255 129.984H142.074C146.728 129.984 150.5 127.522 150.5 124.484V8.5C150.5 5.4624 146.728 3 142.074 3Z" stroke="#D1D5DB"/>
</g>
<g filter="url(#filter1_d_1466_11790)">
<path d="M146 140H12C9.2386 140 7 141.712 7 143.824V162.176C7 164.288 9.2386 166 12 166H146C148.761 166 151 164.288 151 162.176V143.824C151 141.712 148.761 140 146 140Z" fill="white"/>
<path d="M145.5 139H11.5C8.4624 139 6 140.9 6 143.243V161.757C6 164.1 8.4624 166 11.5 166H145.5C148.538 166 151 164.1 151 161.757V143.243C151 140.9 148.538 139 145.5 139Z" stroke="#D1D5DB"/>
<path d="M49.513 151H23.4872C22.6658 151 22 151.895 22 153C22 154.105 22.6658 155 23.4872 155H49.513C50.334 155 51 154.105 51 153C51 151.895 50.334 151 49.513 151Z" fill="#64748B"/>
</g>
<path d="M66.8914 150.62H65.4514C65.3964 150.312 65.2924 150.041 65.1424 149.808C64.9914 149.574 64.8064 149.375 64.5884 149.212C64.3694 149.049 64.1254 148.926 63.8544 148.843C63.5864 148.76 63.3014 148.718 63.0004 148.718C62.4554 148.718 61.9674 148.855 61.5364 149.129C61.1084 149.403 60.7704 149.804 60.5214 150.334C60.2744 150.863 60.1514 151.509 60.1514 152.273C60.1514 153.042 60.2744 153.692 60.5214 154.221C60.7704 154.75 61.1104 155.15 61.5414 155.421C61.9724 155.692 62.4564 155.827 62.9954 155.827C63.2944 155.827 63.5774 155.787 63.8444 155.707C64.1154 155.624 64.3604 155.503 64.5784 155.343C64.7974 155.183 64.9824 154.987 65.1324 154.756C65.2864 154.522 65.3934 154.255 65.4514 153.953L66.8914 153.958C66.8144 154.422 66.6654 154.85 66.4444 155.241C66.2254 155.629 65.9434 155.964 65.5994 156.248C65.2574 156.528 64.8664 156.745 64.4264 156.898C63.9864 157.052 63.5064 157.129 62.9864 157.129C62.1674 157.129 61.4384 156.935 60.7984 156.548C60.1574 156.157 59.6534 155.598 59.2834 154.872C58.9174 154.145 58.7344 153.279 58.7344 152.273C58.7344 151.263 58.9194 150.397 59.2884 149.674C59.6574 148.947 60.1624 148.39 60.8024 148.002C61.4424 147.612 62.1704 147.416 62.9864 147.416C63.4874 147.416 63.9554 147.489 64.3894 147.633C64.8264 147.775 65.2194 147.984 65.5664 148.261C65.9144 148.535 66.2024 148.87 66.4304 149.267C66.6574 149.661 66.8114 150.112 66.8914 150.62ZM69.9334 147.545V157H68.5524V147.545H69.9334ZM73.9184 157.157C73.4694 157.157 73.0634 157.074 72.7004 156.908C72.3364 156.738 72.0494 156.494 71.8364 156.174C71.6274 155.854 71.5224 155.461 71.5224 154.996C71.5224 154.596 71.5994 154.267 71.7534 154.009C71.9074 153.75 72.1154 153.545 72.3764 153.395C72.6384 153.244 72.9304 153.13 73.2544 153.053C73.5774 152.976 73.9064 152.917 74.2424 152.877C74.6664 152.828 75.0114 152.788 75.2764 152.757C75.5404 152.724 75.7334 152.67 75.8534 152.596C75.9734 152.522 76.0334 152.402 76.0334 152.236V152.203C76.0334 151.8 75.9194 151.488 75.6914 151.266C75.4664 151.045 75.1314 150.934 74.6854 150.934C74.2204 150.934 73.8544 151.037 73.5864 151.243C73.3214 151.446 73.1384 151.673 73.0374 151.922L71.7394 151.626C71.8934 151.196 72.1184 150.848 72.4134 150.583C72.7124 150.315 73.0554 150.121 73.4434 150.001C73.8314 149.878 74.2384 149.817 74.6664 149.817C74.9494 149.817 75.2494 149.851 75.5664 149.918C75.8874 149.983 76.1854 150.103 76.4624 150.278C76.7424 150.454 76.9714 150.705 77.1504 151.031C77.3284 151.354 77.4184 151.774 77.4184 152.291V157H76.0704V156.031H76.0144C75.9254 156.209 75.7914 156.384 75.6134 156.557C75.4344 156.729 75.2054 156.872 74.9254 156.986C74.6454 157.1 74.3094 157.157 73.9184 157.157ZM74.2184 156.049C74.6004 156.049 74.9264 155.974 75.1974 155.823C75.4714 155.672 75.6794 155.475 75.8204 155.232C75.9654 154.986 76.0374 154.723 76.0374 154.442V153.528C75.9884 153.578 75.8934 153.624 75.7514 153.667C75.6134 153.707 75.4544 153.742 75.2764 153.773C75.0974 153.801 74.9234 153.827 74.7544 153.852C74.5854 153.873 74.4434 153.892 74.3294 153.907C74.0614 153.941 73.8174 153.998 73.5954 154.078C73.3774 154.158 73.2014 154.273 73.0694 154.424C72.9404 154.572 72.8754 154.769 72.8754 155.015C72.8754 155.357 73.0014 155.615 73.2544 155.79C73.5064 155.963 73.8284 156.049 74.2184 156.049ZM79.3214 157V149.909H80.7014V157H79.3214ZM80.0184 148.815C79.7784 148.815 79.5724 148.735 79.4004 148.575C79.2304 148.412 79.1464 148.218 79.1464 147.993C79.1464 147.766 79.2304 147.572 79.4004 147.412C79.5724 147.248 79.7784 147.167 80.0184 147.167C80.2584 147.167 80.4634 147.248 80.6324 147.412C80.8054 147.572 80.8914 147.766 80.8914 147.993C80.8914 148.218 80.8054 148.412 80.6324 148.575C80.4634 148.735 80.2584 148.815 80.0184 148.815ZM82.6234 157V149.909H83.9484V151.063H84.0364C84.1844 150.672 84.4254 150.368 84.7614 150.149C85.0964 149.928 85.4984 149.817 85.9664 149.817C86.4404 149.817 86.8374 149.928 87.1574 150.149C87.4804 150.371 87.7194 150.675 87.8724 151.063H87.9464C88.1164 150.685 88.3854 150.383 88.7544 150.158C89.1234 149.931 89.5644 149.817 90.0744 149.817C90.7184 149.817 91.2424 150.018 91.6494 150.422C92.0584 150.825 92.2634 151.433 92.2634 152.245V157H90.8824V152.374C90.8824 151.894 90.7524 151.546 90.4904 151.331C90.2284 151.116 89.9164 151.008 89.5534 151.008C89.1034 151.008 88.7544 151.146 88.5054 151.423C88.2564 151.697 88.1314 152.05 88.1314 152.48V157H86.7554V152.287C86.7554 151.902 86.6354 151.593 86.3954 151.359C86.1554 151.125 85.8434 151.008 85.4584 151.008C85.1964 151.008 84.9554 151.077 84.7334 151.216C84.5154 151.351 84.3384 151.54 84.2024 151.783C84.0704 152.027 84.0044 152.308 84.0044 152.628V157H82.6234ZM100.67 157.143C100.005 157.143 99.4254 156.991 98.9304 156.686C98.4344 156.381 98.0494 155.955 97.7754 155.407C97.5024 154.859 97.3654 154.219 97.3654 153.487C97.3654 152.751 97.5024 152.108 97.7754 151.557C98.0494 151.006 98.4344 150.578 98.9304 150.274C99.4254 149.969 100.005 149.817 100.67 149.817C101.335 149.817 101.915 149.969 102.41 150.274C102.906 150.578 103.291 151.006 103.565 151.557C103.838 152.108 103.975 152.751 103.975 153.487C103.975 154.219 103.838 154.859 103.565 155.407C103.291 155.955 102.906 156.381 102.41 156.686C101.915 156.991 101.335 157.143 100.67 157.143ZM100.675 155.984C101.105 155.984 101.463 155.871 101.746 155.643C102.029 155.415 102.238 155.112 102.373 154.733C102.512 154.355 102.581 153.938 102.581 153.482C102.581 153.03 102.512 152.614 102.373 152.236C102.238 151.854 102.029 151.548 101.746 151.317C101.463 151.086 101.105 150.971 100.675 150.971C100.241 150.971 99.8814 151.086 99.5944 151.317C99.3114 151.548 99.1004 151.854 98.9624 152.236C98.8264 152.614 98.7594 153.03 98.7594 153.482C98.7594 153.938 98.8264 154.355 98.9624 154.733C99.1004 155.112 99.3114 155.415 99.5944 155.643C99.8814 155.871 100.241 155.984 100.675 155.984ZM108.956 149.909V151.017H104.949V149.909H108.956ZM106.047 157V149.087C106.047 148.644 106.144 148.276 106.338 147.984C106.532 147.689 106.789 147.469 107.109 147.324C107.429 147.176 107.777 147.102 108.153 147.102C108.43 147.102 108.667 147.125 108.863 147.172C109.06 147.215 109.207 147.255 109.302 147.292L108.979 148.409C108.914 148.39 108.831 148.369 108.73 148.344C108.628 148.316 108.505 148.303 108.36 148.303C108.025 148.303 107.785 148.386 107.64 148.552C107.499 148.718 107.428 148.958 107.428 149.272V157H106.047ZM113.82 149.909V151.017H109.813V149.909H113.82ZM110.911 157V149.087C110.911 148.644 111.008 148.276 111.202 147.984C111.396 147.689 111.653 147.469 111.973 147.324C112.293 147.176 112.641 147.102 113.016 147.102C113.293 147.102 113.53 147.125 113.727 147.172C113.924 147.215 114.07 147.255 114.166 147.292L113.843 148.409C113.778 148.39 113.695 148.369 113.593 148.344C113.492 148.316 113.369 148.303 113.224 148.303C112.889 148.303 112.649 148.386 112.504 148.552C112.362 148.718 112.292 148.958 112.292 149.272V157H110.911ZM118.086 157.143C117.387 157.143 116.785 156.994 116.281 156.695C115.779 156.394 115.391 155.971 115.117 155.426C114.846 154.878 114.711 154.236 114.711 153.501C114.711 152.774 114.846 152.134 115.117 151.58C115.391 151.026 115.773 150.594 116.262 150.283C116.755 149.972 117.33 149.817 117.989 149.817C118.389 149.817 118.777 149.883 119.152 150.015C119.528 150.148 119.865 150.355 120.163 150.638C120.462 150.922 120.697 151.289 120.869 151.742C121.042 152.191 121.128 152.737 121.128 153.381V153.87H115.491V152.836H119.775C119.775 152.473 119.701 152.151 119.554 151.871C119.406 151.588 119.198 151.365 118.93 151.202C118.666 151.039 118.355 150.957 117.998 150.957C117.61 150.957 117.272 151.052 116.982 151.243C116.696 151.431 116.474 151.677 116.318 151.982C116.164 152.283 116.087 152.611 116.087 152.965V153.773C116.087 154.247 116.17 154.65 116.336 154.983C116.505 155.315 116.741 155.569 117.042 155.744C117.344 155.917 117.696 156.003 118.099 156.003C118.361 156.003 118.6 155.966 118.815 155.892C119.03 155.815 119.217 155.701 119.374 155.55C119.531 155.4 119.651 155.213 119.734 154.992L121.04 155.227C120.936 155.612 120.748 155.949 120.477 156.238C120.209 156.525 119.872 156.748 119.466 156.908C119.063 157.065 118.603 157.143 118.086 157.143ZM122.724 157V149.909H124.059V151.036H124.132C124.262 150.654 124.489 150.354 124.816 150.135C125.145 149.914 125.517 149.803 125.933 149.803C126.019 149.803 126.121 149.806 126.238 149.812C126.358 149.818 126.451 149.826 126.519 149.835V151.156C126.464 151.14 126.365 151.123 126.224 151.105C126.082 151.083 125.941 151.072 125.799 151.072C125.473 151.072 125.182 151.142 124.926 151.28C124.674 151.416 124.474 151.605 124.326 151.848C124.179 152.088 124.105 152.362 124.105 152.67V157H122.724Z" fill="#D1D5DB"/>
<defs>
<filter id="filter0_d_1466_11790" x="1" y="0.5" width="155" height="137.984" filterUnits="userSpaceOnUse" color-interpolation-filters="sRGB">
<feFlood flood-opacity="0" result="BackgroundImageFix"/>
<feColorMatrix in="SourceAlpha" type="matrix" values="0 0 0 0 0 0 0 0 0 0 0 0 0 0 0 0 0 0 127 0" result="hardAlpha"/>
<feOffset dy="3"/>
<feGaussianBlur stdDeviation="2.5"/>
<feComposite in2="hardAlpha" operator="out"/>
<feColorMatrix type="matrix" values="0 0 0 0 0.54902 0 0 0 0 0.596078 0 0 0 0 0.643137 0 0 0 0.15 0"/>
<feBlend mode="normal" in2="BackgroundImageFix" result="effect1_dropShadow_1466_11790"/>
<feBlend mode="normal" in="SourceGraphic" in2="effect1_dropShadow_1466_11790" result="shape"/>
</filter>
<filter id="filter1_d_1466_11790" x="0.5" y="136.5" width="156" height="38" filterUnits="userSpaceOnUse" color-interpolation-filters="sRGB">
<feFlood flood-opacity="0" result="BackgroundImageFix"/>
<feColorMatrix in="SourceAlpha" type="matrix" values="0 0 0 0 0 0 0 0 0 0 0 0 0 0 0 0 0 0 127 0" result="hardAlpha"/>
<feOffset dy="3"/>
<feGaussianBlur stdDeviation="2.5"/>
<feComposite in2="hardAlpha" operator="out"/>
<feColorMatrix type="matrix" values="0 0 0 0 0.54902 0 0 0 0 0.596078 0 0 0 0 0.643137 0 0 0 0.15 0"/>
<feBlend mode="normal" in2="BackgroundImageFix" result="effect1_dropShadow_1466_11790"/>
<feBlend mode="normal" in="SourceGraphic" in2="effect1_dropShadow_1466_11790" result="shape"/>
</filter>
</defs>
</svg>
