<svg width="155" height="139" viewBox="0 0 155 139" fill="none" xmlns="http://www.w3.org/2000/svg">
<g filter="url(#filter0_d_1466_11739)">
<path d="M141.312 3.5H13.6882C9.4421 3.5 6 5.7386 6 8.5V124.484C6 127.245 9.4421 129.484 13.6882 129.484H141.312C145.558 129.484 149 127.245 149 124.484V8.5C149 5.7386 145.558 3.5 141.312 3.5Z" fill="white"/>
<path d="M5 8.5C5 5.7386 8.4909 3.5 12.7957 3.5H142.204C146.509 3.5 150 5.7386 150 8.5V59.484H5V8.5Z" fill="#F9FAFB"/>
<path d="M71.7979 18.9258L66.6889 35.9458C66.4489 36.7468 66.9059 37.5898 67.7069 37.8258L83.5999 42.5138C84.3969 42.7488 85.2329 42.2948 85.4709 41.4988L90.5789 24.4138C90.8189 23.6118 90.3599 22.7679 89.5559 22.5349L73.6629 17.9118C72.8679 17.6808 72.0359 18.1338 71.7979 18.9258Z" fill="#0092FF"/>
<path d="M67.7069 37.8258C66.9059 37.5898 66.4489 36.7468 66.6889 35.9458L71.7979 18.9258C72.0359 18.1338 72.8679 17.6808 73.6629 17.9118L89.5559 22.5349C90.3599 22.7679 90.8189 23.6118 90.5789 24.4138M67.7069 37.8258L67.9369 37.0468M67.7069 37.8258L83.5999 42.5138C84.3969 42.7488 85.2329 42.2948 85.4709 41.4988L90.5789 24.4138M90.5789 24.4138L89.8009 24.1818" stroke="white" stroke-width="1.62401"/>
<path d="M70.0183 32.7257L73.6983 20.5527C73.8083 20.1877 74.1923 19.9797 74.5593 20.0867L87.9403 23.9887C88.3083 24.0967 88.5203 24.4827 88.4133 24.8507L84.8603 37.0867C84.7533 37.4567 84.3653 37.6697 83.9963 37.5607L70.4883 33.5947C70.1173 33.4857 69.9063 33.0957 70.0183 32.7257Z" fill="white"/>
<path d="M84.3299 36.6218L85.5309 32.6318C85.5699 32.5028 85.5499 32.3638 85.4779 32.2498L84.5509 30.7898C84.4619 30.6488 84.3049 30.5668 84.1389 30.5748L82.9839 30.6238C82.8689 30.6288 82.7609 30.6788 82.6719 30.7528C82.0329 31.2898 81.4609 31.0558 80.1569 31.1848C79.0989 31.2898 79.1709 31.5688 79.3599 31.7158L79.3619 31.7178C79.3819 31.7328 79.4029 31.7488 79.4199 31.7658C82.6289 34.7728 76.6689 33.8108 75.4189 33.8798C74.5009 33.9308 74.5829 34.3638 74.9309 34.4328L83.7589 36.9348C84.0029 37.0038 84.2569 36.8648 84.3299 36.6218Z" fill="#F8D91E"/>
<path d="M85.1871 30.7773L85.6651 31.5063C85.7771 31.6773 86.0381 31.6313 86.0851 31.4323L86.2321 30.8073C86.2621 30.6773 86.1761 30.5483 86.0441 30.5253L85.4191 30.4213C85.2201 30.3883 85.0761 30.6083 85.1871 30.7773Z" fill="#0092FF"/>
<path d="M82.3094 28.945C82.0794 29.523 82.0934 29.767 82.1444 29.842C82.1594 29.863 82.1874 29.867 82.2134 29.867H83.3634C83.5984 29.867 83.7414 29.477 83.6064 29.285C83.3944 28.984 83.2154 28.584 83.1874 28.094C83.1204 26.888 82.7824 26.818 82.5114 26.534C82.3244 26.337 82.2584 26.375 82.2444 26.435C82.2404 26.453 82.2434 26.472 82.2484 26.49C82.3834 27.047 82.5754 28.275 82.3094 28.945Z" fill="#0092FF"/>
<path d="M77.8945 25.4371L77.6025 25.0561C77.5285 24.9591 77.5415 24.8211 77.6335 24.7411L77.9735 24.4411C78.1295 24.3041 78.3735 24.4251 78.3585 24.6321L78.3095 25.3131C78.2945 25.5261 78.0235 25.6071 77.8945 25.4371Z" fill="#F8D91E"/>
<path d="M78.3893 26.2079C79.0033 26.3759 78.9703 24.8779 78.8773 24.1079C78.8363 23.4359 79.2513 24.1779 79.2963 24.5279C79.3663 25.0639 79.6033 26.0539 79.9943 25.7179C80.3843 25.3819 80.4823 25.5779 80.4823 25.7179C80.5383 26.3899 80.0403 26.5579 79.7843 26.5579C78.8773 26.4879 78.4593 27.1879 77.9703 27.3979C76.6103 27.9819 76.3663 26.6979 76.6453 26.3479C76.7553 26.2089 76.8363 25.9399 76.8923 25.6579C76.9373 25.4309 77.2983 25.3429 77.4493 25.5179C77.7113 25.8219 78.0433 26.1129 78.3893 26.2079Z" fill="#0092FF"/>
<path d="M82.0753 28.3327C82.2263 27.2757 81.8573 26.3827 81.8573 25.5437C81.7453 24.5517 80.5213 27.0327 79.3953 27.1747C78.2703 27.3167 76.7923 28.9467 76.3003 28.5927C76.1003 28.4487 76.2063 28.2617 76.4163 28.0887C76.5983 27.9387 76.5543 27.5137 76.3653 27.3727C76.0793 27.1597 75.9113 26.8237 76.1593 26.3237C76.4983 25.6407 76.5933 25.1827 76.5993 24.9377C76.6013 24.8337 76.5103 24.7667 76.4073 24.7787C75.2103 24.9207 74.0633 25.9727 73.5283 26.6107C73.4603 26.6917 73.3493 26.7207 73.2523 26.6797L72.8093 26.4947C72.6823 26.4407 72.5373 26.5097 72.4973 26.6407L70.8343 32.1207C70.7893 32.2697 70.9003 32.4207 71.0553 32.4207C72.8453 32.4187 76.1373 32.4027 77.1443 32.3497C78.4813 32.2787 77.0033 31.7117 77.1443 30.6477C77.2853 29.5847 82.2093 30.7897 81.7873 30.1517C81.4603 29.6587 81.8083 28.8167 82.0443 28.4197C82.0593 28.3927 82.0713 28.3637 82.0753 28.3327Z" fill="#F8D91E"/>
<path d="M63.1818 28.3441L68.6458 26.6211L65.9978 35.6761C65.6398 36.9021 66.3388 38.1871 67.5638 38.5511L76.0808 41.0831L67.8888 43.7501C66.6498 44.1531 65.3218 43.4581 64.9488 42.2091L61.6568 31.2221C61.2928 30.0071 61.9718 28.7251 63.1818 28.3441Z" fill="#0092FF"/>
<path d="M149 59.5H6V60.5H149V59.5Z" fill="#D1D5DB"/>
<path d="M49 75.4844H23C21.8954 75.4844 21 76.3804 21 77.4844C21 78.5894 21.8954 79.4844 23 79.4844H49C50.105 79.4844 51 78.5894 51 77.4844C51 76.3804 50.105 75.4844 49 75.4844Z" fill="#64748B"/>
<path d="M71 86.4844H23C21.8954 86.4844 21 87.3804 21 88.4844C21 89.5894 21.8954 90.4844 23 90.4844H71C72.105 90.4844 73 89.5894 73 88.4844C73 87.3804 72.105 86.4844 71 86.4844Z" fill="#D1D5DB"/>
<path d="M35 110.484H23C21.8954 110.484 21 111.38 21 112.484C21 113.589 21.8954 114.484 23 114.484H35C36.105 114.484 37 113.589 37 112.484C37 111.38 36.105 110.484 35 110.484Z" fill="#D1D5DB"/>
<path d="M82 110.484H44C42.895 110.484 42 111.38 42 112.484C42 113.589 42.895 114.484 44 114.484H82C83.105 114.484 84 113.589 84 112.484C84 111.38 83.105 110.484 82 110.484Z" fill="#D1D5DB"/>
<path d="M141.074 3H13.9255C9.2722 3 5.5 5.4624 5.5 8.5V124.484C5.5 127.522 9.2722 129.984 13.9255 129.984H141.074C145.728 129.984 149.5 127.522 149.5 124.484V8.5C149.5 5.4624 145.728 3 141.074 3Z" stroke="#D1D5DB"/>
</g>
<defs>
<filter id="filter0_d_1466_11739" x="0" y="0.5" width="155" height="137.984" filterUnits="userSpaceOnUse" color-interpolation-filters="sRGB">
<feFlood flood-opacity="0" result="BackgroundImageFix"/>
<feColorMatrix in="SourceAlpha" type="matrix" values="0 0 0 0 0 0 0 0 0 0 0 0 0 0 0 0 0 0 127 0" result="hardAlpha"/>
<feOffset dy="3"/>
<feGaussianBlur stdDeviation="2.5"/>
<feComposite in2="hardAlpha" operator="out"/>
<feColorMatrix type="matrix" values="0 0 0 0 0.54902 0 0 0 0 0.596078 0 0 0 0 0.643137 0 0 0 0.15 0"/>
<feBlend mode="normal" in2="BackgroundImageFix" result="effect1_dropShadow_1466_11739"/>
<feBlend mode="normal" in="SourceGraphic" in2="effect1_dropShadow_1466_11739" result="shape"/>
</filter>
</defs>
</svg>
