<svg width="157" height="175" viewBox="0 0 157 175" fill="none" xmlns="http://www.w3.org/2000/svg">
<g filter="url(#filter0_d_1466_11813)">
<path d="M142.312 3.5H14.6882C10.4421 3.5 7 5.7386 7 8.5V124.484C7 127.245 10.4421 129.484 14.6882 129.484H142.312C146.558 129.484 150 127.245 150 124.484V8.5C150 5.7386 146.558 3.5 142.312 3.5Z" fill="white"/>
<path d="M6 8.5C6 5.7386 9.4909 3.5 13.7957 3.5H143.204C147.509 3.5 151 5.7386 151 8.5V59.484H6V8.5Z" fill="#F9FAFB"/>
<path d="M150 59.5H7V60.5H150V59.5Z" fill="#D1D5DB"/>
<path d="M50 75.4844H24C22.8954 75.4844 22 76.3804 22 77.4844C22 78.5894 22.8954 79.4844 24 79.4844H50C51.105 79.4844 52 78.5894 52 77.4844C52 76.3804 51.105 75.4844 50 75.4844Z" fill="#64748B"/>
<path d="M72 86.4844H24C22.8954 86.4844 22 87.3804 22 88.4844C22 89.5894 22.8954 90.4844 24 90.4844H72C73.105 90.4844 74 89.5894 74 88.4844C74 87.3804 73.105 86.4844 72 86.4844Z" fill="#D1D5DB"/>
<path d="M36 110.484H24C22.8954 110.484 22 111.38 22 112.484C22 113.589 22.8954 114.484 24 114.484H36C37.105 114.484 38 113.589 38 112.484C38 111.38 37.105 110.484 36 110.484Z" fill="#D1D5DB"/>
<path d="M83 110.484H45C43.895 110.484 43 111.38 43 112.484C43 113.589 43.895 114.484 45 114.484H83C84.105 114.484 85 113.589 85 112.484C85 111.38 84.105 110.484 83 110.484Z" fill="#D1D5DB"/>
<path d="M142.074 3H14.9255C10.2722 3 6.5 5.4624 6.5 8.5V124.484C6.5 127.522 10.2722 129.984 14.9255 129.984H142.074C146.728 129.984 150.5 127.522 150.5 124.484V8.5C150.5 5.4624 146.728 3 142.074 3Z" stroke="#D1D5DB"/>
</g>
<g filter="url(#filter1_d_1466_11813)">
<path d="M146 140H12C9.2386 140 7 141.712 7 143.824V162.176C7 164.288 9.2386 166 12 166H146C148.761 166 151 164.288 151 162.176V143.824C151 141.712 148.761 140 146 140Z" fill="white"/>
<path d="M145.5 139H11.5C8.4624 139 6 140.9 6 143.243V161.757C6 164.1 8.4624 166 11.5 166H145.5C148.538 166 151 164.1 151 161.757V143.243C151 140.9 148.538 139 145.5 139Z" stroke="#D1D5DB"/>
<path d="M59 151H24C22.8954 151 22 151.895 22 153C22 154.105 22.8954 155 24 155H59C60.105 155 61 154.105 61 153C61 151.895 60.105 151 59 151Z" fill="#64748B"/>
</g>
<path d="M68.0391 157V147.545H71.4091C72.1441 147.545 72.7541 147.679 73.2371 147.947C73.7201 148.215 74.0821 148.581 74.3221 149.046C74.5621 149.507 74.6821 150.028 74.6821 150.606C74.6821 151.188 74.5601 151.711 74.3171 152.176C74.0771 152.637 73.7141 153.004 73.2281 153.275C72.7441 153.542 72.1371 153.676 71.4041 153.676H69.0871V152.467H71.2751C71.7401 152.467 72.1171 152.387 72.4061 152.227C72.6951 152.063 72.9081 151.842 73.0431 151.562C73.1781 151.282 73.2461 150.963 73.2461 150.606C73.2461 150.249 73.1781 149.932 73.0431 149.655C72.9081 149.378 72.6941 149.161 72.4011 149.004C72.1121 148.847 71.7301 148.769 71.2561 148.769H69.4651V157H68.0391ZM78.3081 157.157C77.8591 157.157 77.4531 157.074 77.0901 156.908C76.7271 156.738 76.4391 156.494 76.2261 156.174C76.0171 155.854 75.9121 155.461 75.9121 154.996C75.9121 154.596 75.9891 154.267 76.1431 154.009C76.2971 153.75 76.5051 153.545 76.7671 153.395C77.0281 153.244 77.3211 153.13 77.6441 153.053C77.9671 152.976 78.2961 152.917 78.6321 152.877C79.0561 152.828 79.4011 152.788 79.6661 152.757C79.9301 152.724 80.1231 152.67 80.2431 152.596C80.3631 152.522 80.4231 152.402 80.4231 152.236V152.203C80.4231 151.8 80.3091 151.488 80.0811 151.266C79.8561 151.045 79.5211 150.934 79.0751 150.934C78.6101 150.934 78.2441 151.037 77.9761 151.243C77.7111 151.446 77.5281 151.673 77.4271 151.922L76.1291 151.626C76.2831 151.196 76.5081 150.848 76.8031 150.583C77.1021 150.315 77.4451 150.121 77.8331 150.001C78.2211 149.878 78.6291 149.817 79.0561 149.817C79.3391 149.817 79.6401 149.851 79.9571 149.918C80.2771 149.983 80.5751 150.103 80.8521 150.278C81.1321 150.454 81.3611 150.705 81.5401 151.031C81.7181 151.354 81.8081 151.774 81.8081 152.291V157H80.4601V156.031H80.4041C80.3151 156.209 80.1811 156.384 80.0031 156.557C79.8241 156.729 79.5951 156.872 79.3151 156.986C79.0351 157.1 78.6991 157.157 78.3081 157.157ZM78.6091 156.049C78.9901 156.049 79.3161 155.974 79.5871 155.823C79.8611 155.672 80.0691 155.475 80.2101 155.232C80.3551 154.986 80.4271 154.723 80.4271 154.442V153.528C80.3781 153.578 80.2831 153.624 80.1411 153.667C80.0031 153.707 79.8441 153.742 79.6661 153.773C79.4871 153.801 79.3131 153.827 79.1441 153.852C78.9751 153.873 78.8331 153.892 78.7191 153.907C78.4521 153.941 78.2071 153.998 77.9851 154.078C77.7671 154.158 77.5911 154.273 77.4591 154.424C77.3301 154.572 77.2651 154.769 77.2651 155.015C77.2651 155.357 77.3911 155.615 77.6441 155.79C77.8961 155.963 78.2181 156.049 78.6091 156.049ZM84.3301 159.659C84.1241 159.659 83.9361 159.642 83.7671 159.608C83.5971 159.578 83.4711 159.544 83.3881 159.507L83.7201 158.376C83.9731 158.443 84.1981 158.473 84.3941 158.463C84.5911 158.454 84.7651 158.38 84.9161 158.242C85.0701 158.103 85.2051 157.877 85.3221 157.563L85.4931 157.092L82.8991 149.909H84.3761L86.1721 155.412H86.2461L88.0411 149.909H89.5231L86.6011 157.946C86.4661 158.316 86.2931 158.628 86.0841 158.884C85.8751 159.142 85.6261 159.336 85.3361 159.465C85.0471 159.594 84.7111 159.659 84.3301 159.659Z" fill="#D1D5DB"/>
<mask id="mask0_1466_11813" style="mask-type:luminance" maskUnits="userSpaceOnUse" x="62" y="15" width="33" height="33">
<path d="M95 15H62V48H95V15Z" fill="white"/>
</mask>
<g mask="url(#mask0_1466_11813)">
<path d="M71.5692 38.101H70.2492V39.751H71.5692C72.0642 39.751 72.3942 39.421 72.3942 38.926C72.3942 38.431 72.0642 38.101 71.5692 38.101ZM80.1492 18.3008H66.9492V44.701H88.3992V26.5508L80.1492 18.3008ZM73.8792 39.091C73.8792 40.411 72.8892 41.401 71.5692 41.401H70.2492V43.051H68.5992V36.451H71.5692C72.8892 36.451 73.8792 37.441 73.8792 38.761V39.091ZM80.6442 39.916C80.6442 41.566 79.3242 43.051 77.5092 43.051H75.1992V36.451H77.5092C79.1592 36.451 80.6442 37.771 80.6442 39.586V39.916ZM86.7492 38.101H83.4492V39.751H85.9242V41.401H83.4492V43.051H81.7992V36.451H86.7492V38.101ZM86.7492 34.801H68.5992V19.9508H80.1492V26.5508H86.7492V34.801ZM77.5092 38.101H76.8492V41.401H77.5092C78.4992 41.401 79.1592 40.741 79.1592 39.751C79.1592 38.761 78.3342 38.101 77.5092 38.101Z" fill="#EF5323"/>
</g>
<defs>
<filter id="filter0_d_1466_11813" x="1" y="0.5" width="155" height="137.984" filterUnits="userSpaceOnUse" color-interpolation-filters="sRGB">
<feFlood flood-opacity="0" result="BackgroundImageFix"/>
<feColorMatrix in="SourceAlpha" type="matrix" values="0 0 0 0 0 0 0 0 0 0 0 0 0 0 0 0 0 0 127 0" result="hardAlpha"/>
<feOffset dy="3"/>
<feGaussianBlur stdDeviation="2.5"/>
<feComposite in2="hardAlpha" operator="out"/>
<feColorMatrix type="matrix" values="0 0 0 0 0.54902 0 0 0 0 0.596078 0 0 0 0 0.643137 0 0 0 0.15 0"/>
<feBlend mode="normal" in2="BackgroundImageFix" result="effect1_dropShadow_1466_11813"/>
<feBlend mode="normal" in="SourceGraphic" in2="effect1_dropShadow_1466_11813" result="shape"/>
</filter>
<filter id="filter1_d_1466_11813" x="0.5" y="136.5" width="156" height="38" filterUnits="userSpaceOnUse" color-interpolation-filters="sRGB">
<feFlood flood-opacity="0" result="BackgroundImageFix"/>
<feColorMatrix in="SourceAlpha" type="matrix" values="0 0 0 0 0 0 0 0 0 0 0 0 0 0 0 0 0 0 127 0" result="hardAlpha"/>
<feOffset dy="3"/>
<feGaussianBlur stdDeviation="2.5"/>
<feComposite in2="hardAlpha" operator="out"/>
<feColorMatrix type="matrix" values="0 0 0 0 0.54902 0 0 0 0 0.596078 0 0 0 0 0.643137 0 0 0 0.15 0"/>
<feBlend mode="normal" in2="BackgroundImageFix" result="effect1_dropShadow_1466_11813"/>
<feBlend mode="normal" in="SourceGraphic" in2="effect1_dropShadow_1466_11813" result="shape"/>
</filter>
</defs>
</svg>
