<svg width="155" height="139" viewBox="0 0 155 139" fill="none" xmlns="http://www.w3.org/2000/svg">
<g filter="url(#filter0_d_1466_11850)">
<path d="M141.312 3.5H13.6882C9.4421 3.5 6 5.7386 6 8.5V124.484C6 127.245 9.4421 129.484 13.6882 129.484H141.312C145.558 129.484 149 127.245 149 124.484V8.5C149 5.7386 145.558 3.5 141.312 3.5Z" fill="white"/>
<path d="M5 8.5C5 5.7386 8.4909 3.5 12.7957 3.5H142.204C146.509 3.5 150 5.7386 150 8.5V59.484H5V8.5Z" fill="#F9FAFB"/>
<path d="M149 59.5H6V60.5H149V59.5Z" fill="#D1D5DB"/>
<path d="M49 75.4844H23C21.8954 75.4844 21 76.3804 21 77.4844C21 78.5894 21.8954 79.4844 23 79.4844H49C50.105 79.4844 51 78.5894 51 77.4844C51 76.3804 50.105 75.4844 49 75.4844Z" fill="#64748B"/>
<path d="M71 86.4844H23C21.8954 86.4844 21 87.3804 21 88.4844C21 89.5894 21.8954 90.4844 23 90.4844H71C72.105 90.4844 73 89.5894 73 88.4844C73 87.3804 72.105 86.4844 71 86.4844Z" fill="#D1D5DB"/>
<path d="M35 110.484H23C21.8954 110.484 21 111.38 21 112.484C21 113.589 21.8954 114.484 23 114.484H35C36.105 114.484 37 113.589 37 112.484C37 111.38 36.105 110.484 35 110.484Z" fill="#D1D5DB"/>
<path d="M82 110.484H44C42.895 110.484 42 111.38 42 112.484C42 113.589 42.895 114.484 44 114.484H82C83.105 114.484 84 113.589 84 112.484C84 111.38 83.105 110.484 82 110.484Z" fill="#D1D5DB"/>
<path d="M141.074 3H13.9255C9.2722 3 5.5 5.4624 5.5 8.5V124.484C5.5 127.522 9.2722 129.984 13.9255 129.984H141.074C145.728 129.984 149.5 127.522 149.5 124.484V8.5C149.5 5.4624 145.728 3 141.074 3Z" stroke="#D1D5DB"/>
</g>
<mask id="mask0_1466_11850" style="mask-type:luminance" maskUnits="userSpaceOnUse" x="63" y="15" width="33" height="33">
<path d="M96 15H63V48H96V15Z" fill="white"/>
</mask>
<g mask="url(#mask0_1466_11850)">
<path d="M72.5692 38.1008H71.2492V39.7508H72.5692C73.0642 39.7508 73.3942 39.4208 73.3942 38.9258C73.3942 38.4308 73.0642 38.1008 72.5692 38.1008ZM81.1492 18.3008H67.9492V44.7008H89.3992V26.5508L81.1492 18.3008ZM74.8792 39.0908C74.8792 40.4108 73.8892 41.4008 72.5692 41.4008H71.2492V43.0508H69.5992V36.4508H72.5692C73.8892 36.4508 74.8792 37.4408 74.8792 38.7608V39.0908ZM81.6442 39.9158C81.6442 41.5658 80.3242 43.0508 78.5092 43.0508H76.1992V36.4508H78.5092C80.1592 36.4508 81.6442 37.7708 81.6442 39.5858V39.9158ZM87.7492 38.1008H84.4492V39.7508H86.9242V41.4008H84.4492V43.0508H82.7992V36.4508H87.7492V38.1008ZM87.7492 34.8008H69.5992V19.9508H81.1492V26.5508H87.7492V34.8008ZM78.5092 38.1008H77.8492V41.4008H78.5092C79.4992 41.4008 80.1592 40.7408 80.1592 39.7508C80.1592 38.7608 79.3342 38.1008 78.5092 38.1008Z" fill="#EF5323"/>
</g>
<defs>
<filter id="filter0_d_1466_11850" x="0" y="0.5" width="155" height="137.984" filterUnits="userSpaceOnUse" color-interpolation-filters="sRGB">
<feFlood flood-opacity="0" result="BackgroundImageFix"/>
<feColorMatrix in="SourceAlpha" type="matrix" values="0 0 0 0 0 0 0 0 0 0 0 0 0 0 0 0 0 0 127 0" result="hardAlpha"/>
<feOffset dy="3"/>
<feGaussianBlur stdDeviation="2.5"/>
<feComposite in2="hardAlpha" operator="out"/>
<feColorMatrix type="matrix" values="0 0 0 0 0.54902 0 0 0 0 0.596078 0 0 0 0 0.643137 0 0 0 0.15 0"/>
<feBlend mode="normal" in2="BackgroundImageFix" result="effect1_dropShadow_1466_11850"/>
<feBlend mode="normal" in="SourceGraphic" in2="effect1_dropShadow_1466_11850" result="shape"/>
</filter>
</defs>
</svg>
