<svg width="157" height="138" viewBox="0 0 157 138" fill="none" xmlns="http://www.w3.org/2000/svg">
<g filter="url(#filter0_d_1466_11697)">
<path d="M11 2.5H145C147.485 2.5 149.5 4.51477 149.5 7V56C149.5 58.4849 147.485 60.5 145 60.5H11C8.51477 60.5 6.5 58.4849 6.5 56V7C6.5 4.51474 8.51474 2.5 11 2.5Z" fill="white" stroke="#D1D5DB"/>
<path d="M58.5 13.5H23.5C22.3954 13.5 21.5 14.395 21.5 15.5C21.5 16.605 22.3954 17.5 23.5 17.5H58.5C59.605 17.5 60.5 16.605 60.5 15.5C60.5 14.395 59.605 13.5 58.5 13.5Z" fill="#2563EB"/>
<path d="M23.5 28H89.5C90.3289 28 91 28.6711 91 29.5C91 30.3289 90.3289 31 89.5 31H23.5C22.6715 31 22 30.3288 22 29.5C22 28.6712 22.6715 28 23.5 28Z" fill="#D1D5DB" stroke="#D1D5DB"/>
<path d="M23.5 39H67.5C68.3289 39 69 39.6711 69 40.5C69 41.3289 68.3289 42 67.5 42H23.5C22.6715 42 22 41.3288 22 40.5C22 39.6712 22.6715 39 23.5 39Z" fill="#D1D5DB" stroke="#D1D5DB"/>
</g>
<g filter="url(#filter1_d_1466_11697)">
<path d="M146 103.5H12C9.2386 103.5 7 105.212 7 107.324V125.676C7 127.788 9.2386 129.5 12 129.5H146C148.761 129.5 151 127.788 151 125.676V107.324C151 105.212 148.761 103.5 146 103.5Z" fill="white"/>
<path d="M145.5 102.5H11.5C8.4624 102.5 6 104.4 6 106.743V125.257C6 127.6 8.4624 129.5 11.5 129.5H145.5C148.538 129.5 151 127.6 151 125.257V106.743C151 104.4 148.538 102.5 145.5 102.5Z" stroke="#D1D5DB"/>
<path d="M59 114.5H24C22.8954 114.5 22 115.395 22 116.5C22 117.605 22.8954 118.5 24 118.5H59C60.105 118.5 61 117.605 61 116.5C61 115.395 60.105 114.5 59 114.5Z" fill="#64748B"/>
<path d="M79.6701 112.045V121.5H78.3591L73.5531 114.566H73.4651V121.5H72.0391V112.045H73.3591L78.1691 118.989H78.2571V112.045H79.6701ZM84.6921 121.643C84.0271 121.643 83.4471 121.491 82.9511 121.186C82.4561 120.881 82.0711 120.455 81.7971 119.907C81.5231 119.359 81.3861 118.719 81.3861 117.987C81.3861 117.251 81.5231 116.608 81.7971 116.057C82.0711 115.506 82.4561 115.078 82.9511 114.774C83.4471 114.469 84.0271 114.317 84.6921 114.317C85.3561 114.317 85.9371 114.469 86.4321 114.774C86.9281 115.078 87.3121 115.506 87.5861 116.057C87.8601 116.608 87.9971 117.251 87.9971 117.987C87.9971 118.719 87.8601 119.359 87.5861 119.907C87.3121 120.455 86.9281 120.881 86.4321 121.186C85.9371 121.491 85.3561 121.643 84.6921 121.643ZM84.6961 120.484C85.1271 120.484 85.4841 120.371 85.7671 120.143C86.0501 119.915 86.2601 119.612 86.3951 119.233C86.5341 118.855 86.6031 118.438 86.6031 117.982C86.6031 117.53 86.5341 117.114 86.3951 116.736C86.2601 116.354 86.0501 116.048 85.7671 115.817C85.4841 115.586 85.1271 115.471 84.6961 115.471C84.2621 115.471 83.9021 115.586 83.6161 115.817C83.3331 116.048 83.1221 116.354 82.9841 116.736C82.8481 117.114 82.7801 117.53 82.7801 117.982C82.7801 118.438 82.8481 118.855 82.9841 119.233C83.1221 119.612 83.3331 119.915 83.6161 120.143C83.9021 120.371 84.2621 120.484 84.6961 120.484Z" fill="#D1D5DB"/>
</g>
<g filter="url(#filter2_d_1466_11697)">
<path d="M145.5 67.5H11.5C8.4624 67.5 6 69.4 6 71.743V90.257C6 92.6 8.4624 94.5 11.5 94.5H145.5C148.538 94.5 151 92.6 151 90.257V71.743C151 69.4 148.538 67.5 145.5 67.5Z" fill="white" stroke="#D1D5DB"/>
<path d="M59 79.5H24C22.8954 79.5 22 80.395 22 81.5C22 82.605 22.8954 83.5 24 83.5H59C60.105 83.5 61 82.605 61 81.5C61 80.395 60.105 79.5 59 79.5Z" fill="white"/>
</g>
<path d="M70 76H71.621L74.091 80.298H74.192L76.662 76H78.282L74.852 81.743V85.455H73.43V81.743L70 76ZM81.471 85.598C80.773 85.598 80.171 85.449 79.666 85.15C79.165 84.849 78.777 84.426 78.503 83.881C78.232 83.333 78.097 82.691 78.097 81.956C78.097 81.229 78.232 80.589 78.503 80.035C78.777 79.481 79.159 79.049 79.648 78.738C80.14 78.427 80.716 78.272 81.375 78.272C81.775 78.272 82.162 78.338 82.538 78.47C82.913 78.603 83.25 78.81 83.549 79.093C83.847 79.377 84.083 79.744 84.255 80.197C84.428 80.646 84.514 81.192 84.514 81.836V82.325H78.877V81.291H83.161C83.161 80.928 83.087 80.606 82.94 80.326C82.792 80.043 82.584 79.82 82.316 79.657C82.052 79.494 81.741 79.412 81.384 79.412C80.996 79.412 80.657 79.507 80.368 79.698C80.082 79.886 79.86 80.132 79.703 80.437C79.549 80.738 79.473 81.066 79.473 81.42V82.228C79.473 82.702 79.556 83.105 79.722 83.438C79.891 83.77 80.127 84.024 80.428 84.199C80.73 84.372 81.082 84.458 81.485 84.458C81.747 84.458 81.985 84.421 82.201 84.347C82.416 84.27 82.603 84.156 82.759 84.005C82.916 83.855 83.036 83.668 83.12 83.447L84.426 83.682C84.321 84.067 84.134 84.404 83.863 84.693C83.595 84.98 83.258 85.203 82.852 85.363C82.449 85.52 81.989 85.598 81.471 85.598ZM91.424 80.095L90.173 80.317C90.12 80.157 90.037 80.004 89.923 79.86C89.813 79.715 89.662 79.597 89.471 79.504C89.28 79.412 89.042 79.366 88.755 79.366C88.365 79.366 88.038 79.454 87.777 79.629C87.515 79.801 87.384 80.024 87.384 80.298C87.384 80.535 87.472 80.726 87.648 80.871C87.823 81.015 88.106 81.134 88.497 81.226L89.623 81.485C90.276 81.636 90.762 81.868 91.082 82.182C91.402 82.496 91.562 82.904 91.562 83.405C91.562 83.83 91.439 84.209 91.193 84.541C90.95 84.87 90.61 85.129 90.173 85.317C89.739 85.504 89.236 85.598 88.663 85.598C87.869 85.598 87.221 85.429 86.72 85.09C86.218 84.749 85.91 84.264 85.796 83.636L87.13 83.433C87.214 83.781 87.384 84.044 87.643 84.222C87.901 84.398 88.238 84.486 88.654 84.486C89.106 84.486 89.468 84.392 89.739 84.204C90.01 84.013 90.145 83.781 90.145 83.507C90.145 83.285 90.062 83.099 89.896 82.948C89.733 82.797 89.482 82.684 89.143 82.607L87.943 82.343C87.281 82.193 86.792 81.953 86.475 81.623C86.161 81.294 86.004 80.877 86.004 80.372C86.004 79.954 86.121 79.587 86.355 79.274C86.589 78.96 86.912 78.715 87.324 78.54C87.737 78.361 88.209 78.272 88.742 78.272C89.508 78.272 90.111 78.438 90.551 78.77C90.991 79.1 91.282 79.541 91.424 80.095Z" fill="#D1D5DB"/>
<defs>
<filter id="filter0_d_1466_11697" x="1" y="0" width="154" height="69" filterUnits="userSpaceOnUse" color-interpolation-filters="sRGB">
<feFlood flood-opacity="0" result="BackgroundImageFix"/>
<feColorMatrix in="SourceAlpha" type="matrix" values="0 0 0 0 0 0 0 0 0 0 0 0 0 0 0 0 0 0 127 0" result="hardAlpha"/>
<feOffset dy="3"/>
<feGaussianBlur stdDeviation="2.5"/>
<feComposite in2="hardAlpha" operator="out"/>
<feColorMatrix type="matrix" values="0 0 0 0 0.54902 0 0 0 0 0.596078 0 0 0 0 0.643137 0 0 0 0.15 0"/>
<feBlend mode="normal" in2="BackgroundImageFix" result="effect1_dropShadow_1466_11697"/>
<feBlend mode="normal" in="SourceGraphic" in2="effect1_dropShadow_1466_11697" result="shape"/>
</filter>
<filter id="filter1_d_1466_11697" x="0.5" y="100" width="156" height="38" filterUnits="userSpaceOnUse" color-interpolation-filters="sRGB">
<feFlood flood-opacity="0" result="BackgroundImageFix"/>
<feColorMatrix in="SourceAlpha" type="matrix" values="0 0 0 0 0 0 0 0 0 0 0 0 0 0 0 0 0 0 127 0" result="hardAlpha"/>
<feOffset dy="3"/>
<feGaussianBlur stdDeviation="2.5"/>
<feComposite in2="hardAlpha" operator="out"/>
<feColorMatrix type="matrix" values="0 0 0 0 0.54902 0 0 0 0 0.596078 0 0 0 0 0.643137 0 0 0 0.15 0"/>
<feBlend mode="normal" in2="BackgroundImageFix" result="effect1_dropShadow_1466_11697"/>
<feBlend mode="normal" in="SourceGraphic" in2="effect1_dropShadow_1466_11697" result="shape"/>
</filter>
<filter id="filter2_d_1466_11697" x="0.5" y="65" width="156" height="38" filterUnits="userSpaceOnUse" color-interpolation-filters="sRGB">
<feFlood flood-opacity="0" result="BackgroundImageFix"/>
<feColorMatrix in="SourceAlpha" type="matrix" values="0 0 0 0 0 0 0 0 0 0 0 0 0 0 0 0 0 0 127 0" result="hardAlpha"/>
<feOffset dy="3"/>
<feGaussianBlur stdDeviation="2.5"/>
<feComposite in2="hardAlpha" operator="out"/>
<feColorMatrix type="matrix" values="0 0 0 0 0.54902 0 0 0 0 0.596078 0 0 0 0 0.643137 0 0 0 0.15 0"/>
<feBlend mode="normal" in2="BackgroundImageFix" result="effect1_dropShadow_1466_11697"/>
<feBlend mode="normal" in="SourceGraphic" in2="effect1_dropShadow_1466_11697" result="shape"/>
</filter>
</defs>
</svg>
